<svg xmlns="http://www.w3.org/2000/svg" width="33.0068" height="11.138" viewBox="0 0 33.0068 11.138"><defs><style>.a{fill:#414141;}</style></defs><title>otto_inactive</title><path class="a" d="M28.7344,0a5.0457,5.0457,0,0,0-3.9277,1.5565,4.0707,4.0707,0,0,0,.2149-1.332H19.258c-1.2575,0-1.9761.5539-2.47,1.9762L17.0425.2245H11.2188A1.9407,1.9407,0,0,0,9.1563,1.7327,4.0176,4.0176,0,0,0,5.53,0C2.4462,0,.44,1.7815.0808,5.5839l-.045.4791c-.3143,3.3985,1.4673,5.075,4.2366,5.075,3.0841,0,5.09-1.7964,5.45-5.599L9.7668,5.06A6.3444,6.3444,0,0,0,9.61,2.7845h2.6116L11.4734,9.192c-.15,1.2724.539,1.8562,1.6915,1.8562a5.9777,5.9777,0,0,0,1.2126-.09l.9283-8.1739h3.0391L17.5963,9.192c-.15,1.2724.539,1.8562,1.6917,1.8562a5.9821,5.9821,0,0,0,1.2127-.09l.928-8.1739h1.4972a2.0667,2.0667,0,0,0,1.2591-.3584,7.8581,7.8581,0,0,0-.9,3.1578L23.24,6.063c-.3144,3.3985,1.4669,5.075,4.2364,5.075,3.0842,0,5.09-1.7964,5.4493-5.599l.0449-.4789C33.2854,1.6766,31.504,0,28.7344,0M6.6828,4.8505l-.03.3592C6.4433,7.7846,5.6049,8.5781,4.572,8.5781c-.9283,0-1.5868-.6287-1.4521-2.3054l.03-.3744c.21-2.56,1.0482-3.3684,2.0812-3.3684.913,0,1.5867.6439,1.452,2.3206m23.2044,0-.03.3592c-.21,2.5749-1.0478,3.3684-2.0807,3.3684-.9284,0-1.5872-.6287-1.4524-2.3054l.03-.3744c.21-2.56,1.0479-3.3684,2.0808-3.3684.9134,0,1.5871.6439,1.4524,2.3206"/></svg>