<?xml version="1.0" encoding="UTF-8" standalone="no"?>
<!--
  - 888888ba                 dP  .88888.                    dP
  - 88    `8b                88 d8'   `88                   88
  - 88aaaa8P' .d8888b. .d888b88 88        .d8888b. .d8888b. 88  .dP  .d8888b.
  - 88   `8b. 88ooood8 88'  `88 88   YP88 88ooood8 88'  `"" 88888"   88'  `88
  - 88     88 88.  ... 88.  .88 Y8.   .88 88.  ... 88.  ... 88  `8b. 88.  .88
  - dP     dP `88888P' `88888P8  `88888'  `88888P' `88888P' dP   `YP `88888P'
  -
  -                          m a g n a l i s t e r
  -                                      boost your Online-Shop
  -
  - ----------------------------------------------------------------------------
  - (c) 2010 - 2025 RedGecko GmbH -- http://www.redgecko.de
  -     Released under the MIT License (Expat)
  - ----------------------------------------------------------------------------
  -->

<!DOCTYPE svg PUBLIC "-//W3C//DTD SVG 1.1//EN" "http://www.w3.org/Graphics/SVG/1.1/DTD/svg11.dtd">
<svg width="100%" height="100%" viewBox="0 0 51 16" version="1.1" xmlns="http://www.w3.org/2000/svg" xmlns:xlink="http://www.w3.org/1999/xlink" xml:space="preserve" xmlns:serif="http://www.serif.com/" style="fill-rule:evenodd;clip-rule:evenodd;stroke-linejoin:round;stroke-miterlimit:2;">
    <g transform="matrix(0.430902,0,0,0.625959,-2.50076,-2.03327)">
        <g id="Ebene1">
            <rect x="0" y="0" width="129" height="32" style="fill:rgb(1,45,114);"/>
        </g>
    </g>
    <g id="Ebene2" transform="matrix(0.358519,0,0,0.358519,16.0057,5.6517)">
        <g transform="matrix(1,0,0,1,-38.2969,-9.5)">
            <path d="M78.7,30C79.5,31.1 80.6,31.7 81.8,31.7C82.5,31.7 83.1,31.5 83.7,31.2C85,30.4 85.9,28.5 84.7,26.4L78.9,16.8L83.8,12C85.6,10.2 85.2,8.3 84.1,7.2C83.5,6.6 82.7,6.3 81.8,6.3C80.9,6.3 80.1,6.7 79.4,7.4L71.2,15.5L71.2,3.7C71.2,1.4 69.5,0.2 67.7,0.2C66,0.2 64.2,1.4 64.2,3.7L64.2,28.2C64.2,30.5 65.9,31.8 67.7,31.8C69.4,31.8 71.2,30.6 71.2,28.2L71.2,24.3L73.7,21.8L78.7,30Z" style="fill:rgb(255,230,28);fill-rule:nonzero;"/>
        </g>
        <g transform="matrix(1,0,0,1,-38.2969,-9.5)">
            <path d="M92,6.2C90.3,6.2 88.5,7.5 88.5,10L88.5,28.2C88.5,30.5 90.2,31.6 91.9,31.6C93.6,31.6 95.3,30.4 95.3,28.2L95.3,17.9C95.3,14 97.8,13.6 99,13.4C101.4,13 102.9,11.7 103.1,9.9C103.2,8.3 102.5,7.1 100.9,6.4C100.5,6.2 100,6.1 99.5,6.1C97.9,6.1 95.9,6.9 95.2,8.5L95,8.9L94.9,8.5C94.7,7 93.3,6.2 92,6.2Z" style="fill:rgb(255,230,28);fill-rule:nonzero;"/>
        </g>
        <g transform="matrix(1,0,0,1,-38.2969,-9.5)">
            <path d="M116.3,31.9C108.9,31.9 103.6,26.6 103.6,19.3C103.6,15.8 104.8,12.5 107.1,10.1C109.5,7.5 112.7,6.1 116.3,6.1C119.9,6.1 123.2,7.5 125.5,9.9C127.8,12.3 129,15.5 129,19C129,22.5 127.8,25.7 125.5,28.1C123.2,30.5 119.9,31.9 116.3,31.9ZM116.3,12.2C113.2,12.2 110.6,15.3 110.6,19.1C110.6,22.8 113.1,25.6 116.3,25.6C119.6,25.6 122,22.8 122,19.1C122,15.3 119.4,12.2 116.3,12.2Z" style="fill:rgb(255,230,28);fill-rule:nonzero;"/>
        </g>
        <g transform="matrix(1,0,0,1,-38.2969,-9.5)">
            <path d="M24.3,12.7C26,12.7 27.8,13.8 27.8,16.4L27.8,28.1C27.8,30.5 29.5,31.7 31.2,31.7C32.9,31.7 34.6,30.4 34.6,28.1L34.6,14.5C34.6,9.1 31,6.2 26.6,6.2C23.1,6.2 20.2,7.6 19.6,8.8L19.5,9.1L19.4,8.8C18.7,7.5 16.1,6.3 13,6.3C10.2,6.3 7.6,7 6.8,8.4L6.7,8.7L6.6,8.3C6.4,7 4.9,6.3 3.6,6.3C1.8,6.2 0,7.4 0,9.7L0,28C0,30.4 1.7,31.6 3.5,31.6C5.2,31.6 7,30.3 7,28L7,16.4C7,13.9 8.8,12.7 10.5,12.7C12.2,12.7 14,13.9 14,16.4L14,28.1C14,30.5 15.7,31.7 17.5,31.7C19.2,31.7 20.9,30.4 20.9,28.1L20.9,16.4C20.8,13.8 22.5,12.7 24.3,12.7Z" style="fill:rgb(255,230,28);fill-rule:nonzero;"/>
        </g>
        <g transform="matrix(1,0,0,1,-38.2969,-9.5)">
            <path d="M52.9,22C52.9,25.3 50.8,26.7 48.3,26.7C46.3,26.7 44.6,25.5 44.6,24.1C44.6,22.2 46.1,21.8 48.7,21.3C51.2,20.8 52.4,20 52.7,19.9L52.9,19.7L52.9,22ZM50,6.2C46.3,6.2 42.6,7.5 41,9.3C40.3,10.1 40,11 40.1,11.9C40.3,13.5 41.1,14.4 42.2,14.6L42.7,14.6C44.1,14.6 45.2,13.8 45.7,13.3C46.9,12.2 47.8,11.3 50.1,11.3C52,11.3 53,12.1 53,13.5C53,15.4 51.6,15.5 49.5,15.8C43.7,16.4 38.2,17.5 38.2,23.5C38.2,27.4 40.5,30.2 44.6,31.2C45.5,31.4 46.5,31.5 47.4,31.5C50,31.5 52.2,30.8 52.9,29.6L53.1,29.4L53.2,29.7C53.5,30.6 53.8,30.9 54.2,31.1C54.7,31.4 55.3,31.6 55.9,31.6C57.7,31.6 59.5,30.2 59.5,28L59.5,12.6C59.6,8.6 56,6.2 50,6.2Z" style="fill:rgb(255,230,28);fill-rule:nonzero;"/>
        </g>
    </g>
</svg>
