<svg xmlns="http://www.w3.org/2000/svg" viewBox="0 0 40.61 13.09"><defs><style>.cls-1{fill:#1a3c7b;}.cls-2{fill:#fbe400;}</style></defs><g id="Ebene_2" data-name="Ebene 2"><g id="Ebene_1-2" data-name="Ebene 1"><rect class="cls-1" width="40.61" height="13.09"/><polygon class="cls-2" points="7.26 10.13 8.58 5.6 8.58 10.13 10.56 10.13 10.56 2.97 7.89 2.97 6.6 6.51 5.32 2.97 2.64 2.97 2.64 10.13 4.62 10.13 4.62 5.6 5.96 10.13 7.26 10.13"/><path class="cls-2" d="M29.19,7.17a1.32,1.32,0,0,0,1.24-1.31V4.26A1.34,1.34,0,0,0,29.18,3H24.05v7.16h2v-3h.7l1.4,3h2.29l-1.55-3Zm-.55-1.71c0,.15,0,.29-.29.29H26V4.37h2.32c.28,0,.28.21.28.34Z"/><polygon class="cls-2" points="16.77 4.38 16.77 2.97 11.55 2.97 11.55 10.13 16.77 10.13 16.77 8.71 13.54 8.71 13.54 7.22 16.77 7.22 16.77 5.81 13.54 5.81 13.54 4.38 16.77 4.38"/><polygon class="cls-2" points="19.42 4.38 17.54 4.38 17.54 2.97 23.28 2.97 23.28 4.38 21.4 4.38 21.4 10.13 19.42 10.13 19.42 4.38"/><path class="cls-2" d="M36.74,3H32.49A1.26,1.26,0,0,0,31.24,4.2V8.83a1.33,1.33,0,0,0,1.25,1.3h4.25A1.33,1.33,0,0,0,38,8.83V4.2A1.26,1.26,0,0,0,36.74,3M36,8.4a.31.31,0,0,1-.29.32H33.54a.32.32,0,0,1-.3-.32V4.66a.27.27,0,0,1,.29-.28H35.7a.29.29,0,0,1,.29.28Z"/></g></g></svg>