<svg width="320" height="200" viewBox="0 0 320 200" fill="none" xmlns="http://www.w3.org/2000/svg">
<path d="M300 190H20C14.5 190 10 185.5 10 180V20C10 14.5 14.5 10 20 10H300C305.5 10 310 14.5 310 20V180C310 185.5 305.5 190 300 190Z" fill="#F6F6F6"/>
<path d="M39 109L30 100L39 91" stroke="#AAAAAA" stroke-width="1.5" stroke-linecap="round" stroke-linejoin="round"/>
<path d="M281 91L290 100L281 109" stroke="#AAAAAA" stroke-width="1.5" stroke-linecap="round" stroke-linejoin="round"/>
<path opacity="0.1" d="M223 82H97C93.1 82 90 78.9 90 75C90 71.1 93.1 68 97 68H223C226.9 68 230 71.1 230 75C230 78.9 226.9 82 223 82Z" fill="black"/>
<path opacity="0.1" d="M243 102H77C73.1 102 70 98.9 70 95C70 91.1 73.1 88 77 88H243C246.9 88 250 91.1 250 95C250 98.9 246.9 102 243 102Z" fill="black"/>
<path opacity="0.1" d="M198 122H122C118.1 122 115 118.9 115 115C115 111.1 118.1 108 122 108H198C201.9 108 205 111.1 205 115C205 118.9 201.9 122 198 122Z" fill="black"/>
<path d="M200 167H120C117.2 167 115 164.8 115 162V148C115 145.2 117.2 143 120 143H200C202.8 143 205 145.2 205 148V162C205 164.8 202.8 167 200 167Z" fill="#942E8F"/>
<path d="M105.707 47.2V35.5636H113.548V37.592H108.167V40.3648H113.144V42.3932H108.167V45.1716H113.57V47.2H105.707Z" fill="#333333"/>
<path d="M117.879 35.5636V47.2H115.458V35.5636H117.879Z" fill="#333333"/>
<path d="M121.312 50.4727C121.005 50.4727 120.717 50.4481 120.448 50.3989C120.183 50.3534 119.963 50.2947 119.789 50.2227L120.335 48.4159C120.619 48.503 120.874 48.5504 121.102 48.5579C121.333 48.5655 121.531 48.5125 121.698 48.3989C121.869 48.2852 122.007 48.092 122.113 47.8193L122.255 47.45L119.124 38.4727H121.67L123.477 44.8818H123.567L125.391 38.4727H127.954L124.562 48.1432C124.399 48.6129 124.177 49.022 123.897 49.3704C123.62 49.7227 123.27 49.9935 122.846 50.1829C122.422 50.3761 121.91 50.4727 121.312 50.4727Z" fill="#333333"/>
<path d="M136.454 40.9613L134.238 41.0977C134.2 40.9083 134.119 40.7379 133.994 40.5863C133.869 40.431 133.704 40.3079 133.499 40.217C133.299 40.1223 133.058 40.075 132.778 40.075C132.403 40.075 132.086 40.1545 131.829 40.3136C131.571 40.4689 131.442 40.6773 131.442 40.9386C131.442 41.147 131.526 41.3231 131.692 41.467C131.859 41.611 132.145 41.7265 132.55 41.8136L134.13 42.1318C134.978 42.306 135.611 42.5863 136.028 42.9727C136.444 43.3591 136.653 43.8667 136.653 44.4954C136.653 45.0674 136.484 45.5693 136.147 46.0011C135.814 46.4329 135.355 46.7701 134.772 47.0125C134.192 47.2511 133.524 47.3704 132.766 47.3704C131.611 47.3704 130.691 47.1299 130.005 46.6489C129.323 46.164 128.924 45.5049 128.806 44.6716L131.187 44.5466C131.259 44.8989 131.433 45.1678 131.71 45.3534C131.986 45.5352 132.34 45.6261 132.772 45.6261C133.196 45.6261 133.537 45.5447 133.795 45.3818C134.056 45.2151 134.189 45.0011 134.192 44.7398C134.189 44.5201 134.096 44.3401 133.914 44.2C133.732 44.056 133.452 43.9462 133.073 43.8704L131.562 43.5693C130.71 43.3988 130.075 43.1034 129.658 42.6829C129.245 42.2625 129.039 41.7265 129.039 41.075C129.039 40.5144 129.191 40.0314 129.494 39.6261C129.8 39.2208 130.23 38.9083 130.783 38.6886C131.34 38.4689 131.992 38.3591 132.738 38.3591C133.84 38.3591 134.708 38.592 135.34 39.0579C135.977 39.5238 136.348 40.1583 136.454 40.9613Z" fill="#333333"/>
<path d="M138.177 47.2V38.4727H140.597V47.2H138.177ZM139.393 37.3477C139.033 37.3477 138.724 37.2284 138.467 36.9898C138.213 36.7473 138.086 36.4576 138.086 36.1204C138.086 35.7871 138.213 35.5011 138.467 35.2625C138.724 35.0201 139.033 34.8988 139.393 34.8988C139.753 34.8988 140.059 35.0201 140.313 35.2625C140.571 35.5011 140.7 35.7871 140.7 36.1204C140.7 36.4576 140.571 36.7473 140.313 36.9898C140.059 37.2284 139.753 37.3477 139.393 37.3477Z" fill="#333333"/>
<path d="M148.133 43.4841V38.4727H150.553V47.2H148.229V45.6148H148.138C147.942 46.1261 147.614 46.5371 147.156 46.8477C146.701 47.1583 146.146 47.3136 145.491 47.3136C144.907 47.3136 144.394 47.181 143.951 46.9159C143.508 46.6507 143.161 46.2738 142.911 45.7852C142.665 45.2966 142.54 44.7113 142.536 44.0295V38.4727H144.957V43.5977C144.96 44.1129 145.099 44.5201 145.371 44.8193C145.644 45.1185 146.01 45.2682 146.468 45.2682C146.76 45.2682 147.032 45.2019 147.286 45.0693C147.54 44.9329 147.745 44.7322 147.9 44.467C148.059 44.2019 148.137 43.8742 148.133 43.4841Z" fill="#333333"/>
<path d="M152.489 47.2V38.4727H154.796V40.0125H154.898C155.08 39.5011 155.383 39.0977 155.808 38.8023C156.232 38.5068 156.739 38.3591 157.33 38.3591C157.929 38.3591 158.438 38.5087 158.859 38.8079C159.279 39.1034 159.559 39.5049 159.7 40.0125H159.79C159.969 39.5125 160.29 39.1129 160.756 38.8136C161.226 38.5106 161.781 38.3591 162.421 38.3591C163.236 38.3591 163.897 38.6185 164.404 39.1375C164.915 39.6526 165.171 40.3837 165.171 41.3307V47.2H162.756V41.8079C162.756 41.3231 162.628 40.9595 162.37 40.717C162.112 40.4746 161.79 40.3534 161.404 40.3534C160.965 40.3534 160.622 40.4935 160.376 40.7738C160.129 41.0504 160.006 41.4159 160.006 41.8704V47.2H157.66V41.7568C157.66 41.3288 157.537 40.9879 157.29 40.7341C157.048 40.4803 156.728 40.3534 156.33 40.3534C156.061 40.3534 155.819 40.4216 155.603 40.5579C155.391 40.6905 155.222 40.878 155.097 41.1204C154.972 41.3591 154.91 41.6394 154.91 41.9613V47.2H152.489Z" fill="#333333"/>
<path d="M177.144 38.9102C177.099 38.4519 176.904 38.0958 176.559 37.842C176.214 37.5882 175.746 37.4613 175.156 37.4613C174.754 37.4613 174.415 37.5182 174.138 37.6318C173.862 37.7417 173.65 37.8951 173.502 38.092C173.358 38.289 173.286 38.5125 173.286 38.7625C173.279 38.9708 173.322 39.1526 173.417 39.3079C173.515 39.4632 173.65 39.5977 173.82 39.7113C173.991 39.8212 174.188 39.9178 174.411 40.0011C174.635 40.0807 174.873 40.1488 175.127 40.2057L176.173 40.4557C176.68 40.5693 177.146 40.7208 177.57 40.9102C177.995 41.0996 178.362 41.3326 178.673 41.6091C178.983 41.8856 179.224 42.2113 179.394 42.5863C179.568 42.9613 179.657 43.3913 179.661 43.8761C179.657 44.5882 179.476 45.2057 179.116 45.7284C178.76 46.2473 178.245 46.6507 177.57 46.9386C176.9 47.2227 176.091 47.3648 175.144 47.3648C174.205 47.3648 173.387 47.2208 172.69 46.9329C171.996 46.6451 171.455 46.2189 171.065 45.6545C170.678 45.0863 170.476 44.3837 170.457 43.5466H172.837C172.864 43.9367 172.976 44.2625 173.173 44.5238C173.373 44.7814 173.64 44.9765 173.974 45.1091C174.311 45.2379 174.692 45.3023 175.116 45.3023C175.532 45.3023 175.894 45.2417 176.201 45.1204C176.512 44.9992 176.752 44.8307 176.923 44.6148C177.093 44.3989 177.178 44.1507 177.178 43.8704C177.178 43.6091 177.101 43.3894 176.945 43.2113C176.794 43.0333 176.57 42.8818 176.275 42.7568C175.983 42.6318 175.625 42.5182 175.201 42.4159L173.934 42.0977C172.953 41.8591 172.178 41.486 171.61 40.9784C171.042 40.4708 170.76 39.7871 170.763 38.9273C170.76 38.2227 170.947 37.6072 171.326 37.0807C171.709 36.5542 172.233 36.1432 172.9 35.8477C173.567 35.5523 174.324 35.4045 175.173 35.4045C176.036 35.4045 176.79 35.5523 177.434 35.8477C178.082 36.1432 178.585 36.5542 178.945 37.0807C179.305 37.6072 179.491 38.217 179.502 38.9102H177.144Z" fill="#333333"/>
<path d="M183.691 35.5636V47.2H181.271V35.5636H183.691Z" fill="#333333"/>
<path d="M185.63 47.2V38.4727H188.05V47.2H185.63ZM186.846 37.3477C186.486 37.3477 186.177 37.2284 185.92 36.9898C185.666 36.7473 185.539 36.4576 185.539 36.1204C185.539 35.7871 185.666 35.5011 185.92 35.2625C186.177 35.0201 186.486 34.8988 186.846 34.8988C187.206 34.8988 187.513 35.0201 187.766 35.2625C188.024 35.5011 188.153 35.7871 188.153 36.1204C188.153 36.4576 188.024 36.7473 187.766 36.9898C187.513 37.2284 187.206 37.3477 186.846 37.3477Z" fill="#333333"/>
<path d="M193.205 47.342C192.542 47.342 191.942 47.1716 191.404 46.8307C190.87 46.486 190.446 45.9803 190.131 45.3136C189.821 44.6432 189.665 43.8212 189.665 42.8477C189.665 41.8477 189.826 41.0163 190.148 40.3534C190.47 39.6867 190.898 39.1886 191.433 38.8591C191.97 38.5257 192.559 38.3591 193.2 38.3591C193.688 38.3591 194.095 38.4424 194.421 38.6091C194.751 38.772 195.016 38.9765 195.217 39.2227C195.421 39.4651 195.576 39.7038 195.683 39.9386H195.756V35.5636H198.171V47.2H195.785V45.8023H195.683C195.569 46.0447 195.408 46.2852 195.2 46.5239C194.995 46.7587 194.728 46.9538 194.398 47.1091C194.073 47.2644 193.675 47.342 193.205 47.342ZM193.972 45.4159C194.362 45.4159 194.692 45.3098 194.961 45.0977C195.234 44.8818 195.442 44.5807 195.586 44.1943C195.734 43.8079 195.808 43.3553 195.808 42.8363C195.808 42.3174 195.736 41.8667 195.592 41.4841C195.448 41.1015 195.239 40.806 194.967 40.5977C194.694 40.3894 194.362 40.2852 193.972 40.2852C193.575 40.2852 193.239 40.3932 192.967 40.6091C192.694 40.825 192.487 41.1242 192.347 41.5068C192.207 41.8894 192.137 42.3326 192.137 42.8363C192.137 43.3439 192.207 43.7928 192.347 44.1829C192.491 44.5693 192.698 44.8723 192.967 45.092C193.239 45.3079 193.575 45.4159 193.972 45.4159Z" fill="#333333"/>
<path d="M204.138 47.3704C203.241 47.3704 202.468 47.1886 201.82 46.825C201.176 46.4576 200.68 45.9386 200.332 45.2682C199.983 44.5939 199.809 43.7966 199.809 42.8761C199.809 41.9784 199.983 41.1905 200.332 40.5125C200.68 39.8345 201.171 39.306 201.803 38.9273C202.44 38.5485 203.186 38.3591 204.042 38.3591C204.618 38.3591 205.154 38.4519 205.65 38.6375C206.15 38.8193 206.585 39.0939 206.957 39.4613C207.332 39.8288 207.623 40.2909 207.832 40.8477C208.04 41.4007 208.144 42.0485 208.144 42.7909V43.4557H200.775V41.9557H205.866C205.866 41.6072 205.79 41.2985 205.638 41.0295C205.487 40.7606 205.277 40.5504 205.008 40.3988C204.743 40.2435 204.434 40.1659 204.082 40.1659C203.714 40.1659 203.388 40.2511 203.104 40.4216C202.824 40.5882 202.604 40.8136 202.445 41.0977C202.286 41.378 202.205 41.6905 202.201 42.0352V43.4613C202.201 43.8932 202.281 44.2663 202.44 44.5807C202.602 44.8951 202.832 45.1375 203.127 45.3079C203.423 45.4784 203.773 45.5636 204.178 45.5636C204.447 45.5636 204.693 45.5257 204.917 45.45C205.14 45.3742 205.332 45.2606 205.491 45.1091C205.65 44.9576 205.771 44.772 205.854 44.5523L208.093 44.7C207.979 45.2379 207.746 45.7076 207.394 46.1091C207.046 46.5068 206.595 46.8174 206.042 47.0409C205.493 47.2606 204.858 47.3704 204.138 47.3704Z" fill="#333333"/>
<path d="M209.724 47.2V38.4727H212.07V39.9954H212.161C212.32 39.4538 212.587 39.0447 212.962 38.7682C213.337 38.4879 213.769 38.3477 214.258 38.3477C214.379 38.3477 214.51 38.3553 214.65 38.3704C214.79 38.3856 214.913 38.4064 215.019 38.4329V40.5807C214.906 40.5466 214.748 40.5163 214.548 40.4898C214.347 40.4632 214.163 40.45 213.996 40.45C213.64 40.45 213.322 40.5276 213.042 40.6829C212.765 40.8345 212.546 41.0466 212.383 41.3193C212.224 41.592 212.144 41.9064 212.144 42.2625V47.2H209.724Z" fill="#333333"/>
</svg>
