<svg width="320" height="160" viewBox="0 0 320 160" fill="none" xmlns="http://www.w3.org/2000/svg">
<path d="M14.8333 149C14.3527 149 13.8627 148.827 13.3813 148.46L12.7742 149.254C11.5452 148.315 10.5972 146.565 10.2015 144.441L11.1846 144.257C11.0649 143.615 11 142.931 11 142.222V138.272H10V128.395H11V120.494H10V110.617H11V102.716H10V92.8395H11V84.9383H10V75.0617H11V67.1605H10V57.284H11V49.3827H10V39.5062H11V31.6049H10V21.7284H11V17.7778C11 17.0686 11.0649 16.3852 11.1846 15.7426L10.2015 15.5595C10.5972 13.4349 11.5453 11.6847 12.7742 10.7457L13.3813 11.5403C13.8627 11.1725 14.3527 11 14.8333 11H18.5926V10H27.9907V11H35.5093V10H44.9074V11H52.4259V10H61.8241V11H69.3426V10H78.7407V11H86.2592V10H95.6574V11H103.176V10H112.574V11H120.093V10H129.491V11H137.009V10H146.407V11H150.167C150.647 11 151.137 11.1725 151.619 11.5403L152.226 10.7457C153.455 11.6847 154.403 13.4349 154.799 15.5595L153.815 15.7426C153.935 16.3852 154 17.0686 154 17.7778V21.7284H155V31.6049H154V39.5062H155V49.3827H154V57.284H155V67.1605H154V75.0617H155V84.9383H154V92.8395H155V102.716H154V110.617H155V120.494H154V128.395H155V138.272H154V142.222C154 142.931 153.935 143.615 153.815 144.257L154.799 144.441C154.403 146.565 153.455 148.315 152.226 149.254L151.619 148.46C151.137 148.827 150.647 149 150.167 149H146.407V150H137.009V149H129.491V150H120.093V149H112.574V150H103.176V149H95.6574V150H86.2593V149H78.7407V150H69.3426V149H61.8241V150H52.4259V149H44.9074V150H35.5093V149H27.9908V150H18.5926V149H14.8333Z" fill="#F9F9F9" stroke="#DDDDDD" stroke-width="2" stroke-dasharray="8 10"/>
<path d="M169.833 149C169.353 149 168.863 148.827 168.381 148.46L167.774 149.254C166.545 148.315 165.597 146.565 165.201 144.441L166.185 144.257C166.065 143.615 166 142.931 166 142.222V138.272H165V128.395H166V120.494H165V110.617H166V102.716H165V92.8395H166V84.9383H165V75.0617H166V67.1605H165V57.284H166V49.3827H165V39.5062H166V31.6049H165V21.7284H166V17.7778C166 17.0686 166.065 16.3852 166.185 15.7426L165.201 15.5595C165.597 13.4349 166.545 11.6847 167.774 10.7457L168.381 11.5403C168.863 11.1725 169.353 11 169.833 11H173.593V10H182.991V11H190.509V10H199.907V11H207.426V10H216.824V11H224.343V10H233.741V11H241.259V10H250.657V11H258.176V10H267.574V11H275.093V10H284.491V11H292.009V10H301.407V11H305.167C305.647 11 306.137 11.1725 306.619 11.5403L307.226 10.7457C308.455 11.6847 309.403 13.4349 309.799 15.5595L308.815 15.7426C308.935 16.3852 309 17.0686 309 17.7778V21.7284H310V31.6049H309V39.5062H310V49.3827H309V57.284H310V67.1605H309V75.0617H310V84.9383H309V92.8395H310V102.716H309V110.617H310V120.494H309V128.395H310V138.272H309V142.222C309 142.931 308.935 143.615 308.815 144.257L309.799 144.441C309.403 146.565 308.455 148.315 307.226 149.254L306.619 148.46C306.137 148.827 305.647 149 305.167 149H301.407V150H292.009V149H284.491V150H275.093V149H267.574V150H258.176V149H250.657V150H241.259V149H233.741V150H224.343V149H216.824V150H207.426V149H199.907V150H190.509V149H182.991V150H173.593V149H169.833Z" fill="#F9F9F9" stroke="#DDDDDD" stroke-width="2" stroke-dasharray="8 10"/>
</svg>
