<svg width="320" height="200" viewBox="0 0 320 200" fill="none" xmlns="http://www.w3.org/2000/svg">
<path d="M300 190H20C14.5 190 10 185.5 10 180V20C10 14.5 14.5 10 20 10H300C305.5 10 310 14.5 310 20V180C310 185.5 305.5 190 300 190Z" fill="#F6F6F6"/>
<path opacity="0.1" d="M223 82H97C93.1 82 90 78.9 90 75C90 71.1 93.1 68 97 68H223C226.9 68 230 71.1 230 75C230 78.9 226.9 82 223 82Z" fill="black"/>
<path opacity="0.1" d="M243 102H77C73.1 102 70 98.9 70 95C70 91.1 73.1 88 77 88H243C246.9 88 250 91.1 250 95C250 98.9 246.9 102 243 102Z" fill="black"/>
<path opacity="0.1" d="M198 122H122C118.1 122 115 118.9 115 115C115 111.1 118.1 108 122 108H198C201.9 108 205 111.1 205 115C205 118.9 201.9 122 198 122Z" fill="black"/>
<path d="M200 167H120C117.2 167 115 164.8 115 162V148C115 145.2 117.2 143 120 143H200C202.8 143 205 145.2 205 148V162C205 164.8 202.8 167 200 167Z" fill="#942E8F"/>
<path d="M100.511 47.2V35.5636H108.352V37.592H102.972V40.3647H107.949V42.3932H102.972V45.1716H108.375V47.2H100.511Z" fill="#333333"/>
<path d="M112.683 35.5636V47.2H110.263V35.5636H112.683Z" fill="#333333"/>
<path d="M116.116 50.4727C115.81 50.4727 115.522 50.4481 115.253 50.3988C114.988 50.3534 114.768 50.2947 114.594 50.2227L115.139 48.4159C115.423 48.503 115.679 48.5504 115.906 48.5579C116.137 48.5655 116.336 48.5125 116.503 48.3988C116.673 48.2852 116.812 48.092 116.918 47.8193L117.06 47.45L113.929 38.4727H116.474L118.281 44.8818H118.372L120.196 38.4727H122.759L119.366 48.1432C119.204 48.6129 118.982 49.0219 118.702 49.3704C118.425 49.7227 118.075 49.9935 117.651 50.1829C117.226 50.3761 116.715 50.4727 116.116 50.4727Z" fill="#333333"/>
<path d="M131.259 40.9613L129.043 41.0977C129.005 40.9083 128.923 40.7378 128.798 40.5863C128.673 40.431 128.509 40.3079 128.304 40.217C128.103 40.1223 127.863 40.075 127.582 40.075C127.207 40.075 126.891 40.1545 126.634 40.3136C126.376 40.4689 126.247 40.6772 126.247 40.9386C126.247 41.1469 126.33 41.3231 126.497 41.467C126.664 41.611 126.95 41.7265 127.355 41.8136L128.935 42.1318C129.783 42.306 130.416 42.5863 130.832 42.9727C131.249 43.3591 131.457 43.8666 131.457 44.4954C131.457 45.0674 131.289 45.5693 130.952 46.0011C130.618 46.4329 130.16 46.77 129.577 47.0125C128.997 47.2511 128.329 47.3704 127.571 47.3704C126.416 47.3704 125.495 47.1299 124.81 46.6488C124.128 46.164 123.728 45.5049 123.611 44.6716L125.991 44.5466C126.063 44.8988 126.238 45.1678 126.514 45.3534C126.791 45.5352 127.145 45.6261 127.577 45.6261C128.001 45.6261 128.342 45.5447 128.599 45.3818C128.861 45.2151 128.993 45.0011 128.997 44.7397C128.993 44.52 128.901 44.3401 128.719 44.2C128.537 44.056 128.257 43.9462 127.878 43.8704L126.366 43.5693C125.514 43.3988 124.88 43.1034 124.463 42.6829C124.05 42.2625 123.844 41.7265 123.844 41.075C123.844 40.5144 123.995 40.0314 124.298 39.6261C124.605 39.2208 125.035 38.9083 125.588 38.6886C126.145 38.4689 126.796 38.3591 127.543 38.3591C128.645 38.3591 129.512 38.592 130.145 39.0579C130.781 39.5238 131.152 40.1583 131.259 40.9613Z" fill="#333333"/>
<path d="M132.982 47.2V38.4727H135.402V47.2H132.982ZM134.197 37.3477C133.838 37.3477 133.529 37.2284 133.271 36.9897C133.018 36.7473 132.891 36.4575 132.891 36.1204C132.891 35.7871 133.018 35.5011 133.271 35.2625C133.529 35.02 133.838 34.8988 134.197 34.8988C134.557 34.8988 134.864 35.02 135.118 35.2625C135.375 35.5011 135.504 35.7871 135.504 36.1204C135.504 36.4575 135.375 36.7473 135.118 36.9897C134.864 37.2284 134.557 37.3477 134.197 37.3477Z" fill="#333333"/>
<path d="M142.937 43.4841V38.4727H145.358V47.2H143.034V45.6147H142.943C142.746 46.1261 142.419 46.5371 141.96 46.8477C141.506 47.1583 140.951 47.3136 140.295 47.3136C139.712 47.3136 139.199 47.181 138.756 46.9159C138.312 46.6507 137.966 46.2738 137.716 45.7852C137.47 45.2966 137.345 44.7113 137.341 44.0295V38.4727H139.761V43.5977C139.765 44.1128 139.903 44.52 140.176 44.8193C140.449 45.1185 140.814 45.2682 141.273 45.2682C141.564 45.2682 141.837 45.2019 142.091 45.0693C142.345 44.9329 142.549 44.7322 142.705 44.467C142.864 44.2019 142.941 43.8742 142.937 43.4841Z" fill="#333333"/>
<path d="M147.294 47.2V38.4727H149.601V40.0125H149.703C149.885 39.5011 150.188 39.0977 150.612 38.8022C151.036 38.5068 151.544 38.3591 152.135 38.3591C152.733 38.3591 153.243 38.5087 153.663 38.8079C154.084 39.1034 154.364 39.5049 154.504 40.0125H154.595C154.773 39.5125 155.095 39.1128 155.561 38.8136C156.031 38.5106 156.586 38.3591 157.226 38.3591C158.04 38.3591 158.701 38.6185 159.209 39.1375C159.72 39.6526 159.976 40.3837 159.976 41.3307V47.2H157.561V41.8079C157.561 41.3231 157.432 40.9594 157.175 40.717C156.917 40.4746 156.595 40.3534 156.209 40.3534C155.769 40.3534 155.427 40.4935 155.18 40.7738C154.934 41.0503 154.811 41.4159 154.811 41.8704V47.2H152.464V41.7568C152.464 41.3288 152.341 40.9878 152.095 40.7341C151.853 40.4803 151.533 40.3534 151.135 40.3534C150.866 40.3534 150.624 40.4216 150.408 40.5579C150.196 40.6905 150.027 40.878 149.902 41.1204C149.777 41.3591 149.714 41.6394 149.714 41.9613V47.2H147.294Z" fill="#333333"/>
<path d="M165.636 47.2V35.5636H170.295C171.152 35.5636 171.866 35.6905 172.437 35.9443C173.009 36.1981 173.439 36.5503 173.727 37.0011C174.015 37.4481 174.159 37.9632 174.159 38.5466C174.159 39.0011 174.068 39.4007 173.886 39.7454C173.705 40.0863 173.455 40.3666 173.136 40.5863C172.822 40.8022 172.462 40.9557 172.057 41.0466V41.1602C172.5 41.1791 172.915 41.3041 173.301 41.5352C173.691 41.7663 174.008 42.0901 174.25 42.5068C174.492 42.9197 174.614 43.4121 174.614 43.9841C174.614 44.6015 174.46 45.1526 174.153 45.6375C173.85 46.1185 173.402 46.4992 172.807 46.7795C172.212 47.0598 171.479 47.2 170.608 47.2H165.636ZM168.097 45.1886H170.102C170.788 45.1886 171.288 45.0579 171.602 44.7966C171.917 44.5314 172.074 44.1791 172.074 43.7397C172.074 43.4178 171.996 43.1337 171.841 42.8875C171.686 42.6413 171.464 42.4481 171.176 42.3079C170.892 42.1678 170.553 42.0977 170.159 42.0977H168.097V45.1886ZM168.097 40.4329H169.92C170.258 40.4329 170.557 40.3742 170.818 40.2568C171.083 40.1356 171.292 39.9651 171.443 39.7454C171.598 39.5257 171.676 39.2625 171.676 38.9557C171.676 38.5352 171.527 38.1962 171.227 37.9386C170.932 37.681 170.511 37.5522 169.966 37.5522H168.097V40.4329Z" fill="#333333"/>
<path d="M178.658 47.3647C178.101 47.3647 177.605 47.2682 177.169 47.075C176.733 46.878 176.389 46.5882 176.135 46.2057C175.885 45.8193 175.76 45.3382 175.76 44.7625C175.76 44.2776 175.849 43.8704 176.027 43.5409C176.205 43.2113 176.447 42.9462 176.754 42.7454C177.061 42.5447 177.41 42.3932 177.8 42.2909C178.194 42.1886 178.607 42.1166 179.038 42.075C179.546 42.0219 179.955 41.9727 180.266 41.9272C180.576 41.878 180.802 41.806 180.942 41.7113C181.082 41.6166 181.152 41.4765 181.152 41.2909V41.2568C181.152 40.8969 181.038 40.6185 180.811 40.4216C180.588 40.2246 180.269 40.1261 179.857 40.1261C179.421 40.1261 179.074 40.2227 178.817 40.4159C178.559 40.6053 178.389 40.8439 178.305 41.1318L176.067 40.95C176.18 40.4197 176.404 39.9613 176.737 39.575C177.071 39.1848 177.5 38.8856 178.027 38.6772C178.557 38.4651 179.171 38.3591 179.868 38.3591C180.353 38.3591 180.817 38.4159 181.26 38.5295C181.707 38.6432 182.103 38.8193 182.447 39.0579C182.796 39.2966 183.071 39.6034 183.271 39.9784C183.472 40.3496 183.572 40.7947 183.572 41.3136V47.2H181.277V45.9897H181.209C181.069 46.2625 180.881 46.503 180.646 46.7113C180.411 46.9159 180.129 47.0769 179.8 47.1943C179.47 47.3079 179.089 47.3647 178.658 47.3647ZM179.351 45.6943C179.707 45.6943 180.021 45.6242 180.294 45.4841C180.567 45.3401 180.781 45.1469 180.936 44.9045C181.091 44.6621 181.169 44.3875 181.169 44.0807V43.1545C181.093 43.2038 180.989 43.2492 180.857 43.2909C180.728 43.3288 180.582 43.3647 180.419 43.3988C180.256 43.4291 180.093 43.4575 179.93 43.4841C179.768 43.5068 179.62 43.5276 179.487 43.5466C179.203 43.5882 178.955 43.6545 178.743 43.7454C178.531 43.8363 178.366 43.9594 178.249 44.1147C178.131 44.2663 178.072 44.4557 178.072 44.6829C178.072 45.0125 178.192 45.2644 178.43 45.4386C178.673 45.6091 178.98 45.6943 179.351 45.6943Z" fill="#333333"/>
<path d="M187.871 42.1545V47.2H185.45V38.4727H187.757V40.0125H187.859C188.053 39.5049 188.376 39.1034 188.831 38.8079C189.286 38.5087 189.837 38.3591 190.484 38.3591C191.09 38.3591 191.619 38.4916 192.07 38.7568C192.52 39.0219 192.871 39.4007 193.121 39.8932C193.371 40.3818 193.496 40.9651 193.496 41.6432V47.2H191.075V42.075C191.079 41.5409 190.943 41.1242 190.666 40.825C190.39 40.5219 190.009 40.3704 189.524 40.3704C189.198 40.3704 188.91 40.4405 188.66 40.5807C188.414 40.7208 188.221 40.9253 188.081 41.1943C187.945 41.4594 187.875 41.7795 187.871 42.1545Z" fill="#333333"/>
<path d="M197.824 42.1545V47.2H195.403V38.4727H197.71V40.0125H197.812C198.006 39.5049 198.33 39.1034 198.784 38.8079C199.239 38.5087 199.79 38.3591 200.437 38.3591C201.044 38.3591 201.572 38.4916 202.023 38.7568C202.473 39.0219 202.824 39.4007 203.074 39.8932C203.324 40.3818 203.449 40.9651 203.449 41.6432V47.2H201.028V42.075C201.032 41.5409 200.896 41.1242 200.619 40.825C200.343 40.5219 199.962 40.3704 199.477 40.3704C199.152 40.3704 198.864 40.4405 198.614 40.5807C198.367 40.7208 198.174 40.9253 198.034 41.1943C197.898 41.4594 197.828 41.7795 197.824 42.1545Z" fill="#333333"/>
<path d="M209.334 47.3704C208.436 47.3704 207.663 47.1886 207.016 46.825C206.372 46.4575 205.875 45.9386 205.527 45.2682C205.178 44.5939 205.004 43.7966 205.004 42.8761C205.004 41.9784 205.178 41.1905 205.527 40.5125C205.875 39.8344 206.366 39.306 206.999 38.9272C207.635 38.5485 208.381 38.3591 209.237 38.3591C209.813 38.3591 210.349 38.4519 210.845 38.6375C211.345 38.8193 211.781 39.0939 212.152 39.4613C212.527 39.8288 212.819 40.2909 213.027 40.8477C213.235 41.4007 213.339 42.0485 213.339 42.7909V43.4557H205.97V41.9557H211.061C211.061 41.6072 210.985 41.2985 210.834 41.0295C210.682 40.7606 210.472 40.5503 210.203 40.3988C209.938 40.2435 209.629 40.1659 209.277 40.1659C208.91 40.1659 208.584 40.2511 208.3 40.4216C208.019 40.5882 207.8 40.8136 207.641 41.0977C207.482 41.378 207.4 41.6905 207.396 42.0352V43.4613C207.396 43.8932 207.476 44.2663 207.635 44.5807C207.798 44.895 208.027 45.1375 208.322 45.3079C208.618 45.4784 208.968 45.5636 209.374 45.5636C209.643 45.5636 209.889 45.5257 210.112 45.45C210.336 45.3742 210.527 45.2606 210.686 45.1091C210.845 44.9575 210.966 44.7719 211.05 44.5522L213.288 44.7C213.175 45.2378 212.942 45.7075 212.589 46.1091C212.241 46.5068 211.79 46.8174 211.237 47.0409C210.688 47.2606 210.053 47.3704 209.334 47.3704Z" fill="#333333"/>
<path d="M214.919 47.2V38.4727H217.266V39.9954H217.357C217.516 39.4538 217.783 39.0447 218.158 38.7682C218.533 38.4878 218.964 38.3477 219.453 38.3477C219.574 38.3477 219.705 38.3553 219.845 38.3704C219.985 38.3856 220.108 38.4064 220.214 38.4329V40.5807C220.101 40.5466 219.944 40.5163 219.743 40.4897C219.542 40.4632 219.358 40.45 219.192 40.45C218.836 40.45 218.518 40.5276 218.237 40.6829C217.961 40.8344 217.741 41.0466 217.578 41.3193C217.419 41.592 217.339 41.9064 217.339 42.2625V47.2H214.919Z" fill="#333333"/>
</svg>
