<svg xmlns="http://www.w3.org/2000/svg" width="52.875" height="15.9398" viewBox="0 0 52.875 15.9398"><defs><style>.a{fill:#f89910;}.a,.b{fill-rule:evenodd;}</style></defs><title>amazon</title><path class="a" d="M32.8057,12.4447A20.1008,20.1008,0,0,1,21.4542,15.94,20.5314,20.5314,0,0,1,7.572,10.6744c-.2931-.2565-.0351-.6141.3108-.4133a27.9431,27.9431,0,0,0,13.8953,3.6563,27.7628,27.7628,0,0,0,10.5894-2.1893c.5143-.2257.9554.337.4382.7165"/><path class="a" d="M34.085,10.9792c-.3914-.5041-2.5923-.23-3.5845-.107-.3019.0381-.3444-.2329-.0821-.4235,1.7644-1.2383,4.6441-.8851,4.9753-.469.34.4089-.0836,3.3017-1.7235,4.6866-.2565.208-.4954.101-.3854-.1774.3678-.9335,1.1958-3.0012.8-3.51"/><path class="b" d="M30.5459,1.72,30.5518.5276A.2965.2965,0,0,1,30.8492.22L36.23.2125A.2917.2917,0,0,1,36.54.51V1.5446a1.6671,1.6671,0,0,1-.4044.7518l-2.7771,3.98a6.0742,6.0742,0,0,1,3.0731.658.584.584,0,0,1,.2827.4646l.003,1.2838a.2822.2822,0,0,1-.3942.2725,6.2185,6.2185,0,0,0-5.6889.0264c-.18.0953-.3782-.0983-.38-.277V7.4886a1.392,1.392,0,0,1,.1934-.825L33.67,2.0253l-2.818.0074a.3047.3047,0,0,1-.3063-.3121"/><path class="b" d="M10.9425,9.26l-1.63.003a.3034.3034,0,0,1-.2989-.274L8.9964.595A.3155.3155,0,0,1,9.3145.2887h1.5269a.3057.3057,0,0,1,.2931.2844l.0045,1.0917.0293-.003A2.1477,2.1477,0,0,1,13.318.1085a2.1485,2.1485,0,0,1,2.1264,1.5489,2.421,2.421,0,0,1,4.1516-.6522,4.47,4.47,0,0,1,.4206,2.6393l.0161,5.2991A.31.31,0,0,1,19.71,9.24l-1.6369.0029a.29.29,0,0,1-.2859-.2916l-.0146-4.4565a9.1887,9.1887,0,0,0-.05-1.57.8478.8478,0,0,0-.9614-.7209,1.0774,1.0774,0,0,0-.9745.6888,4.9061,4.9061,0,0,0-.1495,1.6061l.0132,4.4579a.3166.3166,0,0,1-.3253.2946l-1.634.0029a.2971.2971,0,0,1-.2944-.2931l-.0059-4.4564c-.0045-.9394.145-2.3155-1.0156-2.3111-1.1753.0015-1.1313,1.3438-1.124,2.314l.0087,4.4579a.31.31,0,0,1-.318.2946"/><path class="b" d="M41.17.047C43.5958.0411,44.919,2.1236,44.922,4.7716,44.9279,7.3361,43.48,9.3672,41.19,9.3731c-2.3843.0044-3.6885-2.0736-3.69-4.6689C37.4863,2.0883,38.8037.0544,41.17.047M41.19,1.7586c-1.2106.0059-1.2764,1.65-1.2794,2.6716.0059,1.03-.0059,3.2181,1.2706,3.2107,1.2721-.0015,1.3306-1.7673,1.3262-2.8459a7.615,7.615,0,0,0-.2476-2.2274,1.0245,1.0245,0,0,0-1.07-.809"/><path class="b" d="M48.08,9.1826l-1.63.0014a.2935.2935,0,0,1-.2931-.2916l-.0206-8.41A.3142.3142,0,0,1,46.4475.211L47.9627.2067a.312.312,0,0,1,.2917.2389l.0015,1.2779.0336.0013A2.2337,2.2337,0,0,1,50.5186.0264a2.1446,2.1446,0,0,1,1.9124.9849A5.3677,5.3677,0,0,1,52.86,3.6255l.0147,5.2829a.31.31,0,0,1-.3151.2625l-1.6427.0072a.3063.3063,0,0,1-.2946-.2667l-.0044-4.5547c-.0045-.92.1025-2.2655-1.0273-2.2626a1.0732,1.0732,0,0,0-.9467.6727,3.6656,3.6656,0,0,0-.2535,1.5973l.0074,4.5239a.3118.3118,0,0,1-.318.2946"/><path class="b" d="M4.82,5.2669a3.2407,3.2407,0,0,1-.3048,1.7322,1.3337,1.3337,0,0,1-1.13.75c-.6273-.0015-.9966-.4763-1.0009-1.1811.0029-1.3966,1.25-1.65,2.4327-1.6546ZM6.4744,9.25a.3471.3471,0,0,1-.3869.0455,4.205,4.205,0,0,1-.9424-1.0918A3.2355,3.2355,0,0,1,2.45,9.3965,2.3174,2.3174,0,0,1,0,6.8525,2.7777,2.7777,0,0,1,1.738,4.1781a11.3852,11.3852,0,0,1,3.0833-.5774l-.0058-.2095a2.071,2.071,0,0,0-.2036-1.1885A1.0856,1.0856,0,0,0,3.69,1.782a1.247,1.247,0,0,0-1.31.9834.3477.3477,0,0,1-.2829.3019L.5086,2.9a.2905.2905,0,0,1-.2433-.3444C.6273.6375,2.3579.047,3.9216.047A3.6722,3.6722,0,0,1,6.3791.853c.8031.74.73,1.7365.7312,2.8165l.0015,2.5427a2.2556,2.2556,0,0,0,.6213,1.5225.3032.3032,0,0,1-.0059.4353c-.3325.2814-.9232.7986-1.25,1.0917Z"/><path class="b" d="M26.2712,5.2214A3.1638,3.1638,0,0,1,25.965,6.958a1.3331,1.3331,0,0,1-1.1313.75c-.6273-.0029-.9937-.4865-.9937-1.19-.0072-1.3936,1.2487-1.6457,2.4327-1.65ZM27.933,9.203a.3361.3361,0,0,1-.39.044,3.9334,3.9334,0,0,1-.9379-1.0917,3.2474,3.2474,0,0,1-2.7008,1.1972A2.3229,2.3229,0,0,1,21.4469,6.81a2.778,2.778,0,0,1,1.738-2.68,11.7082,11.7082,0,0,1,3.0833-.5789l-.0028-.2036a2.11,2.11,0,0,0-.2023-1.1928,1.0983,1.0983,0,0,0-.916-.4206,1.2514,1.2514,0,0,0-1.32.9862.3342.3342,0,0,1-.2814.3048l-1.5827-.1714a.2884.2884,0,0,1-.2463-.34C22.0756.5892,23.8122.0015,25.3685,0a3.6858,3.6858,0,0,1,2.4678.8075c.7973.7445.7225,1.738.7254,2.8137l.0074,2.55a2.2306,2.2306,0,0,0,.6184,1.5182.3218.3218,0,0,1-.0015.4368c-.3355.28-.929.7928-1.2529,1.0887Z"/></svg>