<svg xmlns="http://www.w3.org/2000/svg" width="66.5606" height="16.3228" viewBox="0 0 66.5606 16.3228"><defs><style>.a{fill:#005ea8;}</style></defs><title>check24</title><path class="a" d="M4.1223,10.6034H4.1185a8.3771,8.3771,0,0,1-2.9674-.3443,1.7185,1.7185,0,0,1-.8419-.6909A2.5184,2.5184,0,0,1,0,8.2311,7.3253,7.3253,0,0,1,.1813,6.7363c.0274-.1282.6725-3.1407.7158-3.3a5.7681,5.7681,0,0,1,.6584-1.5782A3.4893,3.4893,0,0,1,3.5286.3432,9.8141,9.8141,0,0,1,6.5355,0h.0118A8.7451,8.7451,0,0,1,8.33.153,2.7508,2.7508,0,0,1,9.6413.7425a1.3683,1.3683,0,0,1,.42.732,2.2925,2.2925,0,0,1,.0459.4767A6.1726,6.1726,0,0,1,9.96,3.1063q-.0144.0739-.0277.1432L9.93,3.2632H7.318L7.32,3.2446s.0082-.079.0112-.1141c0-.0015.0118-.1078.0118-.26a.6188.6188,0,0,0-.3245-.544,1.6467,1.6467,0,0,0-.6041-.1574,6.2659,6.2659,0,0,0-.7169-.0309,3.999,3.999,0,0,0-1.0438.1093,1.5743,1.5743,0,0,0-.5518.2621,1.6461,1.6461,0,0,0-.5146.7214,6.68,6.68,0,0,0-.303,1.0964l-.358,1.6844A6.8027,6.8027,0,0,0,2.7294,7.32a1.29,1.29,0,0,0,.0877.5086.9079.9079,0,0,0,.5578.5A3.1113,3.1113,0,0,0,4.43,8.4649a6.8228,6.8228,0,0,0,.81-.0346,1.51,1.51,0,0,0,.9211-.3854,2.0364,2.0364,0,0,0,.5063-1.0783l.0365-.1716H9.2877l-.0008.0176c-.0009.02-.1455.6983-.2211.97a4.9681,4.9681,0,0,1-.2622.7379,3.2149,3.2149,0,0,1-1.101,1.3253,3.9,3.9,0,0,1-1.622.6562,9.8058,9.8058,0,0,1-1.6919.1012H4.3811Z"/><path class="a" d="M33.0624,10.6034h-.0038a8.3772,8.3772,0,0,1-2.9674-.3443,1.7186,1.7186,0,0,1-.8419-.6909A2.5183,2.5183,0,0,1,28.94,8.2311a7.3256,7.3256,0,0,1,.1813-1.4949c.0274-.1282.6725-3.1407.7158-3.3a5.7672,5.7672,0,0,1,.6584-1.5782A3.4892,3.4892,0,0,1,32.4687.3432,9.8142,9.8142,0,0,1,35.4755,0h.0118A8.7449,8.7449,0,0,1,37.27.153a2.7508,2.7508,0,0,1,1.3118.5894,1.3684,1.3684,0,0,1,.42.732,2.2915,2.2915,0,0,1,.0459.4767,6.1757,6.1757,0,0,1-.1472,1.1554c-.01.0491-.0189.0968-.0277.1429l-.0026.0137H36.2581l.0019-.0186s.0082-.079.0112-.1141c0-.0015.0118-.1078.0118-.26a.6188.6188,0,0,0-.3245-.544,1.6467,1.6467,0,0,0-.6041-.1574,6.266,6.266,0,0,0-.7169-.0309,3.9989,3.9989,0,0,0-1.0438.1093,1.5744,1.5744,0,0,0-.5518.2621,1.6464,1.6464,0,0,0-.5146.7214,6.6769,6.6769,0,0,0-.303,1.0964l-.3581,1.6844A6.8066,6.8066,0,0,0,31.6694,7.32a1.29,1.29,0,0,0,.0877.5086.9078.9078,0,0,0,.5578.5,3.1113,3.1113,0,0,0,1.0554.1362,6.8229,6.8229,0,0,0,.81-.0346,1.51,1.51,0,0,0,.9211-.3854,2.0361,2.0361,0,0,0,.5063-1.0783l.0365-.1716h2.5832l-.0008.0176c-.0009.02-.1456.6987-.2212.97a4.9672,4.9672,0,0,1-.2621.7379,3.2149,3.2149,0,0,1-1.1011,1.3254,3.9,3.9,0,0,1-1.622.6562,9.8061,9.8061,0,0,1-1.6919.1012h-.0076Z"/><path class="a" d="M27.4571,10.5169H19.9427l.0043-.02L22.0487.6081a.6213.6213,0,0,1,.2145-.3923.75.75,0,0,1,.4716-.1294h6.34a.4638.4638,0,0,1,.3379.1051.3147.3147,0,0,1,.0789.2233V.423A.5348.5348,0,0,1,29.4769.54L29.1492,2.083H24.24l-.4256,2.045h4.6067l-.419,1.9282H23.3956l-.5247,2.4682h5.01Z"/><path class="a" d="M40.9324,10.517h-2.505l.0043-.02L40.5266.6422a.76.76,0,0,1,.2466-.4506.5809.5809,0,0,1,.3632-.1053h1.4828a.5.5,0,0,1,.3544.11.3248.3248,0,0,1,.0914.2388.5094.5094,0,0,1-.009.0923Z"/><path class="a" d="M47.8294,10.5169H44.6729l-.0044-.01-2.3376-5.41.0074-.0081L46.3818.6983A2.779,2.779,0,0,1,46.91.2058a.8063.8063,0,0,1,.4676-.1194h2.0377a.3.3,0,0,1,.1885.0583.1668.1668,0,0,1,.0427.05.1268.1268,0,0,1,.0126.0424h.004L49.66.27a.375.375,0,0,1-.11.2064L45.1858,5.1686Z"/><path class="a" d="M16.1506,10.517H16.13l.0043-.02.8927-4.212H12.8962l-.9,4.2323H9.4918l.0043-.02c.0847-.4,2.0755-9.7938,2.0877-9.8462a.6564.6564,0,0,1,.2949-.4733.9344.9344,0,0,1,.4679-.0908h1.3546a.5281.5281,0,0,1,.2719.0931.3617.3617,0,0,1,.1083.1157.3419.3419,0,0,1,.0426.1728.5459.5459,0,0,1-.0083.0911c-.01.06-.6981,3.27-.7661,3.5871h4.13c.3361-1.5852.7363-3.4725.7417-3.4957a.6564.6564,0,0,1,.2949-.4734.9345.9345,0,0,1,.4679-.0907h1.3546a.5281.5281,0,0,1,.2719.0931.3617.3617,0,0,1,.1083.1157.3419.3419,0,0,1,.0426.1728.5458.5458,0,0,1-.0083.0911c-.0106.0618-2.03,9.5411-2.1164,9.9446l-.0028.0134Z"/><path class="a" d="M55.218,2.1256a.6258.6258,0,0,1,.4288.3061h0a.8124.8124,0,0,1,.0777.3787h0a2.6647,2.6647,0,0,1-.0687.5383h0a3.4766,3.4766,0,0,1-.2019.691h0a1.2473,1.2473,0,0,1-.3762.49h0a4.7475,4.7475,0,0,1-1.8268.647h0a12.7531,12.7531,0,0,0-2.73.8136h0a2.4362,2.4362,0,0,0-1.2322,1.2418h0a7.0152,7.0152,0,0,0-.4407,1.4676h0L48.4942,10.5H56.62l.3793-1.825H51.3449a4.3475,4.3475,0,0,1,.16-.599h0a1.1542,1.1542,0,0,1,.371-.48h0a1.7444,1.7444,0,0,1,.58-.2566h0c.4639-.1288,1.1047-.216,2.048-.4568h0a5.4238,5.4238,0,0,0,2.5006-1.1628h0a4.5155,4.5155,0,0,0,1.1406-2.455h0a6.0408,6.0408,0,0,0,.1438-1.1844h0a2.1326,2.1326,0,0,0-.25-1.0945h0A1.5438,1.5438,0,0,0,57.3441.371h0A6.2291,6.2291,0,0,0,54.8054.0144h0a6.07,6.07,0,0,0-3.1717.6184h0a3.9791,3.9791,0,0,0-1.6293,2.7722h0l-.0853.4014H52.39l.0944-.4434a2.3368,2.3368,0,0,1,.3463-.9207h0a.988.988,0,0,1,.71-.3459h0a6.3669,6.3669,0,0,1,.7894-.0338h0q.0751-.001.146-.001h0a3.0775,3.0775,0,0,1,.7423.0642Z"/><path class="a" d="M62.0337,1.1215c-.2871.2983-2.6986,2.8213-3.6858,3.8557a3.1564,3.1564,0,0,0-.5019.6379,3.862,3.862,0,0,0-.2251.8115c-.1054.582-.1837,1.1136-.2322,1.3319a.7129.7129,0,0,0-.0181.1557.4821.4821,0,0,0,.176.3844.5662.5662,0,0,0,.3671.1237H62.7l-.4407,2.0809,2.52-.2379.3918-1.843h.9L66.4624,6.58h-.9s.8993-4.2054.9276-4.3614c.3094-1.702-.397-2.2-1.9884-2.2A2.9681,2.9681,0,0,0,62.0337,1.1215ZM63.0916,6.58H59.4751l4.3023-4.4582h.2619Z"/><path class="a" d="M56.3939,16.3228h0a8.5773,8.5773,0,0,1-4.517-1.255,7.9644,7.9644,0,0,1-2.4263-2.294l-.4754,1.2247a.261.261,0,0,1-.504-.0905l-.0256-2.3992v-.0019a.2567.2567,0,0,1,.0761-.1786.2607.2607,0,0,1,.1844-.0759l2.4418-.001H51.15a.2618.2618,0,0,1,.248.21.2562.2562,0,0,1,.0046.0489.26.26,0,0,1-.1662.241l-1.1916.4623a9.4176,9.4176,0,0,0,6.2194,2.4282c.2582,0,.5208-.0112.78-.0332a12.5179,12.5179,0,0,0,3.72-.9056,9.5232,9.5232,0,0,0,2.5962-1.568l-1.23-.363a.2594.2594,0,0,1-.1872-.2482l.0012-.0251a.26.26,0,0,1,.236-.2325l2.3848-.2176.0264-.0014a.2638.2638,0,0,1,.1665.06.2568.2568,0,0,1,.0931.1779c.1982,2.3438.1982,2.3445.1982,2.353a.2594.2594,0,0,1-.1924.25.2716.2716,0,0,1-.0664.0091.2639.2639,0,0,1-.2357-.1442L63.98,12.6486a8.8808,8.8808,0,0,1-2.5267,2.2722,9.6617,9.6617,0,0,1-4.2426,1.3674l-.1535.013V16.3C56.8344,16.3151,56.6119,16.3228,56.3939,16.3228Z"/></svg>