<?xml version="1.0" encoding="UTF-8"?><svg id="uuid-9069597a-7dcf-44b3-b3bd-1abf4df893ec" xmlns="http://www.w3.org/2000/svg" viewBox="0 0 238 26"><path fill="currentColor" d="m150.37,24.12c-5.31,0-10-3.48-14.18-6.57-1.22-.91-2.38-1.76-3.47-2.47-6.23-4.05-10.79-5.31-14.35-3.96-1.41.53-3.3,2.53-4.96,4.29-2.04,2.15-4.15,4.38-6.55,5.46-5.42,2.45-12.08,2.26-17.8-.51-1.94-.94-3.58-1.89-5.15-2.8-2.41-1.4-4.49-2.6-7.27-3.58-4.23-1.48-8.84.42-11.97,2.28-1.09.65-1.81,1.18-2.56,1.74-.98.73-2,1.48-3.69,2.41-4.76,2.6-10.25,3.34-15.87,2.14-2.86-.61-6.3-1.92-9.63-3.19-2.62-1-5.1-1.95-7.08-2.48-7.3-1.95-12.95-.22-20.26,3.42-1.48.74-3.28.14-4.02-1.35s-.14-3.28,1.35-4.02c8.15-4.06,15.43-6.27,24.49-3.85,2.28.61,4.9,1.61,7.67,2.67,3.11,1.19,6.33,2.42,8.74,2.93,4.26.91,8.21.39,11.75-1.54,1.33-.72,2.1-1.29,2.99-1.96.81-.6,1.72-1.28,3.08-2.08,6.05-3.59,11.93-4.56,17.01-2.78,3.32,1.16,5.86,2.63,8.31,4.05,1.48.86,3.01,1.75,4.75,2.59,4.14,2,8.9,2.17,12.72.44,1.33-.6,3.02-2.39,4.66-4.12,2.21-2.33,4.5-4.75,7.19-5.77,7.24-2.75,14.74,1.27,19.76,4.54,1.25.81,2.53,1.76,3.77,2.68,3.8,2.81,7.74,5.72,11.24,5.36,3.46-.36,6.88-3.06,10.18-5.67.6-.47,1.19-.94,1.77-1.39,5.32-4.08,9.09-6.04,14.92-7.8,7.03-2.11,14.04-1.75,19.73,1.03,2.83,1.38,5.21,3.28,7.51,5.12,1.14.91,2.21,1.76,3.32,2.55,3.15,2.23,8,4.78,13.2,4.28,4.45-.42,8.42-3.53,9.22-7.23.35-1.62,1.95-2.65,3.57-2.29,1.62.35,2.65,1.95,2.29,3.57-1.36,6.23-7.46,11.25-14.52,11.92-7.05.67-13.27-2.54-17.24-5.36-1.25-.89-2.45-1.84-3.6-2.76-2.14-1.71-4.16-3.32-6.4-4.41-4.33-2.11-9.8-2.35-15.38-.68-5.11,1.54-8.27,3.19-13,6.82-.56.43-1.13.88-1.71,1.33-3.79,2.99-8.08,6.38-13.27,6.92-.42.04-.84.07-1.25.07Z"/></svg>