<?xml version="1.0" encoding="UTF-8"?><svg id="uuid-c65a9c2c-ac80-4a7c-8060-e294950c207d" xmlns="http://www.w3.org/2000/svg" viewBox="0 0 610 610"><path d="m305,0c84.22,0,160.54,34.14,215.78,89.38,55.08,55.23,89.22,131.41,89.22,215.62s-34.14,160.54-89.22,215.78c-55.23,55.08-131.56,89.22-215.78,89.22s-160.39-34.14-215.62-89.22C34.14,465.54,0,389.22,0,305S34.14,144.61,89.38,89.38C144.61,34.14,220.78,0,305,0h0Z" style="fill:#adb5bd;"/><path d="m304.92,105.46c62.21,0,112.44,50.23,112.44,112.44s-50.23,112.29-112.44,112.29-112.29-50.23-112.29-112.29,50.23-112.44,112.29-112.44h0Z" style="fill:#fff; fill-rule:evenodd;"/><path d="m305,365c-104.66,0-189.5,66.71-189.5,149,0,6.2.49,12.3,1.42,18.3,51.08,42.25,116.58,67.7,188.08,67.7s136.98-25.39,188.06-67.56c.95-6.04,1.44-12.19,1.44-18.44,0-82.29-84.84-149-189.5-149Z" style="fill:#fff;"/></svg>