<?xml version="1.0" encoding="UTF-8"?><svg id="uuid-67859710-3467-4635-a4b2-ab100e75c1c0" xmlns="http://www.w3.org/2000/svg" viewBox="0 0 64.8 11"><path fill="currentColor" d="m29.73,10.65c-2.13,0-3.78-1.46-5.37-2.88-.36-.32-.72-.64-1.09-.95-2.52-2.08-4.37-2.73-5.8-2.04-.8.39-1.86,1.17-2.88,1.93-.89.66-1.73,1.29-2.47,1.71-2.21,1.26-5.4,1.39-7.75.3l-.22-.1c-.85-.39-1.73-.79-3.53-2.67-.38-.4-.37-1.03.03-1.41.4-.38,1.03-.37,1.41.03,1.53,1.6,2.17,1.89,2.91,2.23l.23.11c1.77.82,4.26.73,5.91-.22.64-.37,1.43-.96,2.27-1.58,1.1-.82,2.23-1.66,3.2-2.13,2.92-1.41,5.93.64,7.94,2.3.39.32.77.66,1.15.99,1.54,1.37,2.89,2.55,4.41,2.35,1.41-.19,2.86-1.65,4.15-2.93.24-.24.48-.48.71-.71,2.12-2.06,3.63-3.06,5.96-3.95,2.84-1.08,5.66-.9,7.96.52,1.12.69,2.07,1.66,2.99,2.59.44.45.89.9,1.35,1.32,1.28,1.15,3.24,2.48,5.34,2.22,1.63-.2,3.5-1.66,3.92-4.07.09-.54.6-.91,1.15-.82.54.09.91.61.82,1.15-.51,2.98-2.89,5.38-5.65,5.72-2.83.34-5.33-1.29-6.92-2.71-.49-.44-.96-.92-1.44-1.4-.87-.89-1.7-1.72-2.62-2.29-1.75-1.08-3.95-1.21-6.19-.35-2.07.79-3.36,1.65-5.28,3.52-.23.22-.46.45-.69.69-1.51,1.51-3.22,3.23-5.3,3.5-.21.03-.43.04-.63.04Z"/></svg>