<svg width="34" height="24" viewBox="0 0 34 24" fill="none" xmlns="http://www.w3.org/2000/svg">
    <rect x="0.5" y="0.5" width="33" height="23" rx="3.5" fill="white" stroke="#D1D9E0"/>
    <path fill-rule="evenodd" clip-rule="evenodd" d="M26.8933 13.9481H27.7319H27.7326C27.8203 13.9499 27.8932 13.8774 27.8965 13.7852V11.3417C27.8965 11.0348 27.9121 10.7577 28.0298 10.4805C28.1105 10.2697 28.3009 10.1277 28.5168 10.1172C29.0533 10.1172 29.0481 10.7352 29.0441 11.2206C29.0437 11.2616 29.0434 11.3016 29.0434 11.3402V13.8056C29.0538 13.8847 29.1165 13.9447 29.1923 13.9481H30.0384C30.1186 13.9499 30.1877 13.889 30.2 13.8056V10.9487C30.2 10.5095 30.2 9.89802 29.9803 9.53474C29.7427 9.14328 29.3748 9 28.998 9C28.417 9 28.0871 9.29595 27.8518 9.91681H27.8354V9.22235C27.8184 9.14975 27.7575 9.09791 27.6864 9.09552H26.9059C26.8235 9.09338 26.7532 9.15806 26.7443 9.24427V13.7852C26.7454 13.8723 26.8106 13.9436 26.8933 13.9481ZM26.1039 11.5664C26.1039 10.1337 25.4284 9.00626 24.1794 9.00626C22.9625 9.00626 22.287 10.1149 22.287 11.5187C22.287 12.9225 22.9543 14.0499 24.1794 14.0499C25.3591 14.0499 26.1039 12.9514 26.1039 11.5664ZM23.5277 11.3754C23.5277 10.8211 23.5672 9.93325 24.1876 9.93325C24.4542 9.93325 24.6426 10.0593 24.7372 10.3725C24.8474 10.735 24.8631 11.1938 24.8631 11.5758C24.8631 12.1583 24.8385 13.1135 24.1794 13.1135C23.5275 13.1135 23.5276 11.9554 23.5277 11.3938L23.5277 11.3754ZM7.79103 13.9575H8.63186H8.63261C8.67481 13.9585 8.71567 13.9419 8.74614 13.9111C8.77661 13.8804 8.79418 13.8382 8.79497 13.7938V11.3879L8.79495 11.3503C8.7946 10.8271 8.79414 10.1352 9.37588 10.1352C9.91367 10.1352 9.90536 10.7431 9.89864 11.2341V11.2341V11.2341V11.2341V11.2341C9.89791 11.287 9.89721 11.3386 9.89721 11.3879V13.7946C9.89863 13.8815 9.9636 13.9526 10.0462 13.9575H10.8892C10.9313 13.9583 10.972 13.9415 11.0023 13.9109C11.0326 13.8802 11.0501 13.8381 11.0508 13.7938V11.3879L11.0508 11.3307V11.3307C11.0503 11.0758 11.0496 10.7318 11.1298 10.5181C11.2116 10.2996 11.4093 10.1534 11.6325 10.1462C11.876 10.1462 12.0645 10.2323 12.127 10.5377C12.1589 10.6846 12.1548 11.0253 12.1521 11.2512V11.2512L12.1521 11.2513C12.1514 11.3046 12.1508 11.3515 12.1508 11.3879V13.7946C12.1519 13.8817 12.2171 13.9529 12.2998 13.9575H13.1406C13.1828 13.9585 13.2237 13.9419 13.2542 13.9111C13.2846 13.8804 13.3022 13.8382 13.303 13.7938V10.9291C13.303 10.8593 13.3041 10.788 13.3053 10.7159V10.7159V10.7158V10.7158V10.7157C13.3122 10.288 13.3195 9.83268 13.0907 9.50576C12.8134 9.13493 12.3674 8.95015 11.924 9.02235C11.4806 9.09455 11.1087 9.41252 10.951 9.85416C10.715 9.28028 10.3776 9.0133 9.85922 9.0133C9.34087 9.0133 8.95583 9.28028 8.75177 9.85416H8.73613V9.26149C8.7317 9.17701 8.66753 9.10956 8.58718 9.1049H7.80295C7.71635 9.104 7.64491 9.17597 7.64208 9.26697V13.8079C7.64971 13.8897 7.71303 13.9532 7.79103 13.9575ZM6.32758 13.992C6.27219 14.0424 6.1926 14.0509 6.12873 14.0131C5.89043 13.8047 5.81859 13.692 5.70826 13.519L5.70826 13.519L5.70825 13.519C5.68928 13.4892 5.66916 13.4577 5.64687 13.4235C5.18437 13.9184 4.85743 14.0663 4.25938 14.0663C3.55112 14.0663 3 13.6068 3 12.6876C3 11.9697 3.37238 11.4819 3.89371 11.2423C4.27867 11.0647 4.7923 11.0096 5.23636 10.962C5.31893 10.9531 5.39909 10.9445 5.47557 10.9354V10.8211C5.47557 10.7993 5.47574 10.777 5.47591 10.7545C5.47738 10.5596 5.47902 10.3426 5.37354 10.1791C5.27077 10.0163 5.07564 9.9497 4.90137 9.9497C4.58038 9.9497 4.29439 10.1227 4.22438 10.4805C4.21551 10.564 4.15442 10.6308 4.07543 10.6434L3.26662 10.5502C3.22626 10.5441 3.19004 10.5209 3.16639 10.486C3.14275 10.4511 3.13375 10.4075 3.1415 10.3654C3.32844 9.32571 4.22215 9.01176 5.02276 9.01176C5.43238 9.01176 5.96711 9.12606 6.28885 9.45176C6.66654 9.8235 6.6642 10.3101 6.66165 10.842C6.66144 10.8859 6.66123 10.9301 6.66123 10.9746V12.3517C6.66123 12.7226 6.79213 12.9071 6.93002 13.1014C6.9464 13.1245 6.96287 13.1478 6.97924 13.1714C7.03286 13.2497 7.04478 13.3476 6.97924 13.4063C6.8072 13.5574 6.50185 13.8361 6.33428 13.9935L6.32758 13.992ZM5.47929 11.8358L5.47931 11.8786C5.47961 12.2043 5.47986 12.4804 5.32214 12.7753C5.18808 13.0242 4.97583 13.1777 4.739 13.1777C4.41652 13.1777 4.22809 12.9193 4.22809 12.5357C4.22809 11.7825 4.87082 11.6455 5.47929 11.6455V11.8358ZM17.9568 13.0982C17.9732 13.1213 17.9897 13.1446 18.0061 13.1683C18.0627 13.2497 18.0747 13.3452 18.0024 13.3993C17.8304 13.5504 17.525 13.8299 17.3575 13.9865C17.3017 14.0363 17.2224 14.0444 17.1586 14.0068C16.9193 13.7975 16.8484 13.6865 16.7365 13.5112L16.7364 13.5111C16.7177 13.4818 16.6979 13.4508 16.676 13.4173C16.2143 13.9121 15.8851 14.0601 15.2893 14.0601C14.581 14.0601 14.0299 13.6005 14.0299 12.6821C14.0299 11.9634 14.4 11.4756 14.9273 11.236C15.3131 11.0578 15.8296 11.0029 16.275 10.9556C16.3558 10.947 16.4343 10.9387 16.5092 10.9299V10.818C16.5092 10.7962 16.5093 10.7741 16.5095 10.7517C16.511 10.5567 16.5126 10.3397 16.4064 10.1767C16.3066 10.0139 16.1078 9.94656 15.9342 9.94656C15.6132 9.94656 15.3287 10.1196 15.258 10.4774C15.2489 10.5607 15.1879 10.6274 15.109 10.6402L14.2935 10.5478C14.2529 10.542 14.2163 10.5188 14.1925 10.4836C14.1687 10.4485 14.1597 10.4046 14.1677 10.3623C14.3553 9.32179 15.249 9.00862 16.0497 9.00862C16.4585 9.00862 16.9933 9.12292 17.3157 9.44862C17.6942 9.81843 17.6916 10.3013 17.6886 10.8304C17.6884 10.8771 17.6881 10.9241 17.6881 10.9714V12.3494C17.6881 12.7195 17.819 12.9039 17.9568 13.0982ZM15.7704 13.173C16.0065 13.173 16.2195 13.0195 16.3528 12.7713C16.511 12.4749 16.5109 12.1974 16.5107 11.8677L16.5107 11.8326V11.6416C15.9022 11.6416 15.2595 11.7778 15.2595 12.5318C15.2595 12.9146 15.4479 13.173 15.7704 13.173ZM18.7181 9.25131V9.898C18.7176 9.94237 18.7345 9.98498 18.7648 10.0159C18.795 10.0468 18.836 10.0634 18.8782 10.0616H20.326L18.666 12.567C18.5902 12.7014 18.5544 12.8565 18.5632 13.0125V13.6741C18.5632 13.7696 18.6637 13.8784 18.7598 13.8244C19.6754 13.3253 20.7642 13.3233 21.6815 13.8189C21.7865 13.8761 21.8855 13.7657 21.8855 13.6701V12.9749C21.8827 12.8686 21.8259 12.7721 21.7366 12.722C21.2532 12.4363 20.6909 12.3525 20.1592 12.3658L21.5921 10.2159C21.7254 10.0233 21.7999 9.90114 21.7999 9.80797V9.25131C21.8003 9.20709 21.7835 9.1646 21.7535 9.1337C21.7234 9.10281 21.6826 9.08618 21.6405 9.08768H18.8752C18.8331 9.08519 18.792 9.10157 18.7621 9.13277C18.7321 9.16396 18.7161 9.20703 18.7181 9.25131Z" fill="black"/>
    <path fill-rule="evenodd" clip-rule="evenodd" d="M20.1011 16.8449C20.2925 16.3446 20.7185 15.2234 20.516 14.9518H20.5175C20.3158 14.6795 19.1837 14.8224 18.6745 14.8867L18.6734 14.8868C18.5185 14.9064 18.4947 14.7647 18.634 14.6621C19.5381 13.9943 21.0194 14.1853 21.1915 14.4108C21.3635 14.6363 21.1445 16.1974 20.2977 16.9428C20.1674 17.0571 20.043 16.996 20.1011 16.8449ZM14.0172 17.6169C15.9863 17.6169 18.2794 16.9631 19.8591 15.7378V15.7402C20.1205 15.5335 19.8963 15.2297 19.6297 15.3487C17.9055 16.1133 16.0546 16.5124 14.1833 16.5231C11.5871 16.5231 9.07573 15.7746 7.04403 14.5321C6.86604 14.4233 6.73347 14.6151 6.88242 14.7553C8.83838 16.6105 11.3828 17.631 14.0172 17.6169Z" fill="#FF9900"/>
</svg>
