<svg width="40" height="40" viewBox="0 0 40 40" fill="none" xmlns="http://www.w3.org/2000/svg">
    <rect width="40" height="40" rx="4" fill="#333E48"/>
    <path fill-rule="evenodd" clip-rule="evenodd" d="M31.3095 27.2685C28.2438 29.531 23.7998 30.7339 19.9725 30.7339C14.6087 30.7339 9.7787 28.7511 6.12398 25.451C5.83707 25.1918 6.09267 24.8379 6.43782 25.0389C10.3809 27.3333 15.2575 28.7154 20.2943 28.7154C23.692 28.7154 27.4268 28.0106 30.8638 26.5527C31.3816 26.3321 31.8163 26.8935 31.3095 27.2685ZM32.5845 25.8122C32.977 26.3146 32.1483 28.3834 31.7784 29.3074C31.6663 29.5871 31.9066 29.6999 32.16 29.488C33.8042 28.1125 34.2295 25.2296 33.8931 24.8131C33.5588 24.4002 30.684 24.0449 28.9291 25.277C28.6589 25.4663 28.7055 25.7284 29.0048 25.692C29.9929 25.5741 32.1928 25.3097 32.5845 25.8122Z" fill="#FF9900"/>
    <path fill-rule="evenodd" clip-rule="evenodd" d="M28.1463 22.1079L31.3371 13.9866C31.4041 13.822 31.4384 13.7062 31.4384 13.6385C31.4384 13.5227 31.3706 13.4645 31.2352 13.4645H30.4233C30.2682 13.4645 30.1626 13.4892 30.1036 13.5373C30.0453 13.5861 29.9878 13.6924 29.9296 13.857L27.9715 19.4836L25.9413 13.857C25.8831 13.6924 25.8256 13.5861 25.7673 13.5373C25.709 13.4892 25.6027 13.4645 25.4476 13.4645H24.5775C24.442 13.4645 24.3743 13.5227 24.3743 13.6385C24.3743 13.7062 24.4078 13.822 24.4755 13.9866L27.2746 20.8897L26.9994 21.6295C26.8348 22.0941 26.6513 22.4131 26.4481 22.5871C26.245 22.7611 25.9595 22.8478 25.5925 22.8478C25.428 22.8478 25.2976 22.8376 25.2015 22.8186C25.1047 22.7997 25.0318 22.7895 24.9838 22.7895C24.8389 22.7895 24.7661 22.8813 24.7661 23.0648V23.442C24.7661 23.5774 24.7901 23.6764 24.8389 23.7391C24.8869 23.8017 24.9641 23.8483 25.0712 23.8767C25.3122 23.9437 25.5882 23.9786 25.8976 23.9786C26.4489 23.9786 26.896 23.8337 27.2389 23.5432C27.5834 23.2541 27.8856 22.775 28.1463 22.1079Z" fill="white"/>
    <path fill-rule="evenodd" clip-rule="evenodd" d="M16.2348 15.4604C16.0942 14.9915 15.894 14.5924 15.6326 14.264C15.3719 13.9356 15.0529 13.6837 14.6757 13.5096C14.2993 13.3356 13.8784 13.2489 13.4138 13.2489C12.9791 13.2489 12.5531 13.3305 12.138 13.4951C11.7222 13.6596 11.3305 13.9014 10.9627 14.2203L10.8907 13.7557C10.8615 13.5628 10.7501 13.4659 10.5564 13.4659H9.91854C9.72557 13.4659 9.62872 13.5628 9.62872 13.7557V23.5162C9.62872 23.7099 9.72557 23.8061 9.91854 23.8061H10.7741C10.9678 23.8061 11.064 23.7092 11.064 23.5162V20.1229C11.6924 20.6931 12.4417 20.9785 13.3118 20.9785C13.7852 20.9785 14.2155 20.8839 14.6022 20.696C14.9888 20.5074 15.3173 20.2438 15.5881 19.9052C15.859 19.5673 16.0695 19.1566 16.2187 18.6724C16.3687 18.1889 16.4438 17.6471 16.4438 17.0478C16.4452 16.4587 16.3746 15.9294 16.2348 15.4604ZM12.9791 19.8178C12.3208 19.8178 11.6829 19.5863 11.0647 19.1217V15.0759C11.6734 14.631 12.3215 14.4089 13.0082 14.4089C14.3233 14.4089 14.9808 15.3133 14.9808 17.1207C14.9801 18.9193 14.3131 19.8178 12.9791 19.8178Z" fill="white"/>
    <path fill-rule="evenodd" clip-rule="evenodd" d="M22.7745 13.8184C22.339 13.4419 21.6626 13.2533 20.7443 13.2533C20.2899 13.2533 19.8356 13.2948 19.3812 13.3764C18.9261 13.4586 18.5445 13.5671 18.235 13.7026C18.1192 13.7514 18.0413 13.8016 18.0027 13.8548C17.9641 13.9079 17.9445 14.0026 17.9445 14.1373V14.5283C17.9445 14.7024 18.0071 14.7898 18.1331 14.7898C18.1717 14.7898 18.2132 14.7825 18.2569 14.7679C18.3006 14.7534 18.337 14.7417 18.3654 14.7315C19.1103 14.5094 19.8203 14.398 20.4975 14.398C21.0771 14.398 21.4834 14.5043 21.7157 14.7177C21.948 14.9303 22.0638 15.2973 22.0638 15.8194V16.7762C21.3873 16.6117 20.7778 16.5301 20.2361 16.5301C19.3855 16.5301 18.7091 16.7405 18.2059 17.1607C17.7035 17.5809 17.4515 18.1445 17.4515 18.8501C17.4515 19.5084 17.6547 20.0319 18.061 20.4237C18.4666 20.8154 19.0178 21.0106 19.714 21.0106C20.1297 21.0106 20.5477 20.9283 20.9686 20.7645C21.3895 20.6006 21.7732 20.3676 22.1213 20.0683L22.1941 20.5467C22.2233 20.7302 22.3296 20.822 22.5138 20.822H23.1371C23.3301 20.822 23.4277 20.7251 23.4277 20.5322V15.5733C23.4269 14.7803 23.2092 14.1956 22.7745 13.8184ZM22.0638 19.185C21.7448 19.4268 21.4113 19.6103 21.0633 19.7363C20.7152 19.8622 20.3817 19.9249 20.0628 19.9249C19.6856 19.9249 19.3957 19.8258 19.1926 19.6278C18.9894 19.4297 18.8882 19.1472 18.8882 18.7794C18.8882 17.9384 19.4343 17.5175 20.5266 17.5175C20.7778 17.5175 21.0363 17.535 21.3021 17.5685C21.5679 17.6027 21.822 17.6486 22.0638 17.7061V19.185Z" fill="white"/>
</svg>
