<svg xmlns="http://www.w3.org/2000/svg" height="44" width="70"><g fill-rule="evenodd" fill="none"><path fill="#F90" d="M63.138 35.018c-7.635 5.635-18.703 8.63-28.234 8.63-13.358 0-25.387-4.938-34.489-13.156-.714-.646-.078-1.527.782-1.027 9.82 5.715 21.965 9.157 34.508 9.157 8.462 0 17.763-1.756 26.323-5.387 1.29-.549 2.372.85 1.11 1.783m3.175-3.627c.978 1.251-1.086 6.404-2.007 8.705-.28.696.319.977.95.45 4.095-3.426 5.154-10.606 4.316-11.643-.832-1.028-7.992-1.913-12.362 1.155-.673.472-.557 1.125.188 1.034 2.461-.294 7.94-.952 8.915.3"/><g fill="#232F3E"><path d="M55.26 22.166L63.207 1.94c.167-.41.252-.698.252-.866 0-.289-.169-.434-.506-.434H60.93c-.386 0-.65.062-.796.182-.145.121-.289.386-.434.796L54.825 15.63 49.769 1.618c-.145-.41-.288-.675-.434-.796-.145-.12-.41-.182-.796-.182h-2.167c-.337 0-.506.145-.506.434 0 .168.084.457.252.866l6.971 17.192-.685 1.843c-.41 1.157-.867 1.95-1.373 2.384-.506.434-1.217.65-2.13.65a5.25 5.25 0 01-.975-.073 3.165 3.165 0 00-.542-.073c-.36 0-.542.229-.542.686v.94c0 .337.06.583.181.74.12.155.312.271.579.342.6.167 1.287.254 2.058.254 1.373 0 2.486-.361 3.34-1.085.858-.72 1.61-1.913 2.26-3.574M25.595 5.61c-.35-1.167-.848-2.16-1.5-2.979A6.464 6.464 0 0021.714.753c-.938-.434-1.986-.65-3.143-.65a8.554 8.554 0 00-3.177.613c-1.036.41-2.011 1.012-2.927 1.807l-.18-1.157c-.072-.481-.35-.722-.832-.722H9.865c-.48 0-.721.241-.721.722v24.307c0 .483.24.722.721.722h2.131c.482 0 .722-.241.722-.722v-8.45c1.565 1.42 3.431 2.13 5.598 2.13 1.179 0 2.25-.235 3.214-.703a7.088 7.088 0 002.455-1.97c.675-.841 1.199-1.864 1.57-3.07.374-1.204.56-2.553.56-4.046.004-1.467-.171-2.785-.52-3.953zm-8.108 10.853c-1.64 0-3.228-.577-4.767-1.734V4.653c1.516-1.108 3.13-1.66 4.84-1.66 3.275 0 4.913 2.252 4.913 6.753-.002 4.479-1.663 6.717-4.986 6.717zM41.882 1.522C40.798.584 39.113.114 36.826.114c-1.131 0-2.263.104-3.395.307-1.133.205-2.083.475-2.854.812-.288.122-.482.247-.579.38-.096.132-.145.367-.145.703v.974c0 .433.156.65.47.65a.98.98 0 00.308-.054c.11-.036.2-.065.27-.09 1.856-.554 3.624-.831 5.31-.831 1.444 0 2.456.265 3.034.796.579.53.867 1.444.867 2.744v2.383c-1.685-.41-3.202-.613-4.552-.613-2.118 0-3.802.524-5.056 1.57-1.25 1.047-1.878 2.45-1.878 4.208 0 1.639.506 2.943 1.518 3.919 1.01.975 2.382 1.461 4.116 1.461 1.036 0 2.077-.205 3.125-.613a9.873 9.873 0 002.87-1.733l.182 1.191c.072.457.337.685.796.685h1.552c.48 0 .724-.24.724-.721V5.892c-.002-1.975-.544-3.431-1.627-4.37zm-1.77 13.365a9.432 9.432 0 01-2.492 1.373c-.866.313-1.697.47-2.491.47-.94 0-1.661-.247-2.167-.74-.506-.494-.758-1.198-.758-2.113 0-2.095 1.36-3.143 4.08-3.143.626 0 1.27.043 1.931.127.662.085 1.295.2 1.897.343v3.683z"/></g></g></svg>