<svg xmlns="http://www.w3.org/2000/svg" width="57.6505" height="13.7191" viewBox="0 0 57.6505 13.7191"><defs><style>.a{fill:#102788;}.b{fill:#f90;}.c{fill:#bf0000;}.d{fill:#fff;}</style></defs><title>priceminister</title><path class="a" d="M19.5633,12.2458a1.2406,1.2406,0,0,1-1.3042-1.111h3.7918v-.0725a2.3432,2.3432,0,0,0,.0242-.4106,3.0937,3.0937,0,0,0-.3623-1.4733,2.801,2.801,0,0,0-.99-1.0627,2.6726,2.6726,0,0,0-3.3571.483,2.9981,2.9981,0,0,0-.7729,2.1253,3.1279,3.1279,0,0,0,.2174,1.1834,2.7415,2.7415,0,0,0,.6038.9419,2.5309,2.5309,0,0,0,.9419.6038,3.2184,3.2184,0,0,0,1.1834.2174,2.7108,2.7108,0,0,0,.9178-.1449,2.5655,2.5655,0,0,0,.797-.4347,4.0152,4.0152,0,0,0,.7-.7245l.0242-.0725-1.28-.7245-.0242.0483a1.524,1.524,0,0,1-1.111.6279m.8212-2.391H18.2833a1.4291,1.4291,0,0,1,.3864-.6762,1.0524,1.0524,0,0,1,1.7148.6762"/><path class="a" d="M14.2258,7.7294a2.7138,2.7138,0,0,0-1.4249.4106,2.7489,2.7489,0,0,0-1.0144,1.0868,3.12,3.12,0,0,0-.3623,1.4974,3.1893,3.1893,0,0,0,.3623,1.4974,2.7489,2.7489,0,0,0,1.0144,1.0868,2.6517,2.6517,0,0,0,1.4249.4106,2.7716,2.7716,0,0,0,.8936-.1449,2.1192,2.1192,0,0,0,.7729-.4589,2.6173,2.6173,0,0,0,.6279-.7245l.0242-.0725-1.28-.7487-.0242.0483a1.2285,1.2285,0,0,1-1.0385.6279,1.1548,1.1548,0,0,1-.9178-.4347,1.6544,1.6544,0,0,1,0-2.1253,1.19,1.19,0,0,1,.9178-.4347A1.3258,1.3258,0,0,1,15.24,9.879l.0242.0483,1.28-.7729L16.52,9.082a2.5519,2.5519,0,0,0-2.2944-1.3525"/><polygon class="a" points="9.613 13.502 11.086 13.502 11.086 7.85 9.613 7.85 9.613 13.502"/><path class="a" d="M10.3615,5.9664a.797.797,0,1,1-.797.797.82.82,0,0,1,.797-.797"/><path class="a" d="M6.1591,13.5017H7.6807V10.41a1.3008,1.3008,0,0,1,.2657-.7729,1.3646,1.3646,0,0,1,.5072-.4106,2.0175,2.0175,0,0,1,.7487-.1691h.0725V7.7053H9.2022a2.5857,2.5857,0,0,0-1.7148.58L7.3426,7.826H6.1591Z"/><path class="a" d="M1.7635,13.5017H.2661V6.4253h3.019a2.5537,2.5537,0,0,1,1.8355.7A2.2806,2.2806,0,0,1,5.8452,8.84a2.2806,2.2806,0,0,1-.7245,1.7148,2.5537,2.5537,0,0,1-1.8355.7H1.7394v2.2461ZM3.2126,7.7536H1.7635V9.9031H3.2126a.9685.9685,0,0,0,.7487-.314,1.02,1.02,0,0,0,.314-.7729.9685.9685,0,0,0-.314-.7487A1.0182,1.0182,0,0,0,3.2126,7.7536Z"/><path class="b" d="M54.5349,13.5017h1.5216V10.41a1.3008,1.3008,0,0,1,.2657-.7729,1.3646,1.3646,0,0,1,.5072-.4106,2.0175,2.0175,0,0,1,.7487-.1691H57.65V7.7053H57.578a2.5857,2.5857,0,0,0-1.7148.58l-.1449-.4589H54.5349Z"/><path class="b" d="M51.6609,12.2458a1.2406,1.2406,0,0,1-1.3042-1.111h3.7918v-.0725a2.3433,2.3433,0,0,0,.0242-.4106A3.0937,3.0937,0,0,0,53.81,9.1785a2.801,2.801,0,0,0-.99-1.0627,2.6726,2.6726,0,0,0-3.3571.483,2.9981,2.9981,0,0,0-.7729,2.1253,3.1279,3.1279,0,0,0,.2174,1.1834,2.7415,2.7415,0,0,0,.6038.9419,2.35,2.35,0,0,0,.9419.6038,3.2184,3.2184,0,0,0,1.1834.2174,2.7108,2.7108,0,0,0,.9178-.1449,2.5655,2.5655,0,0,0,.797-.4347,4.0152,4.0152,0,0,0,.7-.7245l.0242-.0725-1.28-.7245-.0242.0483a1.524,1.524,0,0,1-1.111.6279m.8212-2.391H50.3808a1.4292,1.4292,0,0,1,.3864-.6762,1.0844,1.0844,0,0,1,.6521-.2415,1.0646,1.0646,0,0,1,1.0627.9178"/><path class="b" d="M44.2946,7.85V9.251h.9661v2.6567a3.4388,3.4388,0,0,0,.0725.797,1.2145,1.2145,0,0,0,.6038.7A2.1661,2.1661,0,0,0,47,13.6707a2.254,2.254,0,0,0,1.1351-.2657,2.5963,2.5963,0,0,0,.8212-.9178l.0242-.0483-1.2076-.7-.0242.0725a1.1687,1.1687,0,0,1-.2657.3623.4854.4854,0,0,1-.314.0966.2956.2956,0,0,1-.3381-.3381V9.251H48.4V7.85h-1.57V6.6185h-1.57V7.85h-.9661Z"/><path class="b" d="M41.9761,7.7294a2.5322,2.5322,0,0,0-1.57.483,1.5667,1.5667,0,0,0-.6279,1.2559,1.3871,1.3871,0,0,0,.6279,1.2076,1.8541,1.8541,0,0,0,.4347.2415c.1691.0725.4347.1691.8212.29a4.1677,4.1677,0,0,1,.8453.3381.3548.3548,0,0,1,.1932.314c0,.29-.2415.4106-.7245.4106a1.6786,1.6786,0,0,1-1.4249-.7245l-.0483-.0725-1.0144.9661.0242.0483a3.1345,3.1345,0,0,0,4.1058.6762,1.5493,1.5493,0,0,0,.6521-1.3042,1.5729,1.5729,0,0,0-.9419-1.4249,5.874,5.874,0,0,0-1.4491-.483,1.2237,1.2237,0,0,1-.4347-.1932.3878.3878,0,0,1-.1208-.2657.3443.3443,0,0,1,.1449-.29.7262.7262,0,0,1,.4347-.0966,1.6835,1.6835,0,0,1,1.1351.5555l.0483.0483.9661-1.111-.0483-.0483a2.7128,2.7128,0,0,0-2.0287-.8212"/><polygon class="b" points="29.707 13.502 31.204 13.502 31.204 7.85 29.707 7.85 29.707 13.502"/><path class="b" d="M38.4741,5.9664a.797.797,0,1,1-.797.797.8041.8041,0,0,1,.797-.797"/><path class="b" d="M31.9773,13.5017h1.4733V10.2171a1.082,1.082,0,0,1,.3381-.7729,1.1927,1.1927,0,0,1,.8212-.3381.9854.9854,0,0,1,.7729.314,1.1768,1.1768,0,0,1,.314.797v3.2846H37.17V10.1929a2.5462,2.5462,0,0,0-.6521-1.7872,2.2206,2.2206,0,0,0-1.6906-.7,1.8725,1.8725,0,0,0-1.4249.5555L33.2573,7.85h-1.28Z"/><polygon class="b" points="37.75 13.502 39.223 13.502 39.223 7.85 37.75 7.85 37.75 13.502"/><path class="b" d="M30.48,5.9664a.797.797,0,1,1-.797.797.8041.8041,0,0,1,.797-.797"/><polygon class="b" points="24.152 6.449 22.558 6.449 22.558 13.502 24.031 13.502 24.031 8.599 25.794 11.207 27.558 8.599 27.558 13.502 29.055 13.502 29.055 6.449 27.461 6.449 25.794 8.84 24.152 6.449"/><path class="c" d="M4.88,2.4888A2.44,2.44,0,1,1,2.44.0488,2.4426,2.4426,0,0,1,4.88,2.4888Z"/><path class="d" d="M2.1193,3.7994V2.9837h.3555l.6135.8156h.62l-.739-.983a.9054.9054,0,0,0-.5228-1.6452h-.83V3.7924h.5019Zm0-2.1263h.3277a.4043.4043,0,0,1,0,.8087H2.1193Z"/><path d="M27.4043,1.0806a1.5253,1.5253,0,0,0-.7041.1743V1.1712h-.8366V4.6847H26.7V2.6212a.7041.7041,0,0,1,1.4082,0V4.6847h.8366V2.6212A1.5412,1.5412,0,0,0,27.4043,1.0806Z"/><path d="M25.5359,2.928a1.7583,1.7583,0,0,0-1.6452-1.8474A1.7361,1.7361,0,0,0,22.2455,2.928a1.8535,1.8535,0,0,0,1.7637,1.8474,1.728,1.728,0,0,0,1.45-.7878l-.725-.4183a.8606.8606,0,0,1-1.5616-.3974H25.522C25.529,3.0883,25.5359,3.0046,25.5359,2.928Zm-.9411-.5019H23.1866A.7206.7206,0,0,1,24.5948,2.426Z"/><path d="M21.3532,3.7018a.3684.3684,0,0,1-.3486.23.3821.3821,0,0,1-.3765-.4183V2.0008h1.227V1.1642h-1.227V.2928h-.8366v.8784H19.199v.8366h.5926v1.52a1.2172,1.2172,0,0,0,2.3772.4043Z"/><path d="M18.0766,1.1642V3.2277a.7041.7041,0,0,1-1.4082,0V1.1642h-.8366V3.2277a1.5337,1.5337,0,0,0,1.5337,1.5337,1.5041,1.5041,0,0,0,.7041-.1743v.0837h.8366V1.1642Z"/><polygon points="14.019 2.816 15.672 1.164 14.486 1.164 13.218 2.44 13.218 0 12.381 0 12.381 4.685 13.218 4.685 13.218 3.193 14.709 4.685 15.888 4.685 14.019 2.816"/><path d="M11.05,1.1642v.1534a1.5134,1.5134,0,0,0-.8156-.244A1.7583,1.7583,0,0,0,8.5887,2.921a1.7583,1.7583,0,0,0,1.6452,1.8474,1.5315,1.5315,0,0,0,.8156-.244v.1534h.8366V1.1642Zm-.8156,2.7676A.9276.9276,0,0,1,9.4252,2.921.9276.9276,0,0,1,10.2339,1.91.9325.9325,0,0,1,11.05,2.921.928.928,0,0,1,10.2339,3.9318Z"/><path d="M6.2045,4.6847V3.3183H6.797L7.8218,4.6778H8.8675L7.6336,3.0325A1.5143,1.5143,0,0,0,6.7552.2858H5.3679V4.6778h.8366Zm0-3.5623h.5438a.6832.6832,0,1,1,0,1.3664H6.2045Z"/></svg>