<svg xmlns="http://www.w3.org/2000/svg" width="37.7609" height="15.1327" viewBox="0 0 37.7609 15.1327"><defs><style>.a{fill:#ffa100;}.b{fill:#fc1921;}.c{fill:#2255a4;}.d{fill:#70bc1f;}</style></defs><title>ebay</title><path class="a" d="M23.9056,8.0254c-1.7158.0562-2.7819.3659-2.7819,1.496,0,.7316.5833,1.5248,2.0642,1.5248,1.9853,0,3.0451-1.0822,3.0451-2.8571V7.994C25.537,7.994,24.6787,8,23.9056,8.0254Zm4.22,2.345c0,.5507.0159,1.0942.064,1.5837h-1.76a10.3123,10.3123,0,0,1-.0641-1.192,4.1972,4.1972,0,0,1-3.6538,1.5061c-2.329,0-3.576-1.231-3.576-2.6549,0-2.0622,1.6961-2.7893,4.64-2.8568.8052-.0184,1.71-.0211,2.4573-.0211V6.5341c0-1.3806-.8852-1.9482-2.4192-1.9482-1.1388,0-1.9781.4713-2.0646,1.2856H19.7609c.21-2.03,2.3437-2.544,4.2194-2.544,2.2471,0,4.1451.8,4.1451,3.1762Z"/><path class="b" d="M7.5384,7.0185A2.4387,2.4387,0,0,0,4.8219,4.5859a2.62,2.62,0,0,0-2.854,2.4325ZM1.9271,8.2768A2.7478,2.7478,0,0,0,4.8422,11.01,2.4016,2.4016,0,0,0,7.31,9.55H9.2618C8.8823,11.58,6.726,12.2683,4.87,12.2683,1.4956,12.2683,0,10.41,0,7.9036c0-2.759,1.5469-4.576,4.9009-4.576,2.67,0,4.6257,1.3971,4.6257,4.4466v.5027Z"/><path class="c" d="M14.3805,10.9742a2.9119,2.9119,0,0,0,2.962-3.176,2.9693,2.9693,0,1,0-5.9241,0A2.9173,2.9173,0,0,0,14.3805,10.9742ZM9.5265,0h1.8919l0,4.7532a4.2862,4.2862,0,0,1,3.4623-1.4257,4.313,4.313,0,0,1,4.45,4.4946,4.308,4.308,0,0,1-4.4853,4.4462A4.4044,4.4044,0,0,1,11.3833,10.8a10.229,10.229,0,0,1-.0644,1.1541H9.4621c.0323-.6007.0644-1.3488.0644-1.954Z"/><path class="d" d="M37.7609,3.6423,31.91,15.1327H29.7914l1.6821-3.1906-4.4031-8.3h2.2138l3.24,6.4847,3.2309-6.4847Z"/></svg>