<svg xmlns="http://www.w3.org/2000/svg" width="15.5922" height="2.4537" viewBox="0 0 15.5922 2.4537"><defs><style>.a{fill:#e23a05;}.b{fill:#293847;}</style></defs><title>cdiscount</title><path class="a" d="M1.7355,1.69a.6575.6575,0,0,1-.5384.2781.6575.6575,0,0,1-.6706-.6738A.6711.6711,0,0,1,.7234.8055.6744.6744,0,0,1,1.1971.62a.6575.6575,0,0,1,.5384.2781l.02.0281L2.1531.59,2.133.5658A1.22,1.22,0,0,0,1.1971.1316,1.1816,1.1816,0,0,0,0,1.2942,1.18,1.18,0,0,0,1.1971,2.4537a1.2184,1.2184,0,0,0,.9359-.4311l.02-.0239-.3979-.3369Z"/><path class="b" d="M4.0753.0345V2.3973H3.6366V2.2939a.9969.9969,0,0,1-.4951.1316A.85.85,0,0,1,2.28,1.5449.8447.8447,0,0,1,3.1415.6644a1.0288,1.0288,0,0,1,.4951.1285V.0345ZM3.6366,1.8834V1.2A.6447.6447,0,0,0,3.22,1.0561a.4863.4863,0,0,0-.5077.4889.4784.4784,0,0,0,.5077.4857.6359.6359,0,0,0,.4168-.1473"/><rect class="b" x="4.4506" y="0.8333" width="0.4356" height="1.564"/><path class="b" d="M5.3377,1.9367a1.3574,1.3574,0,0,0,.5829.1379c.2006,0,.2789-.0752.2789-.163,0-.0972-.0971-.141-.36-.1974-.3667-.0815-.633-.2006-.633-.53,0-.3071.2538-.52.6487-.52a1.71,1.71,0,0,1,.6644.1379l-.1442.32a1.5838,1.5838,0,0,0-.53-.11c-.1661,0-.2507.06-.2507.15,0,.094.1034.1379.3761.1943.3949.0815.6236.2194.6236.53,0,.3228-.2476.5359-.6832.5359a1.496,1.496,0,0,1-.7364-.163Z"/><path class="b" d="M8.3707,2.0808a.818.818,0,0,1-.6581.3416.9046.9046,0,0,1-.9307-.8774A.9051.9051,0,0,1,7.7127.6644a.822.822,0,0,1,.6644.3384l-.282.26a.4628.4628,0,0,0-.3823-.2068.4963.4963,0,0,0-.5014.4889.4957.4957,0,0,0,.5014.4857.4581.4581,0,0,0,.3823-.21Z"/><path class="b" d="M10.3634,1.5449a.9323.9323,0,0,1-1.8615,0,.9322.9322,0,0,1,1.8615,0m-.4293,0a.5017.5017,0,1,0-.5014.4857.4943.4943,0,0,0,.5014-.4857"/><path class="b" d="M12.2494.71V2.3973h-.4356V2.2845a.818.818,0,0,1-.4638.1379c-.4983,0-.727-.2319-.727-.7834V.71h.4356V1.639c0,.2632.1285.3917.37.3917a.5816.5816,0,0,0,.3854-.1347V.71Z"/><path class="b" d="M14.2264,1.4478v.95h-.4356v-.95c0-.2632-.1285-.3917-.37-.3917a.5564.5564,0,0,0-.376.1348V2.3973h-.4356V.6957h.4356V.8022a.7875.7875,0,0,1,.4544-.1379c.4983,0,.7271.2319.7271.7834"/><path class="b" d="M15.1159,1.0561v.6017c0,.304.05.3917.27.3917a1.8,1.8,0,0,0,.2006-.0157V2.36a1.0709,1.0709,0,0,1-.3949.0627.49.49,0,0,1-.5139-.5359v-.83h-.2413v-.36h.2413V.0345h.4387V.6957h.4763v.36Z"/><path class="a" d="M4.4331.257A.2548.2548,0,0,1,4.6838,0a.2522.2522,0,0,1,.2476.257.25.25,0,0,1-.2476.2538A.2521.2521,0,0,1,4.4331.257"/></svg>