<?xml version="1.0" encoding="UTF-8"?>
<svg id="Ebene_2" data-name="Ebene 2" xmlns="http://www.w3.org/2000/svg" viewBox="0 0 69.14 12.99">
  <defs>
    <style>
      .cls-1 {
        fill: #414141;
        stroke-width: 0px;
      }
    </style>
  </defs>
  <g id="Ebene_1-2" data-name="Ebene 1">
    <g>
      <path class="cls-1" d="M.54.54h11.92v11.92H.54V.54ZM0,12.99h12.99V0H0v12.99Z"/>
      <rect class="cls-1" x="2.04" y="2.04" width="4.14" height="4.14"/>
      <polygon class="cls-1" points="6.81 2.04 6.81 6.19 10.95 2.04 6.81 2.04"/>
      <rect class="cls-1" x="2.04" y="6.81" width="4.14" height="4.14"/>
      <polygon class="cls-1" points="6.81 6.8 6.81 10.95 10.95 10.95 6.81 6.8"/>
      <polygon class="cls-1" points="21 11.1 18.07 7.07 18.07 11.1 16.04 11.1 16.04 2.12 18.07 2.12 18.07 6.25 21 2.12 23.31 2.12 19.91 6.51 23.35 11.1 21 11.1"/>
      <path class="cls-1" d="M29.88,5.12v5.98h-1.76v-.63c-.49.49-1.15.76-1.85.76-1.59-.03-2.85-1.34-2.82-2.93,0-.05,0-.11,0-.16-.13-1.61,1.07-3.02,2.68-3.15.04,0,.09,0,.13,0,.69,0,1.36.28,1.85.77v-.63h1.76ZM28.13,9.17v-2.13c-.32-.36-.78-.57-1.27-.56-.84-.02-1.55.64-1.57,1.48,0,.05,0,.1,0,.15-.05.85.59,1.57,1.43,1.63.04,0,.09,0,.13,0,.49,0,.95-.2,1.27-.56"/>
      <path class="cls-1" d="M37.32,5.12v5.98h-1.76v-.71c-.49.54-1.19.84-1.91.83-1.21.06-2.24-.87-2.3-2.08,0-.11,0-.22,0-.34v-3.7h1.78v3.35c-.08.61.35,1.16.95,1.24.07,0,.13.01.2,0,.5-.01.98-.26,1.27-.67v-3.93h1.76Z"/>
      <path class="cls-1" d="M41.21,4.58v.54h2.01v1.45h-2.01v4.53h-1.81v-4.53h-.87v-1.45h.87v-.71c-.13-1.21.74-2.29,1.95-2.42.15-.02.29-.02.44,0,.56-.04,1.13.09,1.62.37l-.28,1.35c-.28-.18-.61-.27-.94-.26-.63,0-.98.37-.98,1.13M46.25,11.1h-1.8V2.12h1.8v8.98Z"/>
      <path class="cls-1" d="M53.99,5.12v5.98h-1.76v-.63c-.49.49-1.15.76-1.85.76-1.59-.03-2.85-1.34-2.82-2.93,0-.05,0-.11,0-.16-.13-1.61,1.07-3.02,2.68-3.15.04,0,.09,0,.13,0,.69,0,1.36.28,1.85.77v-.63h1.76ZM52.23,9.17v-2.13c-.32-.36-.78-.57-1.27-.56-.84-.02-1.54.64-1.57,1.48,0,.05,0,.1,0,.15-.05.85.59,1.57,1.43,1.63.04,0,.09,0,.13,0,.49,0,.95-.2,1.27-.56"/>
      <path class="cls-1" d="M61.46,7.4v3.7h-1.77v-3.35c.07-.61-.36-1.16-.97-1.24-.06,0-.12,0-.19,0-.5.01-.98.26-1.27.67v3.93h-1.76v-5.98h1.76v.69c.49-.53,1.18-.82,1.9-.82,1.21-.07,2.24.86,2.31,2.06,0,.12,0,.23,0,.35"/>
      <path class="cls-1" d="M69.14,2.12v8.98h-1.76v-.67c-.5.51-1.18.8-1.9.8-1.59-.03-2.85-1.34-2.82-2.93,0-.05,0-.11,0-.16-.13-1.6,1.06-3,2.65-3.13.05,0,.1,0,.16,0,.72,0,1.4.28,1.9.8v-3.67h1.76ZM67.39,9.12v-2.03c-.32-.4-.81-.63-1.32-.62-.84-.02-1.54.64-1.57,1.48,0,.05,0,.1,0,.15-.06.84.58,1.57,1.42,1.63.05,0,.1,0,.15,0,.51,0,1-.22,1.32-.62"/>
    </g>
  </g>
</svg>