<?xml version="1.0" encoding="UTF-8"?>
<svg id="Ebene_2" data-name="Ebene 2" xmlns="http://www.w3.org/2000/svg" viewBox="0 0 69.2 13">
  <defs>
    <style>
      .cls-1 {
        fill: #e3000f;
        stroke-width: 0px;
      }
    </style>
  </defs>
  <g id="Ebene_1-2" data-name="Ebene 1">
    <g>
      <path class="cls-1" d="M.5.5h11.9v11.9H.5V.5ZM0,13h13V0H0v13Z"/>
      <rect class="cls-1" x="2" y="2" width="4.1" height="4.1"/>
      <polygon class="cls-1" points="6.8 2 6.8 6.2 10.9 2 6.8 2"/>
      <rect class="cls-1" x="2" y="6.8" width="4.1" height="4.1"/>
      <polygon class="cls-1" points="6.8 6.8 6.8 10.9 10.9 10.9 6.8 6.8"/>
      <polygon class="cls-1" points="21 11.1 18.1 7.1 18.1 11.1 16 11.1 16 2.1 18.1 2.1 18.1 6.2 21 2.1 23.3 2.1 19.9 6.5 23.4 11.1 21 11.1"/>
      <path class="cls-1" d="M29.9,5.1v6h-1.8v-.6c-.5.5-1.2.8-1.8.8-1.6,0-2.8-1.3-2.8-2.9v-.2c-.1-1.6,1.1-3,2.7-3.1h.1c.7,0,1.4.3,1.8.8v-.6h1.8v-.2ZM28.1,9.2v-2.1c-.3-.4-.8-.6-1.3-.6-.8,0-1.5.6-1.6,1.5v.1c0,.8.6,1.6,1.4,1.6h.1c.5,0,.9-.2,1.3-.6"/>
      <path class="cls-1" d="M37.3,5.1v6h-1.8v-.7c-.5.5-1.2.8-1.9.8-1.2,0-2.2-.9-2.3-2.1v-4h1.8v3.3c0,.6.3,1.2,1,1.2h.2c.5,0,1-.3,1.3-.7v-3.9h1.8l-.1.1Z"/>
      <path class="cls-1" d="M41.2,4.6v.5h2v1.5h-2v4.5h-1.8v-4.5h-.9v-1.5h.9v-.7c-.1-1.2.7-2.3,1.9-2.4h.4c.6,0,1.1,0,1.6.4l-.3,1.3c-.3-.2-.6-.3-.9-.3-.6,0-1,.4-1,1.1M46.3,11.1h-1.8V2.1h1.8v9Z"/>
      <path class="cls-1" d="M54,5.1v6h-1.8v-.6c-.5.5-1.2.8-1.8.8-1.6,0-2.8-1.3-2.8-2.9v-.2c-.1-1.6,1.1-3,2.7-3.1h.1c.7,0,1.4.3,1.8.8v-.6h1.8v-.2ZM52.2,9.2v-2.1c-.3-.4-.8-.6-1.3-.6-.8,0-1.5.6-1.6,1.5v.1c0,.8.6,1.6,1.4,1.6h.1c.5,0,.9-.2,1.3-.6"/>
      <path class="cls-1" d="M61.5,7.4v3.7h-1.8v-3.3c0-.6-.4-1.2-1-1.2h-.2c-.5,0-1,.3-1.3.7v3.9h-1.8v-6h1.8v.7c.5-.5,1.2-.8,1.9-.8,1.2,0,2.2.9,2.3,2.1v.3"/>
      <path class="cls-1" d="M69.1,2.1v9h-1.8v-.7c-.5.5-1.2.8-1.9.8-1.6,0-2.8-1.3-2.8-2.9v-.2c-.1-1.6,1.1-3,2.7-3.1h.2c.7,0,1.4.3,1.9.8v-3.7h1.8-.1ZM67.4,9.1v-2c-.3-.4-.8-.6-1.3-.6-.8,0-1.5.6-1.6,1.5v.1c0,.8.6,1.6,1.4,1.6h.1c.5,0,1-.2,1.3-.6"/>
    </g>
  </g>
</svg>