<svg xmlns="http://www.w3.org/2000/svg" width="48.6213" height="12.1556" viewBox="0 0 48.6213 12.1556"><defs><style>.a{fill:#00396f;}.b{fill:#b80b2e;}</style></defs><title>real</title><path class="a" d="M4.2773,3.9515a5.2539,5.2539,0,0,1,.9758-1.1372,3.08,3.08,0,0,1,1.7415-.67c.2251-.0151.2792.07.238.2743-.1474.7318-.2875,1.4651-.4342,2.1971a.33.33,0,0,1-.343.3116A2.4347,2.4347,0,0,0,3.9979,7.0082c-.3152,1.4151-.5957,2.8379-.901,4.2552-.1645.7639-.0548.6545-.8218.66-.6329.0041-1.2662-.0107-1.8987.0054-.3449.0088-.4165-.1276-.3581-.4465C.5381,8.6427,1.0558,5.803,1.5522,2.96c.0778-.4454.2265-.6419.7154-.6035.629.0495,1.2649.015,1.8978.0107.2919-.002.43.0851.3447.4149C4.4106,3.166,4.3531,3.5611,4.2773,3.9515Z"/><path class="a" d="M26.8.0133c.3452,0,.6909.01,1.0356-.0031.2978-.0115.4048.0619.3416.3982-.61,3.2459-1.2029,6.4951-1.801,9.7432-.0884.48-.1867.9586-.2658,1.44a.3466.3466,0,0,1-.4056.3356c-.7479-.01-1.4962-.0144-2.2439.0016-.3218.0069-.3555-.1416-.3073-.4015q1.0335-5.57,2.0576-11.1412a.3916.3916,0,0,1,.4669-.3769C26.0517.0254,26.4262.0133,26.8.0133Z"/><path class="b" d="M27.8607,11.9325c-.3452,0-.69-.0032-1.0355.0011-.2063.0026-.293-.0856-.25-.2916.1438-.6884.29-1.3763.4288-2.0658.0365-.1814.15-.2243.31-.2239q1.0355.0026,2.071.0006c.2522,0,.3179.1111.2622.3583-.1452.644-.27,1.2926-.4,1.94a.3018.3018,0,0,1-.3521.2854C28.5515,11.9211,28.2058,11.9326,27.8607,11.9325Z"/><path class="b" d="M39.9114.0021c-.617.0327-1.238.0287-1.8554,0-.3228-.0149-.4328.1174-.4719.4046-.0542.3984-.1284.7942-.1973,1.1905-.1347.7749-.2716,1.5494-.4241,2.4177A2.8862,2.8862,0,0,0,35.137,2.4184a3.5158,3.5158,0,0,0-4.1222,1.72,7.8716,7.8716,0,0,0-.9384,4.8286,4.1067,4.1067,0,0,0,.6342,1.77,2.9442,2.9442,0,0,0,4.7553.3432c.1576-.2009.3222-.3964.5339-.6563-.0606.4052-.1025.7292-.1589,1.0507-.0548.3125.0441.452.3824.4412.575-.0185,1.1517-.022,1.7263.0014.3241.0132.4244-.1288.4572-.42.2073-1.8437.6139-3.6542.9271-5.48.3157-1.84.6517-3.6776.9935-5.5135C40.3968.1307,40.3262-.02,39.9114.0021ZM35.6456,8.84a1.915,1.915,0,0,1-.8279.669,1.2129,1.2129,0,0,1-1.7162-.7337,3.4194,3.4194,0,0,1,.6039-3.3677,1.5113,1.5113,0,0,1,1.61-.5872,1.4018,1.4018,0,0,1,.9766,1.2477c.0414.1956.0562.3967.0709.5045A3.8094,3.8094,0,0,1,35.6456,8.84Z"/><path class="a" d="M23.5813,5.1284a2.7394,2.7394,0,0,0-2.0128-2.6151,7.4079,7.4079,0,0,0-4.5309.2145c-.1881.06-.2257.1972-.2458.36-.06.4848-.1237.9692-.1805,1.4544-.0177.1512-.1116.3319.0325.447.15.12.2989-.0242.4363-.0869a4.4427,4.4427,0,0,1,2.6836-.4A1.1963,1.1963,0,0,1,20.83,5.67c.0053.2575-.0334.368-.355.3375a9.2062,9.2062,0,0,0-3.044.1385c-2.2394.5377-3.3792,2.42-2.6784,4.4325a2.0663,2.0663,0,0,0,1.2656,1.3245,3.5072,3.5072,0,0,0,4.1-1.1046.87.87,0,0,1,.136-.1265c-.0229.2854-.0242.544-.0683.7951-.0668.38.0926.4812.4474.4628a10.47,10.47,0,0,1,1.38.0029c.4085.0329.558-.1245.5966-.5156.093-.9443.3054-1.87.488-2.8A13.8067,13.8067,0,0,0,23.5813,5.1284ZM20.2731,8.6033a2.0354,2.0354,0,0,1-1.9251,1.348.924.924,0,0,1-.9414-.62.9112.9112,0,0,1,.3054-1.0843,2.8052,2.8052,0,0,1,1.9847-.56C20.6327,7.6936,20.665,7.7371,20.2731,8.6033Z"/><path class="b" d="M48.61,5.335A2.9834,2.9834,0,0,0,46.148,2.3636,4.9083,4.9083,0,0,0,41.4235,3.84,6.4663,6.4663,0,0,0,39.64,8.8941a3.3966,3.3966,0,0,0,2.7083,3.1274,7.8345,7.8345,0,0,0,3.4973-.2027.8781.8781,0,0,0,.7841-.812c.0536-.3675.18-.7239.26-1.0885.0282-.1294.1556-.2726.0125-.4006-.1371-.1226-.2732-.0082-.4.0392a5.9944,5.9944,0,0,1-2.6226.3862A1.489,1.489,0,0,1,42.31,8.4943c-.0115-.2619.0554-.3509.33-.3455.8631.0169,1.7267.0062,2.59.0062s1.7268-.0026,2.59.0017c.2323.0012.4052-.0225.477-.3081A8.1291,8.1291,0,0,0,48.61,5.335Zm-2.4175.881c-.0712.1472-.1964.0893-.2987.0907-.4887.0067-.9774.003-1.4662.003q-.7547,0-1.5093.0005c-.1212,0-.22.0155-.1835-.1779a2.3678,2.3678,0,0,1,2.6932-1.6207A1.5344,1.5344,0,0,1,46.1929,6.216Z"/><path class="a" d="M12.8085,2.4562a4.8318,4.8318,0,0,0-4.4064.8522A6.3758,6.3758,0,0,0,5.9847,8.305a3.4476,3.4476,0,0,0,2.5,3.6489A7.2509,7.2509,0,0,0,12.64,11.68c.1886-.0552.2226-.2073.2626-.3595.1238-.4721.2468-.9445.3638-1.4183.03-.1218.1-.2658.0017-.3705-.1247-.1323-.2681-.02-.3968.0277a5.946,5.946,0,0,1-2.6655.3821A1.452,1.452,0,0,1,8.69,8.4959c-.0094-.272.0768-.3435.34-.339.8632.0149,1.7268.0056,2.59.0055s1.7269-.0058,2.59.0035a.394.394,0,0,0,.46-.338,10.4906,10.4906,0,0,0,.3125-1.9545A3.0987,3.0987,0,0,0,12.8085,2.4562Zm-.226,3.6887c-.0427.1923-.1581.17-.2842.17-1.0639.0008-2.1278,0-3.26,0a2.4939,2.4939,0,0,1,2.0754-1.8382A1.3162,1.3162,0,0,1,12.5824,6.1449Z"/></svg>