<?xml version="1.0" encoding="UTF-8"?>
<svg id="Ebene_2" data-name="Ebene 2" xmlns="http://www.w3.org/2000/svg" xmlns:xlink="http://www.w3.org/1999/xlink" viewBox="0 0 45 11">
  <defs>
    <style>
      .cls-1 {
        fill-rule: evenodd;
      }

      .cls-1, .cls-2, .cls-3, .cls-4 {
        stroke-width: 0px;
      }

      .cls-1, .cls-4 {
        fill: #ee7323;
      }

      .cls-5 {
        clip-path: url(#clippath);
      }

      .cls-2 {
        fill: none;
      }

      .cls-6 {
        clip-path: url(#clippath-1);
      }

      .cls-3 {
        fill: #000;
      }
    </style>
    <clipPath id="clippath">
      <rect class="cls-2" width="45" height="11"/>
    </clipPath>
    <clipPath id="clippath-1">
      <rect class="cls-2" width="45" height="11"/>
    </clipPath>
  </defs>
  <g id="Ebene_1-2" data-name="Ebene 1">
    <g id="Obi">
      <g class="cls-5">
        <polygon class="cls-4" points="34.29 .23 34.22 1.43 36.61 2.62 36.33 7.94 33.43 9.46 33.36 10.79 44.17 10.79 44.25 9.33 41.66 8 41.94 2.62 44.72 1.36 44.78 .23 34.29 .23"/>
        <path class="cls-3" d="M33.58,10.58l.05-.99,2.91-1.53.29-5.57-2.38-1.19.04-.86h10.07l-.04.78-2.78,1.26-.29,5.64,2.59,1.33-.06,1.13h-10.39ZM34.08.02l-.08,1.53,2.38,1.19-.26,5.06-2.91,1.53-.08,1.67h11.24l.09-1.79-2.59-1.33.26-5.12,2.78-1.26.08-1.48h-10.92Z"/>
        <g class="cls-6">
          <path class="cls-1" d="M24.97,8.08h-1.59l.1-1.96h1.59c.84-.03,1.22.71,1,1.19,0,0-.08.73-1.1.76ZM25.17,4.28h-1.59l.1-1.84h1.67c.63-.02,1.09.45.95,1.03,0,0-.04.81-1.13.81M29.72.21s2.02-.22,2.42,2.33c0,0,.16,1.76-1.64,2.79,1.96.56,1.6,2.92,1.6,2.92-.59,2.68-3.35,2.53-3.35,2.53h-13.36l.08-1.33,2.49-1.53.24-5.39-2.33-1.13.08-1.2h13.77s0,0,0,0Z"/>
          <path class="cls-3" d="M28.83,10.99s-.08,0-.09,0h-13.58l.1-1.66,2.49-1.52.23-5.14-2.34-1.13.1-1.53h13.96c.09-.02.6-.04,1.16.22.55.26,1.26.87,1.47,2.28h0c0,.09.13,1.68-1.38,2.77,1.66.79,1.35,2.98,1.35,3h0c-.33,1.49-1.28,2.14-2.03,2.43-.64.25-1.22.27-1.45.27h0ZM15.61,10.57h13.15c.1,0,2.58.11,3.13-2.35,0-.06.07-.59-.07-1.17-.19-.79-.66-1.3-1.39-1.51l-.48-.14.43-.25c1.62-.93,1.54-2.46,1.53-2.58-.36-2.32-2.11-2.16-2.18-2.15h-.02s-13.57.01-13.57.01l-.06.86,2.33,1.13-.25,5.63-2.49,1.53-.06,1ZM24.98,8.29h-1.81l.12-2.38h1.79c.46-.02.85.17,1.09.51.2.29.25.65.13.95-.05.32-.38.89-1.3.92h0ZM23.61,7.87h1.36c.83-.03.9-.57.9-.58v-.03s.02-.03.02-.03c.08-.17.04-.4-.08-.57-.09-.13-.3-.34-.72-.33h-1.4l-.08,1.54ZM25.17,4.48h-1.81l.12-2.26h1.87c.39-.01.74.14.96.41.2.24.27.55.2.87-.03.35-.34.99-1.34.99h0ZM23.81,4.07h1.37c.85,0,.91-.55.92-.61v-.19h.02c0-.14-.04-.26-.13-.36-.14-.17-.37-.26-.63-.25h-1.48l-.07,1.42Z"/>
          <path class="cls-1" d="M7.68,1.67h.31c.72,0,1.26.6,1.23,1.33l-.25,4.81c-.04.73-.65,1.33-1.36,1.33h-.31c-.72,0-1.26-.59-1.23-1.33l.25-4.81c.04-.73.65-1.33,1.36-1.33M5.05.22h5.75c2.5,0,4.43,2.08,4.3,4.65l-.06,1.26c-.13,2.57-2.27,4.65-4.77,4.65h-5.75C2.01,10.78.09,8.7.22,6.13l.07-1.26C.41,2.3,2.55.22,5.05.22"/>
          <path class="cls-3" d="M10.26,10.99h-5.75c-1.24,0-2.39-.49-3.24-1.37C.39,8.69-.06,7.45,0,6.12l.07-1.26C.21,2.19,2.44.01,5.05.01h5.75c1.24,0,2.39.49,3.24,1.37.89.93,1.34,2.17,1.27,3.5l-.06,1.26c-.14,2.67-2.37,4.85-4.98,4.85ZM5.05.43C2.66.43.62,2.43.49,4.88l-.06,1.26c-.06,1.21.35,2.34,1.15,3.19.77.8,1.81,1.24,2.93,1.24h5.75c2.39,0,4.43-2,4.56-4.45l.06-1.26c.06-1.21-.35-2.34-1.15-3.19-.77-.8-1.81-1.24-2.93-1.24h-5.75ZM7.61,9.34h-.31c-.4,0-.76-.16-1.03-.44-.28-.3-.43-.69-.4-1.11l.25-4.81c.04-.84.75-1.53,1.57-1.53h.31c.4,0,.76.15,1.03.44.28.3.43.69.4,1.11l-.24,4.81c-.04.84-.75,1.53-1.57,1.53M7.68,1.88c-.6,0-1.12.51-1.15,1.13l-.25,4.81c-.02.31.09.59.29.8.19.2.45.31.73.31h.31c.6,0,1.12-.51,1.15-1.13l.24-4.81c.02-.31-.09-.59-.29-.8-.19-.2-.45-.31-.73-.31h-.31Z"/>
        </g>
      </g>
    </g>
  </g>
</svg>