<svg xmlns="http://www.w3.org/2000/svg" width="54.2722" height="16.8997" viewBox="0 0 54.2722 16.8997"><defs><style>.a,.b{fill:#03243e;}.b{fill-rule:evenodd;}.c{fill:#fe4d0d;}</style></defs><title>idealo</title><path class="a" d="M2.836,11.2123l-2.7474.0228-.0643-7.59,2.7551-.0189ZM2.77,2.4967l-2.7493.03L0,.3319,2.753.3055Z"/><path class="a" d="M12.3116,7.558a1.8116,1.8116,0,0,1-.1224.7749,1.0149,1.0149,0,0,1-.3528.4733,1.5114,1.5114,0,0,1-.5959.2433,4.5285,4.5285,0,0,1-.8239.07l-1.5029.0131A3.81,3.81,0,0,1,7.9953,9.04a1.0082,1.0082,0,0,1-.4847-.281.8414.8414,0,0,1-.2244-.4619,4.7022,4.7022,0,0,1-.0585-.6223l.0056-.9861a2.9839,2.9839,0,0,1,.0321-.6223.9729.9729,0,0,1,.217-.4657A1.1433,1.1433,0,0,1,7.98,5.3157a3.6067,3.6067,0,0,1,.9014-.1l1.5048-.0151a4.3357,4.3357,0,0,1,.8239.06,1.4,1.4,0,0,1,.6054.2319,1.0073,1.0073,0,0,1,.36.4657,2.1145,2.1145,0,0,1,.13.7751ZM12.1853.2338l.034,4.3956-.03-.0095a1.677,1.677,0,0,0-.3339-.7845,1.9215,1.9215,0,0,0-.6525-.4883,2.538,2.538,0,0,0-.8259-.2584,6.4178,6.4178,0,0,0-.924-.066l-.6959.0151a8.5044,8.5044,0,0,0-2.2892.2566,3.0791,3.0791,0,0,0-1.3069.7071,2.1838,2.1838,0,0,0-.575,1.0862A6.8333,6.8333,0,0,0,4.52,6.5056l.0095,1.4557a6.41,6.41,0,0,0,.0962,1.4125A2.0164,2.0164,0,0,0,5.21,10.3959a3.0407,3.0407,0,0,0,1.3161.6921,8.9763,8.9763,0,0,0,2.3044.2205l.6619-.0093a4.0711,4.0711,0,0,0,1.0879-.1151,2.4529,2.4529,0,0,0,.8448-.3319,2.1541,2.1541,0,0,0,.8958-1.1277l.0284.0019.0112,1.4181,2.6286-.0245L14.9006.213Z"/><polygon class="a" points="39.407 10.93 42.181 10.901 42.094 0 39.33 0.023 39.407 10.93"/><path class="b" d="M33.8294,9.4549c.7581-.0019,1.05-.264,1.0446-.8353,0-.9844-.2564-1.1221-1.7423-1.1182l-1.2937.0093c-1.1163,0-1.3783.2811-1.3841.8637-.0151.9033.2829,1.1107,1.39,1.1012l.907-.0112ZM27.682,8.2367c-.015-2.1459,3.0341-2.0742,3.2981-2.0648.27-.0114,1.7632-.0189,2.2194-.0245a2.6747,2.6747,0,0,1,1.61.4544l.0415.0529.0056-.8882c-.017-.856-.3356-1.286-1.3992-1.2785L31.8,4.4993c-.8824.0095-1.386.1773-1.38.5656L27.94,5.08c-.0209-1.6633,1.3217-2.2214,3.4753-2.2328l3.217-.0282c1.9423-.0095,2.9681.9579,2.9795,2.8474l.0433,5.2931-2.7644.0187L34.88,9.9848l-.1489.2979c-.4827.677-.83.8317-2.2515.8448l-1.963.0131c-1.7369.0114-2.8136-.37-2.8267-2.2289Z"/><path class="b" d="M46.4146,7.3656A3.85,3.85,0,0,0,46.46,7.99a1.0408,1.0408,0,0,0,.2149.4563,1.0087,1.0087,0,0,0,.5053.2848,3.4547,3.4547,0,0,0,.9.0906l1.51-.017a4.2606,4.2606,0,0,0,.8259-.07,1.4562,1.4562,0,0,0,.6034-.2356,1.1546,1.1546,0,0,0,.3584-.481,1.9641,1.9641,0,0,0,.1132-.7768l-.0094-.8147a1.9182,1.9182,0,0,0-.1226-.7732,1.1216,1.1216,0,0,0-.37-.4694,1.3176,1.3176,0,0,0-.6073-.2338,4.2715,4.2715,0,0,0-.8125-.0585l-1.5143.0095a2.857,2.857,0,0,0-.9052.1112,1.0359,1.0359,0,0,0-.4978.2829.97.97,0,0,0-.2074.46,4.9832,4.9832,0,0,0-.0377.6222ZM43.684,5.9211C43.6727,3.283,45.385,2.74,46.9294,2.7286l3.9656-.0321c1.5386-.0114,3.2755.5,3.2942,3.14l.0209,1.95c.0151,2.6325-1.716,3.1849-3.2378,3.1963l-3.9863.03c-1.5332.0114-3.26-.5053-3.2755-3.14Z"/><path class="b" d="M19.4189,5.8946c-.0095-.8523.3225-1.2991,1.386-1.3011l.8127-.0114.8127-.0075c1.0653-.0112,1.3992.4376,1.4067,1.29l.0037.3584-4.4258.0357ZM26.59,7.8559,26.5675,6.5c-.0187-2.6908-1.26-3.6036-4.3709-3.5846l-2.0574.017c-2.1157.0187-3.5394.9334-3.5091,3.8712v.7581c.0377,3.3207,1.9572,3.67,3.9032,3.6565l2.759-.0228c2.4513-.0207,3.3056-.4374,3.2981-2.2382l-2.7665.0282c.0058.4715-.4128.5544-1.0993.56l-1.9329.0093A1.2481,1.2481,0,0,1,19.4057,8.463l-.0114-.5524Z"/><polygon class="c" points="0.117 16.9 54.272 16.479 54.248 14.267 0.111 14.693 0.117 16.9"/></svg>