<svg xmlns="http://www.w3.org/2000/svg" width="54.201" height="16.375" viewBox="0 0 54.201 16.375"><defs><style>.a{fill:#595959;}</style></defs><title>idealo_inactive</title><rect class="a" y="0.0005" width="2.7836" height="2.2105"/><rect class="a" y="3.3571" width="2.7836" height="7.6137"/><path class="a" d="M7.1026,7.3264a3.6774,3.6774,0,0,0,.0489.62.8988.8988,0,0,0,.21.4572,1.029,1.029,0,0,0,.4839.277,3.21,3.21,0,0,0,.89.0987h1.516a4.4664,4.4664,0,0,0,.8076-.0652,1.44,1.44,0,0,0,.59-.2368,1.07,1.07,0,0,0,.3558-.4654,2.0425,2.0425,0,0,0,.1209-.7673V6.4287a2.0483,2.0483,0,0,0-.1209-.7678,1.07,1.07,0,0,0-.3558-.4645,1.4342,1.4342,0,0,0-.59-.2372,4.5985,4.5985,0,0,0-.8076-.0643H8.7354a3.1976,3.1976,0,0,0-.89.0978A1.037,1.037,0,0,0,7.362,5.27a.8988.8988,0,0,0-.21.4572,3.67,3.67,0,0,0-.0489.6188ZM4.4218,6.1594A6.9878,6.9878,0,0,1,4.501,4.7588a2.2539,2.2539,0,0,1,.5817-1.12,2.9541,2.9541,0,0,1,1.2988-.6922,8.5291,8.5291,0,0,1,2.282-.2444H9.348a5.902,5.902,0,0,1,.92.07,2.8582,2.8582,0,0,1,.8262.26,1.9154,1.9154,0,0,1,.63.4957,1.6168,1.6168,0,0,1,.3114.7791L12.0432,0h2.7686V10.8813h-2.61V9.4174h-.0063a2.1452,2.1452,0,0,1-.3717.6089,1.8886,1.8886,0,0,1-.55.5052,2.8077,2.8077,0,0,1-.85.3219,4.6885,4.6885,0,0,1-1.0923.11h-.668a8.5343,8.5343,0,0,1-2.282-.2435,2.96,2.96,0,0,1-1.2988-.6935A1.9451,1.9451,0,0,1,4.501,9.0077a6.9791,6.9791,0,0,1-.0792-1.4Z"/><path class="a" d="M19.2336,5.6947c0-.8461.3382-1.2915,1.3979-1.2915h1.6451c1.0588,0,1.3979.4454,1.3979,1.2915v.3635H19.2336ZM23.5966,8.76c-.038.4142-.4414.5029-1.0855.5029H20.5939c-.6514,0-1.3716-.3282-1.3716-1.0312V7.68h7.1248V6.33c0-2.669-1.2268-3.6283-4.3132-3.6283H19.9783c-2.1027,0-3.5214.9371-3.5214,3.8582v.7533c0,3.2969,1.9189,3.6582,3.84,3.6582h2.77c2.4051,0,3.27-.4794,3.29-2.2109Z"/><path class="a" d="M33.8436,9.3534c.7605,0,1.0543-.2992,1.0543-.8692,0-.9855-.2422-1.1236-1.7329-1.1358h-1.33c-1.1059-.005-1.3716.2712-1.3825.8587-.0172.8995.2743,1.1462,1.3825,1.1462h2.0086ZM27.7555,8.0977c0-2.1326,3.0257-2.0317,3.2915-2.0307s1.74,0,2.1942,0a2.6725,2.6725,0,0,1,1.5944.4626l.0516.0525v-.871c0-.8456-.32-1.3078-1.3716-1.3078H31.87c-.88,0-1.3712.1227-1.3712.5088H28.0017c0-1.6509,1.3336-2.21,3.4689-2.21h3.2439a2.6078,2.6078,0,0,1,2.9361,2.8836V10.89H34.8871V9.8582l-.1652.29c-.4694.6686-.828.823-2.2372.823H30.54c-1.7216,0-2.7845-.36-2.7845-2.2041Z"/><rect class="a" x="39.2999" width="2.7836" height="10.9713"/><rect class="a" y="14.1645" width="54.201" height="2.2105"/><path class="a" d="M46.41,7.3118a3.6438,3.6438,0,0,0,.05.6256.9.9,0,0,0,.2155.4617,1.0481,1.0481,0,0,0,.4952.28,3.2809,3.2809,0,0,0,.9076.0991H49.59a4.619,4.619,0,0,0,.8257-.0661,1.4557,1.4557,0,0,0,.6025-.239,1.0721,1.0721,0,0,0,.3635-.4694,2.0478,2.0478,0,0,0,.1245-.7745V6.4431a2.0561,2.0561,0,0,0-.1245-.7755,1.0812,1.0812,0,0,0-.3635-.469,1.4743,1.4743,0,0,0-.6025-.239,4.7544,4.7544,0,0,0-.8257-.0652H48.0786a3.3011,3.3011,0,0,0-.9076.0987,1.06,1.06,0,0,0-.4952.28.9031.9031,0,0,0-.2155.4613,3.65,3.65,0,0,0-.05.6252Zm-2.6894-1.45c0-2.6287,1.7247-3.16,3.2516-3.16h3.9691c1.5265,0,3.2539.5315,3.2539,3.16v1.95c0,2.6274-1.7274,3.1593-3.2539,3.1593H46.9727c-1.5269,0-3.2516-.5319-3.2516-3.1593Z"/></svg>