<svg width="19" height="19" viewBox="0 0 19 19" fill="none" xmlns="http://www.w3.org/2000/svg">
<g id="Ebene 6">
<path id="Vector" d="M9.0702 0C4.05264 0 0 4.05264 0 9.0702C0 14.0878 4.05264 18.1404 9.0702 18.1404C14.0878 18.1404 18.1404 14.0878 18.1404 9.0702C18.1404 4.05264 14.0878 0 9.0702 0ZM13.972 9.0316C13.972 9.0316 13.5474 9.30178 13.2772 9.30178C13.0071 9.30178 12.7755 9.22459 12.5825 9.0316L9.99652 6.44563V13.972C9.99652 14.5123 9.57196 14.9369 9.0316 14.9369C8.49125 14.9369 8.06669 14.5123 8.06669 13.972V6.44563L5.48072 9.0316C5.09475 9.41757 4.47721 9.41757 4.12984 9.0316C3.78247 8.64564 3.74387 8.02809 4.12984 7.68072L8.37546 3.4351C8.76143 3.04913 9.37897 3.04913 9.72634 3.4351L13.972 7.68072C14.3579 8.06669 14.3579 8.68423 13.972 9.0316Z" fill="#B4B4B4"/>
</g>
</svg>
