<svg xmlns="http://www.w3.org/2000/svg" xmlns:xlink="http://www.w3.org/1999/xlink" width="164.1588" height="41.167" viewBox="0 0 164.1588 41.167"><defs><style>.a{fill:none;}.b{clip-path:url(#a);}.c{fill:#19171a;}.d{fill:#fe1109;}.e{fill:#fff;}</style><clipPath id="a"><rect class="a" x="0.0008" width="164.1569" height="41.1667"/></clipPath></defs><title>magnalister_logo</title><g class="b"><g class="b"><path class="c" d="M8.3824,16.2571v-.52a21.821,21.821,0,0,0,4.2669-.92,12.7437,12.7437,0,0,1,.3141,2.5972,6.8438,6.8438,0,0,1,1.2129-1.32,4.8612,4.8612,0,0,1,3.1171-1.0094,4.0079,4.0079,0,0,1,3.9348,2.3743,6.5008,6.5008,0,0,1,1.1341-1.3056,4.8859,4.8859,0,0,1,3.2746-1.0687q2.8015,0,3.8569,1.8107a6.0423,6.0423,0,0,1,.5667,2.9683v7.7036a2.0655,2.0655,0,0,0,.1886,1.04q.3625.52,2.1412.594v.608q-2.1093-.1777-3.5264-.1777-1.4323,0-3.4952.1777V29.216a4.09,4.09,0,0,0,1.4639-.2526.9878.9878,0,0,0,.5986-.6836,3.16,3.16,0,0,0,.0475-.6672v-7.808a4.7758,4.7758,0,0,0-.378-2.2558A2.3918,2.3918,0,0,0,24.85,16.48q-3.1955,0-3.1959,3.5918v7.5407a1.9991,1.9991,0,0,0,.173.98q.3777.5788,1.9362.6236v.5932q-2.0625-.1777-3.4-.1777-1.3224,0-3.4009.1777V29.216a4.1929,4.1929,0,0,0,1.4646-.2526.9445.9445,0,0,0,.5979-.6836,3.0871,3.0871,0,0,0,.0475-.6672V19.849a4.7531,4.7531,0,0,0-.41-2.33,2.36,2.36,0,0,0-2.156-1.039,3.017,3.017,0,0,0-2.7079,1.336,4.76,4.76,0,0,0-.5511,2.5824v7.2141a1.9991,1.9991,0,0,0,.173.98q.3777.5788,1.9518.6236v.5932q-2.0613-.1777-3.4944-.1777-1.4171,0-3.5264.1777v-.608a5.8587,5.8587,0,0,0,1.6057-.2229.9648.9648,0,0,0,.661-.7124,3.3818,3.3818,0,0,0,.0475-.6984v-9.41q-.0164-.7869-.0475-1.0843a.6928.6928,0,0,0-.488-.668,7.92,7.92,0,0,0-1.7476-.1481"/><path class="c" d="M43.1429,27.33a6.5158,6.5158,0,0,1-1.244,1.6182,4.4609,4.4609,0,0,1-3.0852,1.039,4.7455,4.7455,0,0,1-3.18-1.0539,3.5725,3.5725,0,0,1-1.3064-2.85q0-2.73,3.6675-4.171a19.4985,19.4985,0,0,1,4.77-1.1427V18.9584a3.6523,3.6523,0,0,0-.488-2.1662,2.579,2.579,0,0,0-2.1724-.8909,3.4875,3.4875,0,0,0-2.1256.6376,1.381,1.381,0,0,0-.5511,1.1435v.2666c.0109.1785.0156.3274.0156.4459a1.1743,1.1743,0,0,1-1.3064,1.3508q-1.07,0-1.07-1.025a3.0264,3.0264,0,0,1,1.4163-2.4483,6.3321,6.3321,0,0,1,3.8732-1.1879,6.1776,6.1776,0,0,1,2.8334.6384,3.5645,3.5645,0,0,1,1.9526,2.301,8.4246,8.4246,0,0,1,.2042,2.0781v6.2047a6.5432,6.5432,0,0,0,.2362,2.0781.9748.9748,0,0,0,1.0235.6384,4.4359,4.4359,0,0,0,.8185-.1045v.8021a10.0058,10.0058,0,0,1-1.81.2073,2.1949,2.1949,0,0,1-1.9838-.9354,3.7533,3.7533,0,0,1-.488-1.6626m-.378-5.7736a14.0593,14.0593,0,0,0-3.6207,1.039,3.4724,3.4724,0,0,0-2.2044,3.31A2.7621,2.7621,0,0,0,37.696,27.97a2.5864,2.5864,0,0,0,1.92.6976,2.75,2.75,0,0,0,2.803-1.7967,7.7183,7.7183,0,0,0,.3461-2.6713Z"/><path class="c" d="M59.247,15.886H63.53v1.2175L60.4443,17.03a4.3788,4.3788,0,0,1,.7865,2.538,4.1463,4.1463,0,0,1-2.0937,3.7251,13.271,13.271,0,0,1-3.4632,1.1731q-1.3855.3262-2.2044.5792-1.085.3414-1.0858.9938a.7314.7314,0,0,0,.63.728,15.4458,15.4458,0,0,0,2.2823.2518,20.217,20.217,0,0,1,5.0066.7577,3.9246,3.9246,0,0,1,2.015,1.573,3.1568,3.1568,0,0,1,.488,1.7219,3.8242,3.8242,0,0,1-.5035,1.8848,4.1228,4.1228,0,0,1-1.37,1.47,9.0693,9.0693,0,0,1-5.1165,1.3212,9.9855,9.9855,0,0,1-4.613-.98,4.0366,4.0366,0,0,1-1.5668-1.3734,3.331,3.331,0,0,1-.5581-1.863q0-2.2262,3.1015-3.2512a4.8134,4.8134,0,0,1-1.0079-.5035,1.5113,1.5113,0,0,1-.693-1.262q0-1.6919,3.48-2.4639a6.0315,6.0315,0,0,1-2.0783-1.01,4.0892,4.0892,0,0,1-1.6377-3.37,4.0515,4.0515,0,0,1,1.4646-3.31A6.433,6.433,0,0,1,55.9256,15.1a6.844,6.844,0,0,1,3.3214.7865m-3.9348,13.3a8.0631,8.0631,0,0,0-3.6526.7124,2.0144,2.0144,0,0,0-1.26,1.87,2.39,2.39,0,0,0,1.4483,2.1521,8.2423,8.2423,0,0,0,3.9364.8761,7.602,7.602,0,0,0,3.7306-.8169,2.3376,2.3376,0,0,0,1.3064-2.1373q0-2.6576-5.5094-2.6565m.44-13.3151A2.7318,2.7318,0,0,0,53.47,16.8955a4.4723,4.4723,0,0,0-.7865,2.7905,4.4755,4.4755,0,0,0,.6766,2.5684,2.6657,2.6657,0,0,0,2.393,1.202,2.628,2.628,0,0,0,2.361-1.1731,4.7781,4.7781,0,0,0,.6774-2.6565q0-3.7555-3.0384-3.7555"/><path class="c" d="M64.9617,16.2571v-.52a22.6616,22.6616,0,0,0,4.2669-.905,12.9334,12.9334,0,0,1,.33,2.6417A5.1524,5.1524,0,0,1,73.92,15.0847a4.4649,4.4649,0,0,1,3.92,1.87,5.733,5.733,0,0,1,.7873,3.31v7.3029a2.0143,2.0143,0,0,0,.1886,1.04q.3777.5343,2.1256.594v.608q-2.11-.1777-3.542-.1777-1.4335,0-3.48.1777V29.216a4.3916,4.3916,0,0,0,1.4958-.2526.9808.9808,0,0,0,.5823-.6836,3.0875,3.0875,0,0,0,.0475-.6672V20.1608a4.8923,4.8923,0,0,0-.488-2.5528A2.5984,2.5984,0,0,0,73.18,16.4653a3.2879,3.2879,0,0,0-2.7079,1.2316,4.1642,4.1642,0,0,0-.6454,2.5832v7.3326a1.9989,1.9989,0,0,0,.173.98q.3929.5788,1.9206.6236v.5932q-2.0625-.1777-3.4788-.1777-1.4019,0-3.5108.1777v-.608a6.0688,6.0688,0,0,0,1.6213-.2229.9623.9623,0,0,0,.6454-.7124,3.3819,3.3819,0,0,0,.0475-.6984v-9.41a9.2045,9.2045,0,0,0-.0631-1.0843q-.0947-.6524-.9447-.7569-.394-.0292-1.2752-.0592"/><path class="c" d="M91.708,27.33a6.5342,6.5342,0,0,1-1.2425,1.6182,4.4643,4.4643,0,0,1-3.086,1.039,4.7441,4.7441,0,0,1-3.18-1.0539,3.5725,3.5725,0,0,1-1.3064-2.85q0-2.73,3.6682-4.171a19.4745,19.4745,0,0,1,4.77-1.1427V18.9584a3.6523,3.6523,0,0,0-.488-2.1662,2.578,2.578,0,0,0-2.1724-.8909,3.4891,3.4891,0,0,0-2.1256.6376,1.381,1.381,0,0,0-.5511,1.1435v.2666c.0109.1785.0164.3274.0164.4459a1.1752,1.1752,0,0,1-1.3072,1.3508q-1.071,0-1.07-1.025A3.0244,3.0244,0,0,1,85.05,16.2724a6.33,6.33,0,0,1,3.8732-1.1879,6.1776,6.1776,0,0,1,2.8334.6384,3.5644,3.5644,0,0,1,1.9526,2.301,8.4187,8.4187,0,0,1,.205,2.0781v6.2047a6.5483,6.5483,0,0,0,.2354,2.0781.9754.9754,0,0,0,1.0235.6384,4.45,4.45,0,0,0,.8192-.1045v.8021a10.0282,10.0282,0,0,1-1.8115.2073,2.1966,2.1966,0,0,1-1.9838-.9354,3.7737,3.7737,0,0,1-.488-1.6626m-.3773-5.7736a14.0754,14.0754,0,0,0-3.6215,1.039,3.4728,3.4728,0,0,0-2.2036,3.31,2.7621,2.7621,0,0,0,.7561,2.0641,2.5858,2.5858,0,0,0,1.9206.6976A2.7485,2.7485,0,0,0,90.9847,26.87a7.7183,7.7183,0,0,0,.3461-2.6713Z"/><path class="c" d="M102.4772,9.1174v18.45a2.057,2.057,0,0,0,.1886,1.04q.3929.5343,2.1256.594v.608q-2.2987-.1777-3.6051-.1785t-3.6051.1785v-.608a6.03,6.03,0,0,0,1.6213-.2237.9612.9612,0,0,0,.6454-.7124,3.4476,3.4476,0,0,0,.0468-.6976V12.2346a2.7478,2.7478,0,0,0-.1886-1.2168,1.3484,1.3484,0,0,0-1.0858-.5347c-.2736-.0195-.6088-.03-1.0079-.03V9.9187a29.3242,29.3242,0,0,0,4.8647-.8013"/><path class="c" d="M111.34,14.8325V27.5676a2.0554,2.0554,0,0,0,.1894,1.04q.3929.5343,2.1256.594v.608q-2.3-.1777-3.6051-.1785-1.3084,0-3.6051.1785v-.608a6.0792,6.0792,0,0,0,1.6213-.2229.9649.9649,0,0,0,.6454-.7132,3.4476,3.4476,0,0,0,.0468-.6976v-9.619a2.7457,2.7457,0,0,0-.1886-1.216,1.313,1.313,0,0,0-1.0858-.52,9.0865,9.0865,0,0,0-1.0079-.0452v-.5191a28.7006,28.7006,0,0,0,4.8639-.8161m-1.37-5.3737a1.7077,1.7077,0,0,1,1.2129.4747,1.6168,1.6168,0,0,1,.0891,2.2848q-.0359.0388-.0743.0752a1.7446,1.7446,0,0,1-1.2441.4755,1.7121,1.7121,0,0,1-1.2425-.49,1.5078,1.5078,0,0,1-.52-1.1575,1.5677,1.5677,0,0,1,.5036-1.1879,1.8223,1.8223,0,0,1,1.2752-.4747"/><path class="c" d="M116.1889,30.0765V25h.7085a8.0338,8.0338,0,0,0,.7085,2.1233,3.5576,3.5576,0,0,0,1.4249,1.4319,4.1124,4.1124,0,0,0,2.0539.5277,3.6183,3.6183,0,0,0,2.4561-.8465,2.4422,2.4422,0,0,0,.8816-1.8848,2,2,0,0,0-1.039-1.7671,20.6072,20.6072,0,0,0-2.4086-1.1575q-1.9362-.8313-2.393-1.0539a3.4511,3.4511,0,0,1-2.188-3.2216,3.5489,3.5489,0,0,1,1.354-2.9238A5.4328,5.4328,0,0,1,121.2422,15.1a6.2351,6.2351,0,0,1,3.3066.9642l.5347-1.2464h.5675v4.72h-.7249q-.4092-3.5766-3.3845-3.577a3.1939,3.1939,0,0,0-2.2831.8317,2.2106,2.2106,0,0,0-.7709,1.6767,1.8785,1.8785,0,0,0,.6766,1.47,8.8063,8.8063,0,0,0,2.0469,1.0687q.3461.1485,2.0781.8605a7.9584,7.9584,0,0,1,2.33,1.3368,3.1293,3.1293,0,0,1,.9767,2.4343,3.9285,3.9285,0,0,1-1.3236,3.0127,5.4626,5.4626,0,0,1-3.8569,1.35,6.485,6.485,0,0,1-3.888-1.2752l-.7709,1.35Z"/><path class="c" d="M137.3315,28.1614v.9058a6.4072,6.4072,0,0,1-3.1335.9206,3.0973,3.0973,0,0,1-3.132-1.7219,4.74,4.74,0,0,1-.378-1.7367q-.0152-.2666-.0156-1.5434V16.48h-2.0149v-.9354a4.3464,4.3464,0,0,0,1.4163-.3118q1.7959-.8465,2.44-4.2006h.8036v4.3339h3.7462V16.48h-3.7462v8.8463a7.1757,7.1757,0,0,0,.283,2.4943,1.5865,1.5865,0,0,0,1.6221.979,5.1539,5.1539,0,0,0,2.1093-.6384"/><path class="c" d="M149.5164,25.0451h1.26a5.8434,5.8434,0,0,1-1.1809,2.9831,5.3714,5.3714,0,0,1-4.5186,1.9892,5.8418,5.8418,0,0,1-4.7385-1.9892,8.2865,8.2865,0,0,1-1.7788-5.507,8.16,8.16,0,0,1,1.7788-5.4478,6.0834,6.0834,0,0,1,8.2968-.6828q2.0309,1.7375,2.1256,5.8048h-9.5876c-.0109.2767-.0156.49-.0156.6376a9.279,9.279,0,0,0,.9439,4.3643,3.4433,3.4433,0,0,0,3.3221,1.8107,3.6624,3.6624,0,0,0,3.432-1.9152,5.9874,5.9874,0,0,0,.661-2.0477m-1.3384-3.934q-.2514-5.2545-3.337-5.2545-3.1335,0-3.6051,5.2545Z"/><path class="c" d="M153.0429,16.1235v-.52a24.5385,24.5385,0,0,0,4.25-.7124,24.3551,24.3551,0,0,1,.2993,2.8654,5.3867,5.3867,0,0,1,.9915-1.559,3.6644,3.6644,0,0,1,2.771-1.202,2.8733,2.8733,0,0,1,2.1256.7865,2.3225,2.3225,0,0,1,.6766,1.6774,1.52,1.52,0,0,1-.33,1.0235,1.2555,1.2555,0,0,1-1.0079.4466,1.5331,1.5331,0,0,1-.9447-.283.8691.8691,0,0,1-.3773-.7265,4.102,4.102,0,0,1,.11-.6532,1.1069,1.1069,0,0,0,.0312-.2526.6482.6482,0,0,0-.2666-.5347,1.1177,1.1177,0,0,0-.6782-.2081,2.5128,2.5128,0,0,0-2.2979,1.8411,8.0762,8.0762,0,0,0-.4879,3.0875v6.3676a2.0591,2.0591,0,0,0,.1886,1.04q.3625.5191,2.1256.5932V29.81q-2.2192-.1789-3.6051-.1785t-3.6051.1785v-.6088a6.0366,6.0366,0,0,0,1.6213-.2229.9624.9624,0,0,0,.6454-.7124,3.4351,3.4351,0,0,0,.0475-.6976V18.1128q-.0164-.8617-.0475-1.1427-.0947-.6688-.96-.7873c-.2837-.02-.7078-.04-1.2752-.0592"/><rect class="d" width="27.0222" height="25.9185"/><path class="e" d="M22.3583,16.1525a6.507,6.507,0,0,0-1.1334,1.3064,4.0089,4.0089,0,0,0-3.9356-2.3751,4.8671,4.8671,0,0,0-3.1171,1.0094A6.8273,6.8273,0,0,0,12.96,17.4144a12.7436,12.7436,0,0,0-.3149-2.598,21.844,21.844,0,0,1-4.2669.9206v.52a7.9493,7.9493,0,0,1,1.7484.1473.694.694,0,0,1,.488.6688q.03.297.0468,1.0827v7.7628h2.5824V20.3975a4.7624,4.7624,0,0,1,.55-2.5824,3.0179,3.0179,0,0,1,2.7079-1.336,2.3622,2.3622,0,0,1,2.1568,1.039,4.7655,4.7655,0,0,1,.4092,2.3306v6.07H21.65V20.0709q0-3.5918,3.1959-3.5918a2.4224,2.4224,0,0,1,2.1771.9759V15.2218a6.6641,6.6641,0,0,0-1.39-.138,4.8873,4.8873,0,0,0-3.2746,1.0687"/><rect class="c" x="60.0363" y="38.3442" width="0.7732" height="1.011"/><rect class="c" x="62.5953" y="38.3442" width="0.7732" height="1.011"/><rect class="c" x="65.1544" y="38.3442" width="0.7732" height="1.011"/><path class="c" d="M67.9536,32.5478V35.37h.0179a1.4293,1.4293,0,0,1,.2627-.4677,1.693,1.693,0,0,1,.3913-.3391,1.6741,1.6741,0,0,1,.4786-.2042,2.0506,2.0506,0,0,1,.5152-.067,2.0122,2.0122,0,0,1,.9439.21,1.9566,1.9566,0,0,1,.6672.5675,2.4494,2.4494,0,0,1,.396.8294,3.9222,3.9222,0,0,1,0,1.9924,2.4422,2.4422,0,0,1-.396.8294,1.9019,1.9019,0,0,1-.6672.5628,2.04,2.04,0,0,1-.9439.205,1.95,1.95,0,0,1-1.0352-.2767,1.5691,1.5691,0,0,1-.6587-.79h-.0187v.9338h-.5339V32.5478Zm3.1343,3.59a2.1473,2.1473,0,0,0-.2759-.6719,1.5518,1.5518,0,0,0-.4841-.4817,1.299,1.299,0,0,0-.7085-.1863,1.5165,1.5165,0,0,0-.7779.1863,1.5583,1.5583,0,0,0-.5152.4817,2.0234,2.0234,0,0,0-.2853.6719,3.3313,3.3313,0,0,0,0,1.5153,2.0139,2.0139,0,0,0,.2853.6727,1.5583,1.5583,0,0,0,.5152.4817,1.5165,1.5165,0,0,0,.7779.1855,1.2987,1.2987,0,0,0,.7085-.1855,1.5518,1.5518,0,0,0,.4841-.4817,2.1366,2.1366,0,0,0,.2759-.6727,3.3313,3.3313,0,0,0,0-1.5153"/><path class="c" d="M75.6259,34.5025a2.1112,2.1112,0,0,1,.7046.562,2.47,2.47,0,0,1,.4326.8247,3.5081,3.5081,0,0,1,0,2.0118,2.463,2.463,0,0,1-.4326.8247,2.0513,2.0513,0,0,1-.7046.5573,2.3591,2.3591,0,0,1-1.9238,0,2.0585,2.0585,0,0,1-.7046-.5573,2.463,2.463,0,0,1-.4326-.8247,3.5078,3.5078,0,0,1,0-2.0118,2.47,2.47,0,0,1,.4326-.8247,2.2223,2.2223,0,0,1,2.6284-.562m-1.6891.4763a1.6179,1.6179,0,0,0-.52.4763,2.2138,2.2138,0,0,0-.3133.6727,2.8305,2.8305,0,0,0,0,1.5348,2.2051,2.2051,0,0,0,.3133.6727,1.6005,1.6005,0,0,0,.52.4763,1.5528,1.5528,0,0,0,1.4545,0,1.6111,1.6111,0,0,0,.5207-.4763,2.2222,2.2222,0,0,0,.3126-.6727,2.8305,2.8305,0,0,0,0-1.5348,2.2309,2.2309,0,0,0-.3126-.6727,1.6287,1.6287,0,0,0-.5207-.4763,1.5528,1.5528,0,0,0-1.4545,0"/><path class="c" d="M80.7443,34.5025a2.1035,2.1035,0,0,1,.7046.562,2.4549,2.4549,0,0,1,.4318.8247,3.49,3.49,0,0,1,0,2.0118,2.4476,2.4476,0,0,1-.4318.8247,2.044,2.044,0,0,1-.7046.5573,2.3591,2.3591,0,0,1-1.9238,0,2.0585,2.0585,0,0,1-.7046-.5573,2.463,2.463,0,0,1-.4326-.8247,3.5078,3.5078,0,0,1,0-2.0118,2.47,2.47,0,0,1,.4326-.8247,2.2223,2.2223,0,0,1,2.6284-.562m-1.6891.4763a1.6179,1.6179,0,0,0-.52.4763,2.2138,2.2138,0,0,0-.3133.6727,2.8305,2.8305,0,0,0,0,1.5348,2.2051,2.2051,0,0,0,.3133.6727,1.6005,1.6005,0,0,0,.52.4763,1.5528,1.5528,0,0,0,1.4545,0,1.6191,1.6191,0,0,0,.5207-.4763,2.2222,2.2222,0,0,0,.3126-.6727,2.8305,2.8305,0,0,0,0-1.5348,2.2309,2.2309,0,0,0-.3126-.6727,1.6369,1.6369,0,0,0-.5207-.4763,1.5528,1.5528,0,0,0-1.4545,0"/><path class="c" d="M85.6278,35.3936a.9614.9614,0,0,0-.2713-.3391,1.1182,1.1182,0,0,0-.3913-.1949,1.7278,1.7278,0,0,0-.4692-.0624,1.88,1.88,0,0,0-.3913.0429,1.2,1.2,0,0,0-.364.1434.7886.7886,0,0,0-.2666.2627.736.736,0,0,0-.1021.4.5775.5775,0,0,0,.0967.3383.8653.8653,0,0,0,.2448.2338,1.524,1.524,0,0,0,.3219.1575c.1161.0405.2237.0741.3227.1l.7725.1808a2.1463,2.1463,0,0,1,.4926.1387,1.5858,1.5858,0,0,1,.4334.2627,1.2639,1.2639,0,0,1,.3079.4,1.2351,1.2351,0,0,1,.12.5628,1.2686,1.2686,0,0,1-.1754.6813,1.4454,1.4454,0,0,1-.4459.4576,1.8582,1.8582,0,0,1-.6119.2526,3.04,3.04,0,0,1-.6727.0764,2.13,2.13,0,0,1-1.3579-.4092,1.77,1.77,0,0,1-.594-1.3165h.5807a1.1982,1.1982,0,0,0,.4272.9206,1.5205,1.5205,0,0,0,.9712.31,2.1087,2.1087,0,0,0,.4381-.0475,1.3853,1.3853,0,0,0,.4186-.1614,1.0335,1.0335,0,0,0,.3173-.2907.7335.7335,0,0,0,.1239-.4342.7122.7122,0,0,0-.0873-.3679.7625.7625,0,0,0-.2346-.2471,1.4472,1.4472,0,0,0-.3352-.1668,3.968,3.968,0,0,0-.3819-.1146l-.7467-.1715a4.1167,4.1167,0,0,1-.5238-.1769,1.6646,1.6646,0,0,1-.4194-.2479,1.0236,1.0236,0,0,1-.2806-.3617,1.2342,1.2342,0,0,1-.1013-.53,1.2209,1.2209,0,0,1,.1606-.6384,1.2954,1.2954,0,0,1,.4186-.4287,1.9024,1.9024,0,0,1,.576-.2377,2.6684,2.6684,0,0,1,.6306-.0772,2.2464,2.2464,0,0,1,.668.0959,1.4987,1.4987,0,0,1,.5425.2954,1.4509,1.4509,0,0,1,.3734.4957,1.8371,1.8371,0,0,1,.1559.6953h-.5792a1.1746,1.1746,0,0,0-.1115-.4809"/><path class="c" d="M89.2093,34.4352V34.94h-.9666v3.3182a1.11,1.11,0,0,0,.0779.4622c.0522.1115.1832.1738.3913.1855a4.2635,4.2635,0,0,0,.4973-.0281v.5059c-.0857,0-.1723.0031-.258.0086s-.1723.01-.2572.01a1.1241,1.1241,0,0,1-.8107-.2338,1.21,1.21,0,0,1-.2206-.8629V34.94h-.8286v-.5051h.8286V32.9573h.58v1.4779Z"/><path class="c" d="M92.6888,34.4352,94.254,38.63l1.4639-4.1952h.58l-2.0625,5.6637c-.0857.2089-.1652.3827-.2385.52a1.1885,1.1885,0,0,1-.2448.3235.8008.8008,0,0,1-.3126.1715,1.6523,1.6523,0,0,1-.456.053c-.1161-.007-.2073-.0117-.2713-.0148a.5221.5221,0,0,1-.17-.0335v-.5051c.067.0125.1325.0242.1972.0335a1.3765,1.3765,0,0,0,.198.014.7665.7665,0,0,0,.318-.0569.6652.6652,0,0,0,.2159-.1575.9068.9068,0,0,0,.1567-.2432c.0429-.0959.0889-.2.138-.3149l.2027-.5527-1.8965-4.9006Z"/><path class="c" d="M99.8373,34.5025a2.1083,2.1083,0,0,1,.7039.562,2.47,2.47,0,0,1,.4326.8247,3.5081,3.5081,0,0,1,0,2.0118,2.463,2.463,0,0,1-.4326.8247,2.0484,2.0484,0,0,1-.7039.5573,2.3609,2.3609,0,0,1-1.9245,0,2.0484,2.0484,0,0,1-.7039-.5573,2.463,2.463,0,0,1-.4326-.8247,3.5078,3.5078,0,0,1,0-2.0118,2.47,2.47,0,0,1,.4326-.8247,2.2223,2.2223,0,0,1,2.6284-.562m-1.6891.4763a1.6206,1.6206,0,0,0-.5207.4763,2.194,2.194,0,0,0-.3126.6727,2.8305,2.8305,0,0,0,0,1.5348,2.1856,2.1856,0,0,0,.3126.6727,1.6032,1.6032,0,0,0,.5207.4763,1.5512,1.5512,0,0,0,1.4537,0,1.6109,1.6109,0,0,0,.5207-.4763,2.2052,2.2052,0,0,0,.3134-.6727,2.8508,2.8508,0,0,0,0-1.5348,2.2139,2.2139,0,0,0-.3134-.6727,1.6286,1.6286,0,0,0-.5207-.4763,1.5512,1.5512,0,0,0-1.4537,0"/><path class="c" d="M105.3,39.355v-.887h-.0179a1.69,1.69,0,0,1-.668.7584,1.8535,1.8535,0,0,1-.9712.2619,2.0413,2.0413,0,0,1-.7678-.1286,1.2773,1.2773,0,0,1-.516-.3671,1.5237,1.5237,0,0,1-.2907-.5815,3.0544,3.0544,0,0,1-.0912-.7818V34.4349h.5792v3.2044a1.6412,1.6412,0,0,0,.2993,1.01,1.4563,1.4563,0,0,0,1.6166.1762,1.3862,1.3862,0,0,0,.4412-.4435,2.0422,2.0422,0,0,0,.258-.6337,3.2172,3.2172,0,0,0,.0826-.73v-2.584h.5807v4.92Z"/><path class="c" d="M107.4639,34.4352v1.1536h.0179a1.89,1.89,0,0,1,.6859-.9245,1.7485,1.7485,0,0,1,1.11-.2954v.601a1.6913,1.6913,0,0,0-.7187.1091,1.6119,1.6119,0,0,0-.5566.3671,1.6566,1.6566,0,0,0-.3632.5667,1.9464,1.9464,0,0,0-.1286.72V39.355H106.93v-4.92Z"/><path class="c" d="M112.3428,34.6073a3.3918,3.3918,0,0,1,.58-1.13,2.8139,2.8139,0,0,1,.9712-.7818,3.3052,3.3052,0,0,1,2.711,0,2.8188,2.8188,0,0,1,.9665.7818,3.3918,3.3918,0,0,1,.58,1.13,4.77,4.77,0,0,1,0,2.6884,3.3393,3.3393,0,0,1-.58,1.1256,2.8407,2.8407,0,0,1-.9665.7764,3.3052,3.3052,0,0,1-2.711,0,2.8358,2.8358,0,0,1-.9712-.7764,3.3393,3.3393,0,0,1-.58-1.1256,4.77,4.77,0,0,1,0-2.6884m.5753,2.4359a2.9724,2.9724,0,0,0,.442.9627,2.2274,2.2274,0,0,0,.7686.6813,2.2975,2.2975,0,0,0,1.1232.2572,2.1847,2.1847,0,0,0,1.8825-.9385,2.9727,2.9727,0,0,0,.442-.9627,4.27,4.27,0,0,0,0-2.1888,2.9743,2.9743,0,0,0-.442-.9572,2.1828,2.1828,0,0,0-1.8825-.9393,2.3062,2.3062,0,0,0-1.1232.2572,2.2374,2.2374,0,0,0-.7686.682,2.974,2.974,0,0,0-.442.9572,4.2691,4.2691,0,0,0,0,2.1888"/><path class="c" d="M119.78,34.4352v.8489h.0187a1.4314,1.4314,0,0,1,.5893-.72,1.69,1.69,0,0,1,.93-.272,2.2757,2.2757,0,0,1,.8333.1341,1.3159,1.3159,0,0,1,.5378.3765,1.439,1.439,0,0,1,.2861.5955,3.4713,3.4713,0,0,1,.0826.792v3.1655h-.58v-3.07a2.9025,2.9025,0,0,0-.0553-.5862,1.2623,1.2623,0,0,0-.1933-.4716.9593.9593,0,0,0-.3726-.3157,1.34,1.34,0,0,0-.5846-.1138,1.438,1.438,0,0,0-.622.1286,1.3532,1.3532,0,0,0-.46.3531,1.6231,1.6231,0,0,0-.2946.5339,2.2546,2.2546,0,0,0-.1154.6719v2.87h-.5792v-4.92Z"/><rect class="c" x="124.1625" y="32.548" width="0.5799" height="6.8072"/><path class="c" d="M126.4456,33.5106h-.58V32.548h.58Zm0,5.8445h-.58v-4.92h.58Z"/><path class="c" d="M128.1292,34.4352v.8489h.0187a1.4314,1.4314,0,0,1,.5893-.72,1.69,1.69,0,0,1,.93-.272,2.2757,2.2757,0,0,1,.8333.1341,1.3159,1.3159,0,0,1,.5378.3765,1.4391,1.4391,0,0,1,.2861.5955,3.4713,3.4713,0,0,1,.0826.792v3.1655h-.58v-3.07a2.903,2.903,0,0,0-.0553-.5862,1.2623,1.2623,0,0,0-.1933-.4716.9593.9593,0,0,0-.3726-.3157,1.34,1.34,0,0,0-.5846-.1138,1.438,1.438,0,0,0-.622.1286,1.3533,1.3533,0,0,0-.46.3531,1.6231,1.6231,0,0,0-.2946.5339,2.2546,2.2546,0,0,0-.1154.6719v2.87H127.55v-4.92Z"/><path class="c" d="M132.93,37.7294a1.9035,1.9035,0,0,0,.2814.6244,1.6113,1.6113,0,0,0,.4879.4576,1.3247,1.3247,0,0,0,.7086.1816,1.3766,1.3766,0,0,0,.9938-.3438,1.8118,1.8118,0,0,0,.4973-.9151h.58a2.4189,2.4189,0,0,1-.6766,1.2963,1.9706,1.9706,0,0,1-1.3945.4576,2.148,2.148,0,0,1-.9712-.2042,1.8006,1.8006,0,0,1-.668-.5628,2.517,2.517,0,0,1-.3819-.8294,3.9453,3.9453,0,0,1-.1239-.9962,3.7325,3.7325,0,0,1,.1239-.9533,2.6457,2.6457,0,0,1,.3819-.8348,1.95,1.95,0,0,1,.668-.5908,1.9978,1.9978,0,0,1,.9712-.2245,1.9,1.9,0,0,1,.9759.2385,1.9759,1.9759,0,0,1,.6587.6251,2.6336,2.6336,0,0,1,.3625.8863,4.0365,4.0365,0,0,1,.0928,1.0157h-3.655a2.7434,2.7434,0,0,0,.0873.6719m2.8724-1.8357a1.8328,1.8328,0,0,0-.2993-.5573,1.4983,1.4983,0,0,0-.4693-.3913,1.3088,1.3088,0,0,0-.6259-.1473,1.329,1.329,0,0,0-.6353.1473,1.4983,1.4983,0,0,0-.4693.3913,1.941,1.941,0,0,0-.3087.5628,2.84,2.84,0,0,0-.152.6532h3.0743a2.2127,2.2127,0,0,0-.1146-.6587"/><path class="c" d="M140.4008,37.9916a1.4322,1.4322,0,0,0,.456.5628,1.8611,1.8611,0,0,0,.6859.2993,3.7208,3.7208,0,0,0,.8473.0912,2.3218,2.3218,0,0,0,.56-.0764,1.9148,1.9148,0,0,0,.5667-.2432,1.4719,1.4719,0,0,0,.4381-.4287,1.1189,1.1189,0,0,0,.1738-.6345.9593.9593,0,0,0-.1239-.4957,1.159,1.159,0,0,0-.3219-.3523,1.854,1.854,0,0,0-.4381-.2331,3.9439,3.9439,0,0,0-.4685-.1481l-1.4639-.3718a4.35,4.35,0,0,1-.5573-.191,1.58,1.58,0,0,1-.4739-.3048,1.4438,1.4438,0,0,1-.3266-.4677,1.6346,1.6346,0,0,1-.1239-.6766,2.2477,2.2477,0,0,1,.0912-.5815,1.6361,1.6361,0,0,1,.3453-.63,2.0094,2.0094,0,0,1,.6953-.5,2.692,2.692,0,0,1,1.1326-.2058,3.2,3.2,0,0,1,.9291.1341,2.2446,2.2446,0,0,1,.7732.4007,1.96,1.96,0,0,1,.5293.6618,2.0289,2.0289,0,0,1,.198.9206h-.6259a1.6268,1.6268,0,0,0-.17-.682,1.51,1.51,0,0,0-.396-.4856,1.7226,1.7226,0,0,0-.562-.2962,2.2178,2.2178,0,0,0-.6665-.1,2.6287,2.6287,0,0,0-.622.0717,1.5111,1.5111,0,0,0-.5246.2284,1.1667,1.1667,0,0,0-.364.4147,1.34,1.34,0,0,0-.138.6384,1.0054,1.0054,0,0,0,.0787.4155.8634.8634,0,0,0,.2159.3,1.1358,1.1358,0,0,0,.3172.2,2.34,2.34,0,0,0,.3827.1239l1.6011.41a4.5488,4.5488,0,0,1,.6587.2331,2.17,2.17,0,0,1,.5433.3438,1.45,1.45,0,0,1,.3679.5,1.7293,1.7293,0,0,1,.1341.7156,2.8291,2.8291,0,0,1-.0234.3048,1.592,1.592,0,0,1-.1107.4053,2.0271,2.0271,0,0,1-.2479.4334,1.5779,1.5779,0,0,1-.4428.396,2.5137,2.5137,0,0,1-.6945.2853,3.9248,3.9248,0,0,1-.9946.11,4.016,4.016,0,0,1-1.0772-.138,2.2845,2.2845,0,0,1-.8465-.4248,1.8522,1.8522,0,0,1-.5386-.7335,2.4949,2.4949,0,0,1-.1614-1.0772h.6267a1.9722,1.9722,0,0,0,.1559.8769"/><path class="c" d="M146.21,32.5475v2.7368h.0187a1.4314,1.4314,0,0,1,.5893-.72,1.6838,1.6838,0,0,1,.93-.272,2.2757,2.2757,0,0,1,.8333.1341,1.3086,1.3086,0,0,1,.5378.3765,1.4343,1.4343,0,0,1,.2861.5955,3.4713,3.4713,0,0,1,.0826.792v3.1647h-.58v-3.07a2.892,2.892,0,0,0-.0553-.5862,1.257,1.257,0,0,0-.1933-.4716.9593.9593,0,0,0-.3726-.3157,1.34,1.34,0,0,0-.5846-.1138,1.4268,1.4268,0,0,0-.622.1286,1.3435,1.3435,0,0,0-.46.3531,1.627,1.627,0,0,0-.2946.5332,2.2643,2.2643,0,0,0-.1154.6727v2.8693h-.58V32.5475Z"/><path class="c" d="M153.5514,34.5025a2.1082,2.1082,0,0,1,.7039.562,2.47,2.47,0,0,1,.4326.8247,3.5081,3.5081,0,0,1,0,2.0118,2.463,2.463,0,0,1-.4326.8247,2.0483,2.0483,0,0,1-.7039.5573,2.3609,2.3609,0,0,1-1.9245,0,2.0483,2.0483,0,0,1-.7039-.5573,2.463,2.463,0,0,1-.4326-.8247,3.5081,3.5081,0,0,1,0-2.0118,2.47,2.47,0,0,1,.4326-.8247,2.2223,2.2223,0,0,1,2.6284-.562m-1.6891.4763a1.6206,1.6206,0,0,0-.5207.4763,2.1942,2.1942,0,0,0-.3126.6727,2.8307,2.8307,0,0,0,0,1.5348,2.1856,2.1856,0,0,0,.3126.6727,1.6032,1.6032,0,0,0,.5207.4763,1.5512,1.5512,0,0,0,1.4537,0,1.611,1.611,0,0,0,.5207-.4763,2.2052,2.2052,0,0,0,.3134-.6727,2.8508,2.8508,0,0,0,0-1.5348,2.214,2.214,0,0,0-.3134-.6727,1.6285,1.6285,0,0,0-.5207-.4763,1.5512,1.5512,0,0,0-1.4537,0"/><path class="c" d="M156.2347,34.4349V35.37h.0179a1.59,1.59,0,0,1,.6587-.7966,1.936,1.936,0,0,1,1.0352-.2814,2.0122,2.0122,0,0,1,.9439.21,1.9593,1.9593,0,0,1,.668.5675,2.4482,2.4482,0,0,1,.3952.8294,3.9222,3.9222,0,0,1,0,1.9924,2.441,2.441,0,0,1-.3952.8294,1.9044,1.9044,0,0,1-.668.5628,2.1869,2.1869,0,0,1-1.4592.1387,1.8077,1.8077,0,0,1-.4786-.2,1.57,1.57,0,0,1-.3913-.3344,1.4223,1.4223,0,0,1-.2619-.4661h-.0187V41.167h-.58V34.4349Zm3.18,1.7024a2.1111,2.1111,0,0,0-.2759-.6719,1.5494,1.5494,0,0,0-.4833-.4817,1.3017,1.3017,0,0,0-.7093-.1863,1.6756,1.6756,0,0,0-.8005.1723,1.3957,1.3957,0,0,0-.5152.4576,1.84,1.84,0,0,0-.272.6672,4.0263,4.0263,0,0,0-.078.8013,3.3614,3.3614,0,0,0,.0873.7569,2.0141,2.0141,0,0,0,.2853.6727,1.5609,1.5609,0,0,0,.516.4817,1.5155,1.5155,0,0,0,.7771.1855,1.3014,1.3014,0,0,0,.7093-.1855,1.5491,1.5491,0,0,0,.4833-.4817,2.1007,2.1007,0,0,0,.2759-.6727,3.3311,3.3311,0,0,0,0-1.5153"/></g></g></svg>