<svg width="17" height="18" viewBox="0 0 17 18" fill="none" xmlns="http://www.w3.org/2000/svg">
<g id="Ebene 5">
<g id="Group">
<path id="Vector" d="M4.6607 6.89255C4.6607 6.89255 4.77649 6.89255 4.85368 6.89255C5.31684 6.89255 5.70281 6.58378 5.8186 6.12062L6.66772 1.99078C6.78351 1.45043 6.43614 0.948673 5.93439 0.832883L1.95894 0.0223548C1.45718 -0.093435 0.916832 0.253934 0.801042 0.75569C0.685252 1.29604 1.03262 1.7978 1.53438 1.91359L3.34842 2.29955C-0.0866794 4.96272 -1.05159 9.94168 1.2642 13.6856C2.19052 15.1908 3.58 16.3101 5.27825 16.9277C5.39404 16.9663 5.50983 17.0049 5.62562 17.0049C6.01158 17.0049 6.39755 16.7733 6.51334 16.3873C6.70632 15.8856 6.43614 15.3452 5.93439 15.1522C4.6607 14.6891 3.61859 13.8399 2.88526 12.682C1.14841 9.90308 1.80455 6.19781 4.23614 4.075L3.88877 5.73465C3.77298 6.275 4.12035 6.77676 4.62211 6.89255H4.6607Z" fill="#B4B4B4"/>
<path id="Vector_2" d="M14.5801 16.1558L12.766 15.7698C16.2397 13.1067 17.2046 8.0891 14.8888 4.38383C13.9625 2.87856 12.573 1.75926 10.8748 1.14172C10.373 0.948733 9.83268 1.21891 9.6397 1.72067C9.44671 2.22242 9.71689 2.76277 10.2186 2.95576C11.4923 3.41892 12.5344 4.26804 13.2678 5.42594C15.0046 8.20489 14.3485 11.9102 11.9169 13.9944L12.2643 12.3347C12.3801 11.7944 12.0327 11.2926 11.5309 11.1768C11.0292 11.061 10.4888 11.4084 10.373 11.9102L9.52391 16.04C9.48531 16.2716 9.52391 16.5418 9.67829 16.7733C9.83268 17.0049 10.0257 17.1207 10.2958 17.1979L14.2327 18.0084C14.2327 18.0084 14.3485 18.0084 14.4257 18.0084C14.8888 18.0084 15.2748 17.6997 15.3906 17.2365C15.5064 16.6961 15.159 16.1944 14.6573 16.0786L14.5801 16.1558Z" fill="#B4B4B4"/>
</g>
</g>
</svg>
