<svg width="18" height="16" viewBox="0 0 18 16" fill="none" xmlns="http://www.w3.org/2000/svg">
<g id="Ebene 3">
<g id="Group">
<path id="Vector" d="M6.36839 2.5473L7.68067 9.49469H17.986V3.08765L6.36839 2.5473Z" fill="#B4B4B4"/>
<path id="Vector_2" d="M17.0597 11.8492H5.7123L3.31931 1.35088H0V0H4.40001L6.793 10.4983H17.0597V11.8492Z" fill="#B4B4B4"/>
<path id="Vector_3" d="M7.48773 15.4C8.3617 15.4 9.07019 14.6915 9.07019 13.8175C9.07019 12.9436 8.3617 12.2351 7.48773 12.2351C6.61377 12.2351 5.90527 12.9436 5.90527 13.8175C5.90527 14.6915 6.61377 15.4 7.48773 15.4Z" fill="#B4B4B4"/>
<path id="Vector_4" d="M15.0913 15.4C15.9652 15.4 16.6737 14.6915 16.6737 13.8175C16.6737 12.9436 15.9652 12.2351 15.0913 12.2351C14.2173 12.2351 13.5088 12.9436 13.5088 13.8175C13.5088 14.6915 14.2173 15.4 15.0913 15.4Z" fill="#B4B4B4"/>
</g>
</g>
</svg>
