<svg width="62" height="14" viewBox="0 0 62 14" fill="none" xmlns="http://www.w3.org/2000/svg">
<g id="Ebene 2">
<path id="Vector" d="M15.786 7.9123V9.95792H13.4702V7.9123H11.4246V5.59651H13.4702V0H7.9123V5.59651H9.95792V7.9123H7.9123V9.95792H5.59651V7.9123H0V13.4702H5.59651V11.4246H7.9123V13.4702H13.4702V11.4246H15.786V13.4702H21.3825V7.9123H15.786Z" fill="#B4B4B4"/>
<path id="Vector_2" d="M55.786 7.9123V9.95792H53.4702V7.9123H51.4246V5.59651H53.4702V0H47.9123V5.59651H49.9579V7.9123H47.9123V9.95792H45.5965V7.9123H40V13.4702H45.5965V11.4246H47.9123V13.4702H53.4702V11.4246H55.786V13.4702H61.3825V7.9123H55.786Z" fill="#B4B4B4" fill-opacity="0.5"/>
</g>
</svg>
