<svg xmlns="http://www.w3.org/2000/svg" width="52.1951" height="14.1535" viewBox="0 0 52.1951 14.1535"><defs><style>.a{fill:#ffa711;}.a,.b{fill-rule:evenodd;}.b{fill:#71bd1f;}</style></defs><title>hood</title><path class="a" d="M3.4047,13.8851l.57-2.9955a7.2518,7.2518,0,0,1,.4061-1.2622,8.3841,8.3841,0,0,1,.6466-1.24,4.9913,4.9913,0,0,1,.6879-.8717.9583.9583,0,0,1,.5612-.3267c.1235-.0063.2029.0633.2377.2029a1.9493,1.9493,0,0,1-.0474.7294L5.3638,13.8851H8.7687l.49-2.5934a2.9882,2.9882,0,0,0,.84,1.8833,4.55,4.55,0,0,0,3.1418.9385,5.7939,5.7939,0,0,0,3.4429-1.1381,6.0162,6.0162,0,0,0,1.8472-2.237,3.2987,3.2987,0,0,0,.8719,2.4368,4.549,4.549,0,0,0,3.1416.9385,5.7953,5.7953,0,0,0,3.4429-1.1381A6.0224,6.0224,0,0,0,27.82,10.77q-.0043.14-.0041.2819a3.72,3.72,0,0,0,.6054,2.3174c.8377,1.0708,2.5456.8958,3.5919.2441a5.0083,5.0083,0,0,0,1.5088-1.5155H33.56a8.6,8.6,0,0,0-.5707,1.788H36.28C37.0209,9.24,37.9622,4.6226,38.8387,0H35.4394l-.7948,4.2415a6.5608,6.5608,0,0,0-2.8216.32,5.553,5.553,0,0,0-3.0053,2.4855,6.71,6.71,0,0,0-.3192.62,4.47,4.47,0,0,0-.2-1.3463A2.82,2.82,0,0,0,26.4028,4.47a6.3386,6.3386,0,0,0-3.6425,0,5.8313,5.8313,0,0,0-2.9734,2.0985,5.7324,5.7324,0,0,0-.5936.99,3.37,3.37,0,0,0-.867-2.3527,4.3281,4.3281,0,0,0-3.1069-1.0017,5.9586,5.9586,0,0,0-3.3918,1.0588,5.8514,5.8514,0,0,0-1.8161,2.0524l.0127-.068a4.41,4.41,0,0,0,.0794-1.1857,1.87,1.87,0,0,0-.9956-1.6326,3.4583,3.4583,0,0,0-2.5806.0127,4.095,4.095,0,0,0-1.54,1.1349C5.341,3.7171,5.7,1.8607,6.0487,0H2.644L0,13.8855H3.4047v0ZM34.1119,7.0184l-.0763.3995a5.8838,5.8838,0,0,1-.2915.9925,8.1679,8.1679,0,0,1-.9985,1.8672c-.2106.2845-.665.8413-1.05.85-.3682,0-.3645-.477-.3617-.7417a5.0008,5.0008,0,0,1,.3776-1.8421c.3017-.7346.8691-1.6092,1.7529-1.62a2.1373,2.1373,0,0,1,.647.0951ZM15.5488,8.9333a3.42,3.42,0,0,1-.596,1.471,1.6084,1.6084,0,0,1-1.3124.6846.7614.7614,0,0,1-.783-.469,3.5521,3.5521,0,0,1,.2188-2.0039,2.4094,2.4094,0,0,1,.91-1.2141,1.2739,1.2739,0,0,1,1.43.0477,2.0367,2.0367,0,0,1,.1331,1.4839Zm9.3734-.7546a4.3331,4.3331,0,0,1-.2854,1.5347,2.2568,2.2568,0,0,1-.9385,1.1853,1.3687,1.3687,0,0,1-1.2712.0571.8884.8884,0,0,1-.3392-.7989,4.4625,4.4625,0,0,1,.2919-1.541,1.8724,1.8724,0,0,1,1.61-1.4076c.6715,0,.945.3057.932.97Z"/><path class="b" d="M49.9151,9.347a.5945.5945,0,0,1-.1935.4568,1.14,1.14,0,0,1-.5139.2415,3.32,3.32,0,0,1-.7291.0792,3.1934,3.1934,0,0,1,.1494-.3911,1.823,1.823,0,0,1,.22-.3558,1.0153,1.0153,0,0,1,.2988-.2592.7721.7721,0,0,1,.3866-.101.4066.4066,0,0,1,.29.09.3158.3158,0,0,1,.0923.24Zm-5.7607-.1317-.0527.2766a4.0625,4.0625,0,0,1-.2025.6877,5.7074,5.7074,0,0,1-.316.69,5.1334,5.1334,0,0,1-.3755.6039,2.5105,2.5105,0,0,1-.3866.4262.581.581,0,0,1-.34.1625.2.2,0,0,1-.2-.1274,1.04,1.04,0,0,1-.0506-.3866,3.0947,3.0947,0,0,1,.0682-.6348,3.4811,3.4811,0,0,1,.1935-.6413A2.7814,2.7814,0,0,1,42.8,9.705a1.5353,1.5353,0,0,1,.4082-.4019.9077.9077,0,0,1,.4988-.1537,1.627,1.627,0,0,1,.2437.0176,1.4886,1.4886,0,0,1,.2041.0484ZM47.436,4.3522H45.0766L44.5234,7.291c-.1033-.0131-.1845-.02-.2417-.0242-.06-.0021-.11-.0021-.1539-.0021a4.7335,4.7335,0,0,0-1.5594.2484,3.7888,3.7888,0,0,0-1.2124.6852,3.9952,3.9952,0,0,0-.87,1.0369,4.9251,4.9251,0,0,0-.52,1.2981,3.649,3.649,0,0,0,.2457,3.0816,1.4656,1.4656,0,0,0,1.2279.5295,2.3661,2.3661,0,0,0,1.261-.36,3.4738,3.4738,0,0,0,1.0454-1.05h.0261c-.0923.2153-.1711.4239-.2372.6238a4.9948,4.9948,0,0,0-.158.615h2.28c.0657-.4129.1294-.81.1935-1.1948q.05-.3013.1021-.6046a3.0479,3.0479,0,0,0,.1037.5562,1.7611,1.7611,0,0,0,1.1748,1.23,3.7176,3.7176,0,0,0,1.1953.1712,7.9636,7.9636,0,0,0,.9046-.0526,8.4555,8.4555,0,0,0,1.81-.3954V11.8773a6.4722,6.4722,0,0,1-1.0038.2921,4.9984,4.9984,0,0,1-.9862.1031,2.0491,2.0491,0,0,1-.5446-.0549.45.45,0,0,1-.2682-.167.5218.5218,0,0,1-.07-.2921V11.6a7.91,7.91,0,0,0,1.5529-.167,4.1708,4.1708,0,0,0,1.2455-.4613,2.2737,2.2737,0,0,0,.8279-.7905,2.1739,2.1739,0,0,0,.3013-1.151,1.9011,1.9011,0,0,0-.0988-.6152,1.45,1.45,0,0,0-.3645-.5689,1.8862,1.8862,0,0,0-.7381-.42,3.9286,3.9286,0,0,0-1.21-.1625,3.5487,3.5487,0,0,0-1.1026.178,3.7764,3.7764,0,0,0-1.0434.54,3.8689,3.8689,0,0,0-.874.8985,3.7588,3.7588,0,0,0-.2768.4529l.9495-4.9819Z"/><path class="b" d="M38.5578,11.2789A1.4373,1.4373,0,1,1,37.12,12.7164a1.4373,1.4373,0,0,1,1.4377-1.4375Z"/></svg>