<svg xmlns="http://www.w3.org/2000/svg" xmlns:xlink="http://www.w3.org/1999/xlink" width="49.1666" height="10.5578" viewBox="0 0 49.1666 10.5578"><defs><style>.a{fill:none;}.b{clip-path:url(#a);}.c{fill:#414141;}</style><clipPath id="a"><rect class="a" width="49.1666" height="10.5577"/></clipPath></defs><title>ricardo_inactive</title><g class="b"><g class="b"><path class="c" d="M9.1771,10.3953V4.1493A.7846.7846,0,0,1,9.48,3.4479a1.3811,1.3811,0,0,1,.76-.192,1.7158,1.7158,0,0,1,.9746.3027v6.8367Z"/><path class="c" d="M21.9964,7.166l-.0105.0055a1.0172,1.0172,0,0,0-.5759.9229c0,.598.4725,1.0779,1.55,1.1074l.0758.0017a8.0839,8.0839,0,0,0,1.3786-.0828L24.4076,7.92V7.8582a1.1413,1.1413,0,0,0-.5981-.62,2.2334,2.2334,0,0,0-1.813-.072M24.2,3.15A2.813,2.813,0,0,1,26.423,6.1526v4.2749c0-.0074-1.382.0938-2.7565.11l-.1242.0012a5.0791,5.0791,0,0,1-3.225-.7021,2.1688,2.1688,0,0,1-.8341-1.7058l0-.0219a2.0457,2.0457,0,0,1,1.0485-1.8752,3.9326,3.9326,0,0,1,3.8833,0V5.813c0-.4725-.3321-1.3141-1.9047-1.3141a2.935,2.935,0,0,0-.6965.0864,4.93,4.93,0,0,0-1.272.4508l-.0166-.0172a1.1569,1.1569,0,0,1-.3258-.7932.8718.8718,0,0,1,.2271-.5752A4.2466,4.2466,0,0,1,24.2,3.15"/><path class="c" d="M36.7485,4.6956a1.5352,1.5352,0,0,0-1.2031.5068L35.53,5.22a2.0436,2.0436,0,0,0-.48,1.5282,2.4043,2.4043,0,0,0,.5832,1.5948,2.0606,2.0606,0,0,0,1.58.5759l.0586,0a5.6974,5.6974,0,0,0,.9629-.0719l.0047-.0018V5.6924l-.0045-.0141a1.5079,1.5079,0,0,0-1.4868-.9827M39.2956.5538A1.768,1.768,0,0,1,40.26.84l.0025.0018-.0074,9.5831-.2594.0184c-.4886.0333-1.5753.1-2.45.1A4.7194,4.7194,0,0,1,34.157,9.5315,3.7105,3.7105,0,0,1,33.02,6.6241V6.5856a3.791,3.791,0,0,1,1.03-2.58l.0256-.026a3.1848,3.1848,0,0,1,2.2813-.96,2.4414,2.4414,0,0,1,1.8593.7338L38.24,3.78V1.4471a.7846.7846,0,0,1,.3028-.7014,1.3547,1.3547,0,0,1,.753-.1919"/><path class="c" d="M30.975,3.027a2.9328,2.9328,0,0,1,1.1369.192l.0223.01A.9787.9787,0,0,1,32.76,3.99l.0015.0186a1.0781,1.0781,0,0,1-.3424.93,3.145,3.145,0,0,0-1.8263-.1824l-.0355.0055,0,.001a1.6773,1.6773,0,0,0-.6755.2353v5.4339H27.8372V3.7653l.0162-.01a6.1145,6.1145,0,0,1,3.1216-.728"/><path class="c" d="M45.2684,4.607a1.7236,1.7236,0,0,0-.7826.17,1.7947,1.7947,0,0,0-.5758.45,1.9233,1.9233,0,0,0-.3544.6792,3.16,3.16,0,0,0-.1181.8564,2.8945,2.8945,0,0,0,.1181.8565,1.9217,1.9217,0,0,0,.3544.6792,1.5781,1.5781,0,0,0,.5516.4387l.0242.0117a1.7688,1.7688,0,0,0,.7826.17,1.7416,1.7416,0,0,0,.7625-.1595l.02-.01a1.7922,1.7922,0,0,0,.5758-.45,1.9217,1.9217,0,0,0,.3544-.6792,2.8945,2.8945,0,0,0,.1181-.8565,2.93,2.93,0,0,0-.1181-.8564,1.9233,1.9233,0,0,0-.3544-.6792,1.5847,1.5847,0,0,0-.5758-.45,1.6735,1.6735,0,0,0-.7827-.17m.0074-1.6243a4.3078,4.3078,0,0,1,1.61.2954,3.9266,3.9266,0,0,1,1.2256.8047,3.3142,3.3142,0,0,1,.79,1.2035A4.1321,4.1321,0,0,1,49.1666,6.77a4.2374,4.2374,0,0,1-.2657,1.484,3.5783,3.5783,0,0,1-2.0156,2.0083,4.5339,4.5339,0,0,1-3.219,0,3.9375,3.9375,0,0,1-1.1986-.7787l-.0269-.0261a3.2538,3.2538,0,0,1-.79-1.2035A3.9524,3.9524,0,0,1,41.385,6.77a4.2369,4.2369,0,0,1,.2658-1.4839,3.5862,3.5862,0,0,1,.79-1.2035,3.6452,3.6452,0,0,1,1.1914-.7909l.0341-.0138a4.1663,4.1663,0,0,1,1.6095-.2954"/><path class="c" d="M14.6659,3.2781a4.9678,4.9678,0,0,1,2.91-.0783l.0132.0045a2.0193,2.0193,0,0,1,1.1222.7382A1.1035,1.1035,0,0,1,18.5567,5.22a1.6866,1.6866,0,0,1-.1749.158l-.0063-.0046A3.4811,3.4811,0,0,0,17,4.753a2.94,2.94,0,0,0-.6434-.0574,1.9473,1.9473,0,0,0-1.4175.5389,2.0814,2.0814,0,0,0-.5464,1.5431,2.2262,2.2262,0,0,0,.539,1.543l.0172.02a1.7768,1.7768,0,0,0,1.3339.534l.04,0a2.6733,2.6733,0,0,0,1.1632-.2654,2.1544,2.1544,0,0,0,.5339-.35l.0051-.0049.93,1.3584-.013.0116a3.2761,3.2761,0,0,1-.9907.5736l-.1885.0659a4.955,4.955,0,0,1-1.6274.2717h-.03a3.9106,3.9106,0,0,1-2.6431-.9671A3.8264,3.8264,0,0,1,12.65,8.3872a4.0661,4.0661,0,0,1-.2953-1.61A4.0608,4.0608,0,0,1,12.65,5.205a3.6226,3.6226,0,0,1,.8121-1.1812,3.3721,3.3721,0,0,1,1.2034-.7457"/><path class="c" d="M10.1959,2.5545A1.2773,1.2773,0,1,0,8.9187,1.2773a1.2772,1.2772,0,0,0,1.2772,1.2772"/><path class="c" d="M7.966,10.3184A4.6919,4.6919,0,0,0,6.29,6.401a2.6829,2.6829,0,0,0,1.388-2.5655C7.5676,1.6059,5.6627.65,3.2042.7678A5.7755,5.7755,0,0,0,0,1.5874v8.8005H2.0451L2.06,6.8l.0526-.0013a7.9707,7.9707,0,0,1,1.5052.0972,2.5788,2.5788,0,0,1,1.1148.4135,3.5525,3.5525,0,0,1,1.196,3.0353v.0508H7.9662ZM4.7472,5.205a6.96,6.96,0,0,1-2.6364.074l-.0583-.0075L2.0451,2.6948l.0166-.0094a3.7673,3.7673,0,0,1,1.652-.2933c1.8309,0,1.949,1.2182,1.949,1.4766A1.3313,1.3313,0,0,1,4.7472,5.205"/></g></g></svg>