<svg xmlns="http://www.w3.org/2000/svg" width="43.77" height="14.4864" viewBox="0 0 43.77 14.4864"><defs><style>.a{fill:#414141;}</style></defs><title>google_shopping_inactive</title><path class="a" d="M0,4.3489A5.662,5.662,0,0,1,5.9479.0173a5.406,5.406,0,0,1,2.996,1.1783.8648.8648,0,0,1,.324.3663L8.14,2.5328A4.9563,4.9563,0,0,0,6.87,1.7842,3.98,3.98,0,0,0,1.6058,4.7616a3.9909,3.9909,0,0,0,2.826,4.7771A3.7514,3.7514,0,0,0,8.3569,8.524a2.6038,2.6038,0,0,0,.705-1.8716H5.5049V5.1589H10.596a4.9732,4.9732,0,0,1-2.2617,5.3595A5.6936,5.6936,0,0,1,0,6.9021"/><path class="a" d="M29.6976,14.4864c-.1034-.1354-.27-.1237-.41-.1714a3.5416,3.5416,0,0,1-2.0723-1.9293,13.6556,13.6556,0,0,1,1.3376-.5983,6.216,6.216,0,0,0,.5191.7079,1.8983,1.8983,0,0,0,2.1345.4118A1.7365,1.7365,0,0,0,32.3024,11.26c.0216-.25.0034-.504.0034-.7512a.0879.0879,0,0,0-.1169.0057,2.6664,2.6664,0,0,1-3.08.4607A3.645,3.645,0,0,1,29.59,4.1175a2.6732,2.6732,0,0,1,2.694.6825l.0444-.5479H33.772c.08.0853.05.1886.05.2825q.0023,3.1764.0006,6.3528a4.4591,4.4591,0,0,1-.28,1.5618,2.9753,2.9753,0,0,1-2.1988,1.9457c-.0765.0191-.1741-.0119-.2145.0915ZM32.4185,7.64c-.0077-.14-.0035-.282-.025-.42A1.944,1.944,0,0,0,31.0183,5.522a1.8,1.8,0,0,0-1.92.541,2.4132,2.4132,0,0,0-.2236,2.8539,1.8934,1.8934,0,0,0,3.209.0062,2.2253,2.2253,0,0,0,.3348-1.2826Z"/><path class="a" d="M18.4176,7.6106a3.53,3.53,0,0,1-3.4284,3.6287q-.0653.0019-.1306.0013a3.6181,3.6181,0,0,1-.1053-7.2354,3.5057,3.5057,0,0,1,3.6622,3.3419Q18.4215,7.4788,18.4176,7.6106Zm-1.5835.0216A2.1147,2.1147,0,0,0,15.5353,5.567,2.0512,2.0512,0,0,0,12.782,7.4641a2.1173,2.1173,0,0,0,1.781,2.32,2.0321,2.0321,0,0,0,2.2711-2.1519Z"/><path class="a" d="M26.2632,7.6369a3.5359,3.5359,0,0,1-3.4722,3.5985q-.0514.0009-.1029,0a3.6215,3.6215,0,0,1-3.6325-3.61q0-.0224,0-.0448a3.5512,3.5512,0,0,1,3.53-3.5719q.047,0,.0939.0007a3.4609,3.4609,0,0,1,3.585,3.3322Q26.27,7.4892,26.2632,7.6369ZM22.6206,9.7935a1.8777,1.8777,0,0,0,1.7271-.9219,2.325,2.325,0,0,0,.2865-1.8523A2.0541,2.0541,0,0,0,23.04,5.4729a1.98,1.98,0,0,0-2.1229,1.02,2.4462,2.4462,0,0,0-.2262,1.6276A2.0076,2.0076,0,0,0,22.6206,9.7935Z"/><path class="a" d="M43.77,6.71c-.8285.3467-1.6148.676-2.4013,1.0047s-1.5747.6574-2.3964,1a1.651,1.651,0,0,0,1.244,1.041,2.0429,2.0429,0,0,0,2.2476-.939l1.2416.8274a3.5407,3.5407,0,0,1-3.1072,1.5923A3.3885,3.3885,0,0,1,37.24,8.376a3.7794,3.7794,0,0,1,.5619-2.9373,3.2026,3.2026,0,0,1,5.55.3468C43.5012,6.07,43.618,6.3707,43.77,6.71Zm-5.0463.7927,3.1391-1.3217a1.3823,1.3823,0,0,0-1.6357-.7363,1.9729,1.9729,0,0,0-1.5029,2.0579Z"/><path class="a" d="M36.4258,11.0172H34.8879V.3943h1.5379Z"/></svg>