<svg xmlns="http://www.w3.org/2000/svg" width="33.7478" height="16.0006" viewBox="0 0 33.7478 16.0006"><defs><style>.a{fill:#e95d0f;}</style></defs><title>etsy</title><path class="a" d="M3.62,5.7755V1.25c0-.1674.0165-.2669.3-.2669H7.7544c.6728,0,1.0378.57,1.3093,1.6411l.2172.8566h.6532C10.0516,1.0529,10.1528,0,10.1528,0S8.51.187,7.5388.187H2.6305L0,.1026V.8039L.89.97c.6229.1162.7707.2533.8191.8189,0,0,.05,1.6774.05,4.4392,0,2.7647-.05,4.421-.05,4.421,0,.5037-.2022.6862-.8191.8039L0,11.6189V12.32l2.6305-.0845H7.0214c.9865,0,3.2837.0845,3.2837.0845.05-.6048.3817-3.3365.4343-3.6336H10.118l-.65,1.4933a1.9286,1.9286,0,0,1-2.11,1.2579H4.8615c-.8387,0-1.24-.3333-1.24-1.0543V6.5643s1.8237,0,2.46.0468c.4691.0332.7542.169.9065.8191l.2051.8733h.721l-.05-2.1976.1-2.2143H7.2416l-.2338.9743c-.1523.6365-.2533.7513-.9065.8175-.7391.0845-2.48.068-2.48.068L3.62,5.7755Z"/><path class="a" d="M13.5556,1.72a3.3734,3.3734,0,0,1-1.29,2.3788,2.8916,2.8916,0,0,1-1.21.4675v.6365h1.49v5.142a2.0207,2.0207,0,0,0,2.2292,2.1449,2.4533,2.4533,0,0,0,2.3621-1.29l-.3514-.451a1.6977,1.6977,0,0,1-1.3742.7045c-.7375,0-1.14-.5023-1.14-1.7753V5.1345l2.48.187.1328-1.1389-2.6155.1V1.7331Z"/><path class="a" d="M18.85,9.6338l-.6365.0167c.0316.3681.05.84.05,1.273a8.5934,8.5934,0,0,1-.05,1.0694,8.51,8.51,0,0,0,2.5672.4691c1.7421,0,3.1314-.8371,3.1314-2.4782,0-2.8131-4.225-2.3937-4.225-4.29,0-.7874.7014-1.0891,1.4721-1.0891.6064,0,1.1027.2187,1.21.5369l.4178,1.26.6215-.0317c.05-.6713.0874-1.442.187-2.06a7.4168,7.4168,0,0,0-2.3621-.3681c-1.6426,0-2.9669.7195-2.9669,2.3289,0,2.7995,4.1193,2.2294,4.1193,4.29,0,.7391-.4495,1.2579-1.4737,1.2579a1.5644,1.5644,0,0,1-1.5929-.9729Z"/><path class="a" d="M28.95,11.5691c-.9714,2.709-2.16,3.4088-3.228,3.4088a.6521.6521,0,0,1-.7375-.5159l-.2535-1.3047-.7043.0317c-.1313.7692-.2655,1.6246-.4495,2.3273a3.0019,3.0019,0,0,0,1.6741.4842c1.1539,0,2.9112-.1463,4.5177-3.9639L32.46,5.6835c.2187-.5159.3032-.5656.9368-.8175l.3514-.1342V4.145l-1.59.0829L30.4536,4.145v.5823l.4345.1342c.4374.1342.6365.3032.6365.6033A1.6886,1.6886,0,0,1,31.3933,6c-.2535.6365-1.804,4.4165-2.2248,5.22l.4207-.1478c-.7391-1.819-1.8567-4.869-2.0257-5.3863a.9.9,0,0,1-.05-.2655c0-.27.184-.4856.5852-.5672l.55-.1146V4.151l-2.2926.0845L24.5364,4.151v.5838l.3031.0979c.4179.1358.5174.2519.7709.8371,1.3861,3.1782,2.0377,4.9188,2.9217,7.1888Z"/></svg>